{"glyphs":{"0":{"ha":776,"x_min":63,"x_max":714,"o":"m 388 -8 q 222 23 296 -8 q 106 124 149 54 q 63 310 63 194 l 63 697 q 106 883 63 813 q 222 984 149 953 q 388 1015 296 1015 q 553 984 479 1015 q 671 883 628 953 q 714 697 714 813 l 714 310 q 671 124 714 194 q 553 23 628 54 q 388 -8 479 -8 m 388 150 q 494 189 456 150 q 533 310 533 228 l 533 697 q 494 818 533 779 q 388 857 456 857 q 281 818 319 857 q 243 697 243 779 l 243 310 q 281 189 243 228 q 388 150 319 150 m 388 438 q 341 456 358 438 q 324 503 324 475 q 341 549 324 532 q 388 567 358 567 q 435 549 418 567 q 453 503 453 532 q 435 456 453 475 q 388 438 418 438 z "},"1":{"ha":399,"x_min":4,"x_max":319,"o":"m 229 0 q 167 15 196 0 q 139 57 139 29 l 139 799 l 94 754 q 78 745 86 749 q 63 742 69 742 q 20 765 36 742 q 4 814 4 788 q 13 851 4 833 q 38 879 21 868 l 201 1004 q 219 1015 210 1011 q 240 1018 228 1018 q 294 1002 268 1018 q 319 960 319 986 l 319 57 q 292 15 319 29 q 229 0 264 0 z "},"2":{"ha":701,"x_min":36,"x_max":667,"o":"m 115 0 q 64 16 92 0 q 36 57 36 32 l 36 192 q 68 295 36 247 q 151 386 100 343 q 260 469 203 429 q 367 551 317 510 q 451 636 418 593 q 483 728 483 679 q 470 785 483 757 q 428 833 457 814 q 354 851 400 851 q 267 823 304 851 q 231 729 231 794 q 206 683 231 704 q 136 663 181 663 q 78 683 100 663 q 56 760 56 704 q 97 897 56 839 q 208 985 139 954 q 353 1015 276 1015 q 505 981 433 1015 q 620 885 576 947 q 664 733 664 822 q 632 600 664 660 q 550 492 600 540 q 444 403 500 443 q 338 330 388 364 q 256 263 288 296 q 224 192 224 229 l 224 158 l 610 158 q 650 135 633 158 q 667 81 667 113 q 650 24 667 49 q 610 0 633 0 l 115 0 z "},"3":{"ha":724,"x_min":28,"x_max":679,"o":"m 346 -8 q 201 15 261 -8 q 101 76 140 39 q 45 158 63 114 q 28 244 28 203 q 47 301 28 286 q 113 315 65 315 q 187 301 168 315 q 206 251 206 286 q 215 209 206 228 q 244 177 225 190 q 290 157 263 164 q 350 150 317 150 q 463 185 428 150 q 499 300 499 219 l 499 326 q 456 431 499 403 q 347 458 414 458 q 304 481 317 458 q 292 529 292 503 q 304 578 292 556 q 346 600 317 600 q 410 609 381 600 q 456 647 439 618 q 474 736 474 676 q 441 832 474 806 q 351 858 408 858 q 294 852 318 858 q 256 833 271 846 q 234 804 240 821 q 228 765 228 788 q 210 715 228 735 q 143 696 193 696 q 82 703 101 696 q 56 727 63 710 q 49 774 49 744 q 64 853 49 811 q 114 932 79 894 q 207 992 149 969 q 353 1015 265 1015 q 503 992 438 1015 q 608 914 569 968 q 647 767 647 860 q 618 622 647 685 q 538 536 589 560 q 639 463 599 513 q 679 326 679 413 l 679 300 q 634 120 679 188 q 513 22 589 53 q 346 -8 438 -8 z "},"4":{"ha":697,"x_min":-3,"x_max":696,"o":"m 483 0 q 421 15 449 0 q 393 57 393 29 l 393 221 l 60 221 q 15 238 33 221 q -3 285 -3 256 q 0 303 -3 293 q 7 321 3 313 l 336 968 q 370 1005 350 994 q 413 1015 390 1015 q 450 1007 429 1015 q 487 983 471 999 q 503 946 503 968 q 496 922 503 938 l 229 389 l 393 389 l 393 535 q 421 578 393 565 q 483 592 449 592 q 545 578 517 592 q 574 535 574 565 l 574 389 l 638 389 q 681 363 667 389 q 696 304 696 336 q 678 247 696 274 q 638 221 660 221 l 574 221 l 574 57 q 545 15 574 29 q 483 0 517 0 z "},"5":{"ha":706,"x_min":24,"x_max":675,"o":"m 351 -8 q 172 28 246 -8 q 61 122 99 64 q 24 243 24 179 q 47 308 24 292 q 114 325 71 325 q 188 305 171 325 q 204 256 204 285 q 223 199 204 222 q 274 163 242 175 q 347 150 307 150 q 456 188 417 150 q 494 304 494 225 l 494 331 q 456 448 494 410 q 349 486 417 486 l 143 486 q 86 506 101 486 q 71 557 71 525 q 72 575 71 567 q 74 593 72 583 l 108 958 q 119 1000 110 985 q 143 1015 128 1015 l 571 1015 q 612 991 599 1015 q 625 936 625 967 q 612 882 625 907 q 571 857 599 857 l 258 857 l 242 628 l 349 628 q 514 599 440 628 q 631 505 588 571 q 675 331 675 439 l 675 304 q 631 122 675 192 q 514 22 588 53 q 351 -8 440 -8 z "},"6":{"ha":763,"x_min":63,"x_max":714,"o":"m 389 -8 q 224 23 297 -8 q 106 124 150 54 q 63 310 63 194 l 63 697 q 107 883 63 813 q 227 984 151 953 q 399 1015 303 1015 q 540 992 481 1015 q 639 932 600 969 q 696 849 678 894 q 714 761 714 804 q 693 703 714 719 q 629 686 672 686 q 565 700 593 686 q 536 754 536 714 q 516 809 536 786 q 464 844 496 832 q 393 857 432 857 q 283 818 322 857 q 243 697 243 779 l 243 546 q 324 601 276 586 q 426 617 372 617 q 570 590 506 617 q 674 501 635 564 q 714 329 714 439 l 714 310 q 671 124 714 194 q 554 23 628 54 q 389 -8 481 -8 m 389 139 q 495 177 457 139 q 533 299 533 215 l 533 317 q 495 439 533 403 q 388 475 457 475 q 283 442 322 475 q 243 329 243 408 l 243 299 q 282 177 243 215 q 389 139 321 139 z "},"7":{"ha":690,"x_min":24,"x_max":675,"o":"m 236 -7 q 183 5 210 -7 q 140 38 156 17 q 124 83 124 58 q 132 115 124 100 l 494 765 l 494 857 l 204 857 l 204 744 q 176 703 204 721 q 113 686 149 686 q 50 703 76 686 q 24 744 24 721 l 24 958 q 49 997 24 979 q 103 1015 74 1015 l 596 1015 q 649 997 622 1015 q 675 958 675 979 l 675 800 q 664 749 675 779 q 639 694 653 719 l 289 19 q 236 -7 275 -7 z "},"8":{"ha":740,"x_min":44,"x_max":696,"o":"m 371 -8 q 206 20 279 -8 q 88 112 132 49 q 44 278 44 175 l 44 294 q 90 465 44 401 q 210 556 136 529 q 114 629 151 576 q 76 769 76 682 q 115 912 76 858 q 219 990 153 965 q 371 1015 286 1015 q 523 990 457 1015 q 626 912 589 965 q 664 769 664 858 q 627 629 664 682 q 531 556 590 576 q 651 465 606 529 q 696 294 696 401 l 696 278 q 653 112 696 175 q 536 20 610 49 q 371 -8 463 -8 m 371 139 q 478 178 440 139 q 515 299 515 218 l 515 326 q 477 442 515 406 q 371 479 439 479 q 264 442 303 479 q 225 326 225 406 l 225 299 q 265 177 225 215 q 371 139 304 139 m 371 626 q 459 654 428 626 q 490 747 490 682 q 459 840 490 811 q 371 868 428 868 q 283 840 314 868 q 251 747 251 811 q 283 654 251 682 q 371 626 314 626 z "},"9":{"ha":764,"x_min":50,"x_max":703,"o":"m 367 -8 q 224 15 283 -8 q 125 75 164 38 q 68 158 86 113 q 50 246 50 203 q 72 305 50 289 q 135 321 93 321 q 201 308 172 321 q 229 253 229 294 q 249 198 229 221 q 300 163 268 175 q 371 150 332 150 q 482 189 442 150 q 522 310 522 228 l 522 461 q 440 406 488 421 q 338 390 392 390 q 193 417 258 390 q 89 506 128 443 q 50 678 50 568 l 50 697 q 93 883 50 813 q 210 984 136 953 q 375 1015 283 1015 q 541 984 467 1015 q 659 883 615 953 q 703 697 703 813 l 703 310 q 658 124 703 194 q 537 23 613 54 q 367 -8 461 -8 m 376 532 q 483 566 443 532 q 522 678 522 600 l 522 708 q 483 830 522 792 q 375 868 444 868 q 269 830 307 868 q 231 708 231 792 l 231 690 q 269 568 231 604 q 376 532 307 532 z "},"A":{"ha":797,"x_min":13,"x_max":786,"o":"m 126 0 q 75 10 101 0 q 31 36 49 19 q 13 75 13 53 q 14 89 13 79 l 282 963 q 326 1008 292 993 q 399 1024 360 1024 q 472 1008 439 1024 q 515 963 506 993 l 783 89 q 786 75 786 79 q 767 37 786 54 q 722 10 749 19 q 671 0 696 0 q 633 8 649 0 q 611 36 617 15 l 558 221 l 239 221 l 188 36 q 165 8 182 15 q 126 0 149 0 m 278 363 l 519 363 l 399 789 l 278 363 z "},"Á":{"ha":797,"x_min":13,"x_max":786,"o":"m 126 0 q 75 10 101 0 q 31 36 49 19 q 13 75 13 53 q 14 89 13 79 l 282 963 q 326 1008 292 993 q 399 1024 360 1024 q 472 1008 439 1024 q 515 963 506 993 l 783 89 q 786 75 786 79 q 767 37 786 54 q 722 10 749 19 q 671 0 696 0 q 633 8 649 0 q 611 36 617 15 l 558 221 l 239 221 l 188 36 q 165 8 182 15 q 126 0 149 0 m 278 363 l 519 363 l 399 789 l 278 363 m 353 1126 q 314 1149 331 1126 q 297 1194 297 1172 q 321 1238 297 1225 l 504 1326 q 522 1329 514 1329 q 562 1307 546 1329 q 578 1261 578 1285 q 553 1219 578 1232 l 372 1132 q 363 1128 367 1131 q 353 1126 358 1126 z "},"Ă":{"ha":797,"x_min":13,"x_max":786,"o":"m 126 0 q 75 10 101 0 q 31 36 49 19 q 13 75 13 53 q 14 89 13 79 l 282 963 q 326 1008 292 993 q 399 1024 360 1024 q 472 1008 439 1024 q 515 963 506 993 l 783 89 q 786 75 786 79 q 767 37 786 54 q 722 10 749 19 q 671 0 696 0 q 633 8 649 0 q 611 36 617 15 l 558 221 l 239 221 l 188 36 q 165 8 182 15 q 126 0 149 0 m 278 363 l 519 363 l 399 789 l 278 363 m 399 1154 q 285 1197 338 1154 q 218 1299 233 1239 q 224 1328 214 1318 q 254 1339 235 1339 l 276 1339 q 302 1330 293 1339 q 317 1306 311 1321 q 349 1254 325 1274 q 399 1235 374 1235 q 449 1254 426 1235 q 481 1306 471 1274 q 495 1330 486 1321 q 521 1339 504 1339 l 543 1339 q 572 1328 561 1339 q 578 1297 583 1317 q 511 1197 563 1239 q 399 1154 460 1154 z "},"Ắ":{"ha":797,"x_min":13,"x_max":786,"o":"m 126 0 q 75 10 101 0 q 31 36 49 19 q 13 75 13 53 q 14 89 13 79 l 282 963 q 326 1008 292 993 q 399 1024 360 1024 q 472 1008 439 1024 q 515 963 506 993 l 783 89 q 786 75 786 79 q 767 37 786 54 q 722 10 749 19 q 671 0 696 0 q 633 8 649 0 q 611 36 617 15 l 558 221 l 239 221 l 188 36 q 165 8 182 15 q 126 0 149 0 m 278 363 l 519 363 l 399 789 l 278 363 m 399 1106 q 285 1148 338 1106 q 218 1250 233 1190 q 224 1280 214 1269 q 254 1290 235 1290 l 276 1290 q 302 1281 293 1290 q 317 1257 311 1272 q 349 1206 325 1225 q 399 1186 374 1186 q 449 1206 426 1186 q 481 1257 471 1225 q 495 1281 486 1272 q 521 1290 504 1290 l 543 1290 q 572 1279 561 1290 q 578 1249 583 1268 q 511 1148 563 1190 q 399 1106 460 1106 m 371 1336 q 332 1359 349 1336 q 315 1404 315 1382 q 339 1447 315 1435 l 522 1536 q 540 1539 532 1539 q 580 1517 564 1539 q 596 1471 596 1494 q 571 1429 596 1442 l 390 1342 q 381 1338 385 1340 q 371 1336 376 1336 z "},"Ặ":{"ha":724,"x_min":13,"x_max":786,"o":"m 126 0 q 75 10 101 0 q 31 36 49 19 q 13 75 13 53 q 14 89 13 79 l 282 963 q 326 1008 292 993 q 399 1024 360 1024 q 472 1008 439 1024 q 515 963 506 993 l 783 89 q 786 75 786 79 q 767 37 786 54 q 722 10 749 19 q 671 0 696 0 q 633 8 649 0 q 611 36 617 15 l 558 221 l 239 221 l 188 36 q 165 8 182 15 q 126 0 149 0 m 278 363 l 519 363 l 399 789 l 278 363 m 383 -183 q 316 -155 343 -183 q 289 -89 289 -126 q 316 -22 289 -50 q 383 6 343 6 q 449 -22 421 6 q 476 -89 476 -50 q 449 -155 476 -126 q 383 -183 421 -183 m 396 1176 q 283 1219 335 1176 q 215 1321 231 1261 q 222 1351 211 1340 q 251 1361 232 1361 l 274 1361 q 299 1352 290 1361 q 314 1328 308 1343 q 347 1276 322 1296 q 396 1257 371 1257 q 446 1276 424 1257 q 478 1328 468 1296 q 492 1352 483 1343 q 518 1361 501 1361 l 540 1361 q 569 1350 558 1361 q 575 1319 581 1339 q 508 1219 560 1261 q 396 1176 457 1176 z "},"Ằ":{"ha":797,"x_min":13,"x_max":786,"o":"m 126 0 q 75 10 101 0 q 31 36 49 19 q 13 75 13 53 q 14 89 13 79 l 282 963 q 326 1008 292 993 q 399 1024 360 1024 q 472 1008 439 1024 q 515 963 506 993 l 783 89 q 786 75 786 79 q 767 37 786 54 q 722 10 749 19 q 671 0 696 0 q 633 8 649 0 q 611 36 617 15 l 558 221 l 239 221 l 188 36 q 165 8 182 15 q 126 0 149 0 m 278 363 l 519 363 l 399 789 l 278 363 m 393 1107 q 280 1149 332 1107 q 213 1251 228 1192 q 219 1281 208 1271 q 249 1292 229 1292 l 271 1292 q 297 1283 288 1292 q 311 1258 306 1274 q 344 1207 319 1226 q 393 1188 368 1188 q 443 1207 421 1188 q 475 1258 465 1226 q 490 1283 481 1274 q 515 1292 499 1292 l 538 1292 q 567 1281 556 1292 q 572 1250 578 1269 q 506 1149 557 1192 q 393 1107 454 1107 m 400 1315 q 390 1317 394 1315 q 381 1321 386 1319 l 200 1408 q 175 1450 175 1421 q 191 1496 175 1474 q 231 1518 207 1518 q 249 1515 239 1518 l 432 1426 q 456 1383 456 1414 q 440 1338 456 1361 q 400 1315 424 1315 z "},"Ẳ":{"ha":797,"x_min":13,"x_max":786,"o":"m 126 0 q 75 10 101 0 q 31 36 49 19 q 13 75 13 53 q 14 89 13 79 l 282 963 q 326 1008 292 993 q 399 1024 360 1024 q 472 1008 439 1024 q 515 963 506 993 l 783 89 q 786 75 786 79 q 767 37 786 54 q 722 10 749 19 q 671 0 696 0 q 633 8 649 0 q 611 36 617 15 l 558 221 l 239 221 l 188 36 q 165 8 182 15 q 126 0 149 0 m 278 363 l 519 363 l 399 789 l 278 363 m 399 1106 q 285 1148 338 1106 q 218 1250 233 1190 q 224 1280 214 1269 q 254 1290 235 1290 l 276 1290 q 302 1281 293 1290 q 317 1257 311 1272 q 349 1206 325 1225 q 399 1186 374 1186 q 449 1206 426 1186 q 481 1257 471 1225 q 495 1281 486 1272 q 521 1290 504 1290 l 543 1290 q 572 1279 561 1290 q 578 1249 583 1268 q 511 1148 563 1190 q 399 1106 460 1106 m 278 1494 q 320 1522 297 1511 q 375 1532 343 1532 q 451 1515 425 1532 q 487 1473 476 1497 q 497 1426 497 1449 q 490 1389 497 1406 q 468 1356 483 1372 q 449 1333 457 1343 q 442 1313 442 1322 q 431 1290 442 1299 q 403 1281 419 1281 q 377 1290 389 1281 q 365 1313 365 1299 q 371 1337 365 1325 q 385 1363 376 1349 q 407 1392 397 1378 q 417 1417 417 1406 q 403 1443 417 1433 q 372 1453 390 1453 q 342 1446 356 1453 q 318 1431 329 1439 q 296 1423 308 1424 q 269 1438 283 1422 q 260 1468 254 1451 q 278 1494 265 1485 z "},"Ẵ":{"ha":724,"x_min":13,"x_max":786,"o":"m 126 0 q 75 10 101 0 q 31 36 49 19 q 13 75 13 53 q 14 89 13 79 l 282 963 q 326 1008 292 993 q 399 1024 360 1024 q 472 1008 439 1024 q 515 963 506 993 l 783 89 q 786 75 786 79 q 767 37 786 54 q 722 10 749 19 q 671 0 696 0 q 633 8 649 0 q 611 36 617 15 l 558 221 l 239 221 l 188 36 q 165 8 182 15 q 126 0 149 0 m 278 363 l 519 363 l 399 789 l 278 363 m 396 1111 q 283 1153 335 1111 q 215 1256 231 1196 q 222 1285 211 1275 q 251 1296 232 1296 l 274 1296 q 299 1287 290 1296 q 314 1263 308 1278 q 347 1211 322 1231 q 396 1192 371 1192 q 446 1211 424 1192 q 478 1263 468 1231 q 492 1287 483 1278 q 518 1296 501 1296 l 540 1296 q 569 1285 558 1296 q 575 1254 581 1274 q 508 1153 560 1196 q 396 1111 457 1111 m 514 1274 q 438 1284 469 1274 q 378 1304 406 1294 q 317 1314 351 1314 q 267 1306 288 1314 q 232 1289 247 1297 q 203 1281 217 1281 q 175 1292 185 1281 q 161 1317 165 1303 q 157 1339 157 1332 q 171 1390 157 1371 q 205 1418 185 1408 q 245 1431 225 1428 q 276 1433 265 1433 q 347 1424 318 1433 q 406 1403 376 1414 q 474 1393 436 1393 q 522 1401 503 1393 q 557 1418 542 1410 q 586 1426 572 1426 q 615 1415 606 1426 q 628 1389 624 1403 q 632 1368 632 1375 q 618 1317 632 1335 q 585 1289 604 1299 q 545 1276 565 1279 q 514 1274 525 1274 z "},"Â":{"ha":797,"x_min":13,"x_max":786,"o":"m 126 0 q 75 10 101 0 q 31 36 49 19 q 13 75 13 53 q 14 89 13 79 l 282 963 q 326 1008 292 993 q 399 1024 360 1024 q 472 1008 439 1024 q 515 963 506 993 l 783 89 q 786 75 786 79 q 767 37 786 54 q 722 10 749 19 q 671 0 696 0 q 633 8 649 0 q 611 36 617 15 l 558 221 l 239 221 l 188 36 q 165 8 182 15 q 126 0 149 0 m 278 363 l 519 363 l 399 789 l 278 363 m 240 1138 q 213 1155 224 1138 q 201 1193 201 1172 q 208 1222 201 1208 q 232 1244 215 1236 l 376 1322 q 400 1329 389 1329 q 424 1322 410 1329 l 568 1246 q 591 1223 585 1238 q 597 1192 597 1208 q 587 1155 597 1172 q 558 1138 576 1138 q 551 1139 556 1138 q 544 1142 547 1140 l 400 1219 l 256 1142 q 247 1139 251 1140 q 240 1138 243 1138 z "},"Ấ":{"ha":724,"x_min":13,"x_max":786,"o":"m 126 0 q 75 10 101 0 q 31 36 49 19 q 13 75 13 53 q 14 89 13 79 l 282 963 q 326 1008 292 993 q 399 1024 360 1024 q 472 1008 439 1024 q 515 963 506 993 l 783 89 q 786 75 786 79 q 767 37 786 54 q 722 10 749 19 q 671 0 696 0 q 633 8 649 0 q 611 36 617 15 l 558 221 l 239 221 l 188 36 q 165 8 182 15 q 126 0 149 0 m 278 363 l 519 363 l 399 789 l 278 363 m 251 1094 q 224 1112 236 1094 q 213 1150 213 1129 q 243 1201 213 1182 l 357 1279 q 381 1286 368 1286 q 404 1279 393 1286 l 517 1203 q 547 1149 547 1182 q 536 1112 547 1129 q 508 1094 525 1094 q 501 1096 506 1094 q 493 1099 497 1097 l 381 1176 l 267 1099 q 258 1096 263 1097 q 251 1094 254 1094 m 331 1235 q 292 1258 308 1235 q 275 1303 275 1281 q 299 1346 275 1333 l 482 1435 q 500 1438 492 1438 q 540 1415 524 1438 q 556 1369 556 1393 q 531 1328 556 1340 l 350 1240 q 340 1237 344 1239 q 331 1235 336 1235 z "},"Ậ":{"ha":724,"x_min":13,"x_max":786,"o":"m 126 0 q 75 10 101 0 q 31 36 49 19 q 13 75 13 53 q 14 89 13 79 l 282 963 q 326 1008 292 993 q 399 1024 360 1024 q 472 1008 439 1024 q 515 963 506 993 l 783 89 q 786 75 786 79 q 767 37 786 54 q 722 10 749 19 q 671 0 696 0 q 633 8 649 0 q 611 36 617 15 l 558 221 l 239 221 l 188 36 q 165 8 182 15 q 126 0 149 0 m 278 363 l 519 363 l 399 789 l 278 363 m 383 -183 q 316 -155 343 -183 q 289 -89 289 -126 q 316 -22 289 -50 q 383 6 343 6 q 449 -22 421 6 q 476 -89 476 -50 q 449 -155 476 -126 q 383 -183 421 -183 m 221 1160 q 193 1177 204 1160 q 182 1215 182 1194 q 189 1244 182 1231 q 213 1267 196 1258 l 357 1344 q 381 1351 369 1351 q 404 1344 390 1351 l 549 1268 q 572 1245 565 1260 q 578 1214 578 1231 q 567 1177 578 1194 q 539 1160 557 1160 q 532 1161 536 1160 q 525 1164 528 1163 l 381 1242 l 236 1164 q 228 1161 232 1163 q 221 1160 224 1160 z "},"Ầ":{"ha":724,"x_min":13,"x_max":786,"o":"m 126 0 q 75 10 101 0 q 31 36 49 19 q 13 75 13 53 q 14 89 13 79 l 282 963 q 326 1008 292 993 q 399 1024 360 1024 q 472 1008 439 1024 q 515 963 506 993 l 783 89 q 786 75 786 79 q 767 37 786 54 q 722 10 749 19 q 671 0 696 0 q 633 8 649 0 q 611 36 617 15 l 558 221 l 239 221 l 188 36 q 165 8 182 15 q 126 0 149 0 m 278 363 l 519 363 l 399 789 l 278 363 m 251 1097 q 224 1115 236 1097 q 213 1153 213 1132 q 243 1204 213 1185 l 357 1282 q 381 1289 368 1289 q 404 1282 393 1289 l 517 1206 q 547 1151 547 1185 q 536 1115 547 1132 q 508 1097 525 1097 q 501 1099 506 1097 q 493 1101 497 1100 l 381 1179 l 267 1101 q 258 1099 263 1100 q 251 1097 254 1097 m 510 1232 q 500 1234 504 1232 q 490 1238 496 1236 l 310 1325 q 285 1367 285 1338 q 301 1413 285 1390 q 340 1435 317 1435 q 358 1432 349 1435 l 542 1343 q 565 1300 565 1331 q 549 1255 565 1278 q 510 1232 533 1232 z "},"Ẩ":{"ha":797,"x_min":13,"x_max":786,"o":"m 126 0 q 75 10 101 0 q 31 36 49 19 q 13 75 13 53 q 14 89 13 79 l 282 963 q 326 1008 292 993 q 399 1024 360 1024 q 472 1008 439 1024 q 515 963 506 993 l 783 89 q 786 75 786 79 q 767 37 786 54 q 722 10 749 19 q 671 0 696 0 q 633 8 649 0 q 611 36 617 15 l 558 221 l 239 221 l 188 36 q 165 8 182 15 q 126 0 149 0 m 278 363 l 519 363 l 399 789 l 278 363 m 271 1108 q 244 1126 256 1108 q 232 1164 232 1143 q 263 1215 232 1196 l 376 1293 q 400 1300 388 1300 q 424 1293 413 1300 l 536 1217 q 567 1163 567 1196 q 556 1126 567 1143 q 528 1108 544 1108 q 521 1110 525 1108 q 513 1113 517 1111 l 400 1190 l 286 1113 q 278 1110 282 1111 q 271 1108 274 1108 m 460 1454 q 502 1481 479 1471 q 557 1492 525 1492 q 633 1474 607 1492 q 669 1433 658 1457 q 679 1386 679 1408 q 672 1349 679 1365 q 650 1315 665 1332 q 631 1292 639 1303 q 624 1272 624 1282 q 613 1249 624 1258 q 585 1240 601 1240 q 559 1249 571 1240 q 547 1272 547 1258 q 553 1297 547 1285 q 567 1322 558 1308 q 589 1351 579 1338 q 599 1376 599 1365 q 585 1403 599 1393 q 554 1413 572 1413 q 524 1406 538 1413 q 500 1390 511 1399 q 478 1383 490 1383 q 451 1397 465 1382 q 442 1428 436 1411 q 460 1454 447 1444 z "},"Ẫ":{"ha":724,"x_min":13,"x_max":786,"o":"m 126 0 q 75 10 101 0 q 31 36 49 19 q 13 75 13 53 q 14 89 13 79 l 282 963 q 326 1008 292 993 q 399 1024 360 1024 q 472 1008 439 1024 q 515 963 506 993 l 783 89 q 786 75 786 79 q 767 37 786 54 q 722 10 749 19 q 671 0 696 0 q 633 8 649 0 q 611 36 617 15 l 558 221 l 239 221 l 188 36 q 165 8 182 15 q 126 0 149 0 m 278 363 l 519 363 l 399 789 l 278 363 m 251 1094 q 224 1112 236 1094 q 213 1150 213 1129 q 243 1201 213 1182 l 357 1279 q 381 1286 368 1286 q 404 1279 393 1286 l 517 1203 q 547 1149 547 1182 q 536 1112 547 1129 q 508 1094 525 1094 q 501 1096 506 1094 q 493 1099 497 1097 l 381 1176 l 267 1099 q 258 1096 263 1097 q 251 1094 254 1094 m 514 1228 q 438 1238 469 1228 q 378 1258 406 1249 q 317 1268 351 1268 q 267 1260 288 1268 q 232 1243 247 1251 q 203 1235 217 1235 q 175 1246 185 1235 q 161 1272 165 1257 q 157 1293 157 1286 q 171 1344 157 1325 q 205 1372 185 1363 q 245 1385 225 1382 q 276 1388 265 1388 q 347 1378 318 1388 q 406 1358 376 1368 q 474 1347 436 1347 q 522 1356 503 1347 q 557 1372 542 1364 q 586 1381 572 1381 q 615 1369 606 1381 q 628 1343 624 1357 q 632 1322 632 1329 q 618 1271 632 1289 q 585 1243 604 1253 q 545 1231 565 1233 q 514 1228 525 1228 z "},"Ä":{"ha":797,"x_min":13,"x_max":786,"o":"m 126 0 q 75 10 101 0 q 31 36 49 19 q 13 75 13 53 q 14 89 13 79 l 282 963 q 326 1008 292 993 q 399 1024 360 1024 q 472 1008 439 1024 q 515 963 506 993 l 783 89 q 786 75 786 79 q 767 37 786 54 q 722 10 749 19 q 671 0 696 0 q 633 8 649 0 q 611 36 617 15 l 558 221 l 239 221 l 188 36 q 165 8 182 15 q 126 0 149 0 m 278 363 l 519 363 l 399 789 l 278 363 m 503 1139 q 452 1161 474 1139 q 431 1213 431 1183 q 452 1263 431 1242 q 503 1285 474 1285 q 551 1263 531 1285 q 572 1213 572 1242 q 551 1161 572 1183 q 503 1139 531 1139 m 294 1139 q 244 1161 265 1139 q 224 1213 224 1183 q 244 1263 224 1242 q 294 1285 265 1285 q 344 1263 324 1285 q 364 1213 364 1242 q 344 1161 364 1183 q 294 1139 324 1139 z "},"Ạ":{"ha":724,"x_min":13,"x_max":786,"o":"m 126 0 q 75 10 101 0 q 31 36 49 19 q 13 75 13 53 q 14 89 13 79 l 282 963 q 326 1008 292 993 q 399 1024 360 1024 q 472 1008 439 1024 q 515 963 506 993 l 783 89 q 786 75 786 79 q 767 37 786 54 q 722 10 749 19 q 671 0 696 0 q 633 8 649 0 q 611 36 617 15 l 558 221 l 239 221 l 188 36 q 165 8 182 15 q 126 0 149 0 m 278 363 l 519 363 l 399 789 l 278 363 m 383 -183 q 316 -155 343 -183 q 289 -89 289 -126 q 316 -22 289 -50 q 383 6 343 6 q 449 -22 421 6 q 476 -89 476 -50 q 449 -155 476 -126 q 383 -183 421 -183 z "},"À":{"ha":797,"x_min":13,"x_max":786,"o":"m 126 0 q 75 10 101 0 q 31 36 49 19 q 13 75 13 53 q 14 89 13 79 l 282 963 q 326 1008 292 993 q 399 1024 360 1024 q 472 1008 439 1024 q 515 963 506 993 l 783 89 q 786 75 786 79 q 767 37 786 54 q 722 10 749 19 q 671 0 696 0 q 633 8 649 0 q 611 36 617 15 l 558 221 l 239 221 l 188 36 q 165 8 182 15 q 126 0 149 0 m 278 363 l 519 363 l 399 789 l 278 363 m 456 1126 q 446 1128 450 1126 q 436 1132 442 1131 l 256 1219 q 231 1261 231 1232 q 247 1307 231 1285 q 286 1329 263 1329 q 304 1326 294 1329 l 488 1238 q 511 1194 511 1225 q 495 1149 511 1172 q 456 1126 479 1126 z "},"Ả":{"ha":797,"x_min":13,"x_max":786,"o":"m 126 0 q 75 10 101 0 q 31 36 49 19 q 13 75 13 53 q 14 89 13 79 l 282 963 q 326 1008 292 993 q 399 1024 360 1024 q 472 1008 439 1024 q 515 963 506 993 l 783 89 q 786 75 786 79 q 767 37 786 54 q 722 10 749 19 q 671 0 696 0 q 633 8 649 0 q 611 36 617 15 l 558 221 l 239 221 l 188 36 q 165 8 182 15 q 126 0 149 0 m 278 363 l 519 363 l 399 789 l 278 363 m 282 1318 q 324 1345 301 1335 q 379 1356 347 1356 q 455 1338 429 1356 q 491 1297 481 1321 q 501 1250 501 1272 q 494 1213 501 1229 q 472 1179 488 1196 q 453 1156 461 1167 q 446 1136 446 1146 q 435 1113 446 1122 q 407 1104 424 1104 q 381 1113 393 1104 q 369 1136 369 1122 q 375 1160 369 1149 q 389 1186 381 1172 q 411 1215 401 1201 q 421 1240 421 1229 q 408 1267 421 1257 q 376 1276 394 1276 q 347 1269 360 1276 q 322 1254 333 1263 q 300 1247 313 1247 q 274 1261 288 1246 q 264 1292 258 1275 q 282 1318 269 1308 z "},"Ā":{"ha":797,"x_min":13,"x_max":786,"o":"m 126 0 q 75 10 101 0 q 31 36 49 19 q 13 75 13 53 q 14 89 13 79 l 282 963 q 326 1008 292 993 q 399 1024 360 1024 q 472 1008 439 1024 q 515 963 506 993 l 783 89 q 786 75 786 79 q 767 37 786 54 q 722 10 749 19 q 671 0 696 0 q 633 8 649 0 q 611 36 617 15 l 558 221 l 239 221 l 188 36 q 165 8 182 15 q 126 0 149 0 m 278 363 l 519 363 l 399 789 l 278 363 m 256 1185 q 216 1201 232 1185 q 200 1243 200 1218 q 216 1285 200 1268 q 256 1303 232 1303 l 540 1303 q 579 1285 561 1303 q 597 1243 597 1268 q 579 1201 597 1218 q 540 1185 561 1185 l 256 1185 z "},"Ą":{"ha":797,"x_min":13,"x_max":786,"o":"m 126 0 q 75 10 101 0 q 31 36 49 19 q 13 75 13 53 q 14 89 13 79 l 282 963 q 326 1008 292 993 q 399 1024 360 1024 q 472 1008 439 1024 q 515 963 506 993 l 783 89 q 786 75 786 79 q 767 37 786 54 q 722 10 749 19 q 671 0 696 0 q 633 8 649 0 q 611 36 617 15 l 558 221 l 239 221 l 188 36 q 165 8 182 15 q 126 0 149 0 m 278 363 l 519 363 l 399 789 l 278 363 m 706 -296 q 616 -280 651 -296 q 562 -235 581 -264 q 543 -171 543 -207 q 578 -57 543 -114 q 674 36 614 0 l 739 10 q 662 -65 693 -19 q 631 -154 631 -111 q 651 -202 631 -185 q 714 -219 671 -219 q 738 -233 731 -219 q 746 -260 746 -246 q 738 -285 746 -275 q 706 -296 731 -296 z "},"Å":{"ha":797,"x_min":13,"x_max":786,"o":"m 126 0 q 75 10 101 0 q 31 36 49 19 q 13 75 13 53 q 14 89 13 79 l 282 963 q 326 1008 292 993 q 399 1024 360 1024 q 472 1008 439 1024 q 515 963 506 993 l 783 89 q 786 75 786 79 q 767 37 786 54 q 722 10 749 19 q 671 0 696 0 q 633 8 649 0 q 611 36 617 15 l 558 221 l 239 221 l 188 36 q 165 8 182 15 q 126 0 149 0 m 278 363 l 519 363 l 399 789 l 278 363 m 399 1122 q 331 1142 363 1122 q 282 1194 300 1161 q 264 1263 264 1226 q 282 1329 264 1299 q 331 1380 300 1360 q 399 1400 361 1400 q 466 1381 435 1400 q 517 1331 497 1363 q 536 1263 536 1299 q 517 1194 536 1226 q 466 1142 497 1161 q 399 1122 435 1122 m 400 1194 q 444 1215 426 1194 q 461 1261 461 1236 q 444 1304 461 1285 q 400 1324 426 1324 q 353 1303 372 1324 q 335 1263 335 1283 q 354 1216 335 1238 q 400 1194 374 1194 z "},"Ã":{"ha":797,"x_min":13,"x_max":786,"o":"m 126 0 q 75 10 101 0 q 31 36 49 19 q 13 75 13 53 q 14 89 13 79 l 282 963 q 326 1008 292 993 q 399 1024 360 1024 q 472 1008 439 1024 q 515 963 506 993 l 783 89 q 786 75 786 79 q 767 37 786 54 q 722 10 749 19 q 671 0 696 0 q 633 8 649 0 q 611 36 617 15 l 558 221 l 239 221 l 188 36 q 165 8 182 15 q 126 0 149 0 m 278 363 l 519 363 l 399 789 l 278 363 m 518 1154 q 442 1165 474 1154 q 383 1185 410 1175 q 321 1194 356 1194 q 272 1186 292 1194 q 236 1169 251 1178 q 207 1161 221 1161 q 179 1172 189 1161 q 165 1198 169 1183 q 161 1219 161 1213 q 175 1270 161 1251 q 209 1299 189 1289 q 249 1311 229 1308 q 281 1314 269 1314 q 351 1304 322 1314 q 410 1284 381 1294 q 478 1274 440 1274 q 526 1282 507 1274 q 561 1299 546 1290 q 590 1307 576 1307 q 619 1295 610 1307 q 632 1269 628 1283 q 636 1249 636 1256 q 622 1197 636 1215 q 589 1169 608 1179 q 549 1157 569 1160 q 518 1154 529 1154 z "},"Æ":{"ha":1093,"x_min":79,"x_max":1069,"o":"m 158 0 q 97 19 115 0 q 79 64 79 38 l 79 697 q 122 883 79 813 q 235 984 164 953 q 394 1015 307 1015 l 1014 1015 q 1056 990 1043 1015 q 1069 938 1069 965 q 1056 881 1069 904 q 1014 857 1042 857 l 696 857 l 696 579 l 863 579 q 903 558 889 579 q 918 507 918 536 q 905 460 918 483 q 863 438 892 438 l 696 438 l 696 158 l 1014 158 q 1056 135 1042 158 q 1069 78 1069 111 q 1056 25 1069 50 q 1014 0 1043 0 l 596 0 q 540 15 565 0 q 515 57 515 29 l 515 438 l 249 438 l 249 64 q 234 19 249 38 q 158 0 219 0 m 249 579 l 515 579 l 515 857 l 394 857 q 288 817 326 857 q 249 697 249 778 l 249 579 z "},"Ǽ":{"ha":1093,"x_min":79,"x_max":1069,"o":"m 158 0 q 97 19 115 0 q 79 64 79 38 l 79 697 q 122 883 79 813 q 235 984 164 953 q 394 1015 307 1015 l 1014 1015 q 1056 990 1043 1015 q 1069 938 1069 965 q 1056 881 1069 904 q 1014 857 1042 857 l 696 857 l 696 579 l 863 579 q 903 558 889 579 q 918 507 918 536 q 905 460 918 483 q 863 438 892 438 l 696 438 l 696 158 l 1014 158 q 1056 135 1042 158 q 1069 78 1069 111 q 1056 25 1069 50 q 1014 0 1043 0 l 596 0 q 540 15 565 0 q 515 57 515 29 l 515 438 l 249 438 l 249 64 q 234 19 249 38 q 158 0 219 0 m 249 579 l 515 579 l 515 857 l 394 857 q 288 817 326 857 q 249 697 249 778 l 249 579 m 563 1126 q 524 1149 540 1126 q 507 1194 507 1172 q 531 1238 507 1225 l 714 1326 q 732 1329 724 1329 q 772 1307 756 1329 q 788 1261 788 1285 q 763 1219 788 1232 l 582 1132 q 572 1128 576 1131 q 563 1126 568 1126 z "},"B":{"ha":781,"x_min":83,"x_max":736,"o":"m 163 0 q 105 17 126 0 q 83 56 83 33 l 83 958 q 108 1001 83 986 q 163 1015 133 1015 l 432 1015 q 567 995 503 1015 q 671 922 631 975 q 711 771 711 869 q 679 630 711 686 q 593 550 647 574 q 668 508 636 535 q 718 437 700 481 q 736 324 736 393 l 736 294 q 699 122 736 186 q 599 28 663 57 q 458 0 536 0 l 163 0 m 263 158 l 419 158 q 519 194 483 158 q 556 310 556 231 l 556 332 q 519 447 556 414 q 419 479 483 479 l 263 479 l 263 158 m 263 621 l 419 621 q 503 654 476 621 q 531 740 531 688 q 517 803 531 778 q 478 843 503 829 q 418 857 453 857 l 263 857 l 263 621 z "},"C":{"ha":765,"x_min":74,"x_max":725,"o":"m 393 -8 q 233 23 307 -8 q 117 124 160 54 q 74 310 74 194 l 74 697 q 117 883 74 813 q 233 984 160 953 q 394 1015 307 1015 q 566 983 492 1015 q 683 892 640 950 q 725 751 725 833 q 703 680 725 697 q 635 663 681 663 q 572 676 597 663 q 544 719 546 689 q 540 759 544 736 q 521 804 535 782 q 478 842 507 826 q 400 857 450 857 q 291 817 329 857 q 253 697 253 778 l 253 310 q 292 189 253 228 q 403 150 331 150 q 478 165 450 150 q 519 203 506 181 q 537 251 532 226 q 544 299 542 276 q 572 343 547 331 q 633 356 597 356 q 703 338 681 356 q 725 267 725 319 q 683 121 725 183 q 565 25 640 58 q 393 -8 490 -8 z "},"Ć":{"ha":765,"x_min":74,"x_max":725,"o":"m 393 -8 q 233 23 307 -8 q 117 124 160 54 q 74 310 74 194 l 74 697 q 117 883 74 813 q 233 984 160 953 q 394 1015 307 1015 q 566 983 492 1015 q 683 892 640 950 q 725 751 725 833 q 703 680 725 697 q 635 663 681 663 q 572 676 597 663 q 544 719 546 689 q 540 759 544 736 q 521 804 535 782 q 478 842 507 826 q 400 857 450 857 q 291 817 329 857 q 253 697 253 778 l 253 310 q 292 189 253 228 q 403 150 331 150 q 478 165 450 150 q 519 203 506 181 q 537 251 532 226 q 544 299 542 276 q 572 343 547 331 q 633 356 597 356 q 703 338 681 356 q 725 267 725 319 q 683 121 725 183 q 565 25 640 58 q 393 -8 490 -8 m 340 1126 q 301 1149 318 1126 q 285 1194 285 1172 q 308 1238 285 1225 l 492 1326 q 510 1329 501 1329 q 549 1307 533 1329 q 565 1261 565 1285 q 540 1219 565 1232 l 360 1132 q 350 1128 354 1131 q 340 1126 346 1126 z "},"Č":{"ha":765,"x_min":74,"x_max":725,"o":"m 393 -8 q 233 23 307 -8 q 117 124 160 54 q 74 310 74 194 l 74 697 q 117 883 74 813 q 233 984 160 953 q 394 1015 307 1015 q 566 983 492 1015 q 683 892 640 950 q 725 751 725 833 q 703 680 725 697 q 635 663 681 663 q 572 676 597 663 q 544 719 546 689 q 540 759 544 736 q 521 804 535 782 q 478 842 507 826 q 400 857 450 857 q 291 817 329 857 q 253 697 253 778 l 253 310 q 292 189 253 228 q 403 150 331 150 q 478 165 450 150 q 519 203 506 181 q 537 251 532 226 q 544 299 542 276 q 572 343 547 331 q 633 356 597 356 q 703 338 681 356 q 725 267 725 319 q 683 121 725 183 q 565 25 640 58 q 393 -8 490 -8 m 388 1147 q 363 1156 376 1147 l 219 1247 q 197 1270 204 1257 q 189 1300 189 1283 q 200 1337 189 1319 q 228 1354 211 1354 q 244 1349 236 1354 l 388 1257 l 529 1349 q 546 1354 539 1354 q 574 1337 564 1354 q 585 1300 585 1319 q 578 1270 585 1283 q 556 1247 572 1257 l 413 1156 q 388 1147 397 1147 z "},"Ç":{"ha":765,"x_min":74,"x_max":725,"o":"m 393 -8 q 233 23 307 -8 q 117 124 160 54 q 74 310 74 194 l 74 697 q 117 883 74 813 q 233 984 160 953 q 394 1015 307 1015 q 566 983 492 1015 q 683 892 640 950 q 725 751 725 833 q 703 680 725 697 q 635 663 681 663 q 572 676 597 663 q 544 719 546 689 q 540 759 544 736 q 521 804 535 782 q 478 842 507 826 q 400 857 450 857 q 291 817 329 857 q 253 697 253 778 l 253 310 q 292 189 253 228 q 403 150 331 150 q 478 165 450 150 q 519 203 506 181 q 537 251 532 226 q 544 299 542 276 q 572 343 547 331 q 633 356 597 356 q 703 338 681 356 q 725 267 725 319 q 683 121 725 183 q 565 25 640 58 q 393 -8 490 -8 m 407 -300 q 356 -296 383 -300 q 309 -282 329 -292 q 289 -260 289 -272 q 292 -242 289 -254 q 303 -219 296 -231 q 321 -208 310 -208 q 349 -218 332 -208 q 401 -228 367 -228 q 449 -216 432 -228 q 467 -182 467 -204 q 451 -147 467 -161 q 400 -131 435 -133 l 324 -124 l 363 13 l 442 13 l 415 -71 q 519 -104 486 -74 q 553 -178 553 -135 q 540 -231 553 -201 q 494 -280 526 -260 q 407 -300 463 -300 z "},"Ĉ":{"ha":765,"x_min":74,"x_max":725,"o":"m 393 -8 q 233 23 307 -8 q 117 124 160 54 q 74 310 74 194 l 74 697 q 117 883 74 813 q 233 984 160 953 q 394 1015 307 1015 q 566 983 492 1015 q 683 892 640 950 q 725 751 725 833 q 703 680 725 697 q 635 663 681 663 q 572 676 597 663 q 544 719 546 689 q 540 759 544 736 q 521 804 535 782 q 478 842 507 826 q 400 857 450 857 q 291 817 329 857 q 253 697 253 778 l 253 310 q 292 189 253 228 q 403 150 331 150 q 478 165 450 150 q 519 203 506 181 q 537 251 532 226 q 544 299 542 276 q 572 343 547 331 q 633 356 597 356 q 703 338 681 356 q 725 267 725 319 q 683 121 725 183 q 565 25 640 58 q 393 -8 490 -8 m 228 1138 q 200 1155 211 1138 q 189 1193 189 1172 q 196 1222 189 1208 q 219 1244 203 1236 l 364 1322 q 388 1329 376 1329 q 411 1322 397 1329 l 556 1246 q 578 1223 572 1238 q 585 1192 585 1208 q 574 1155 585 1172 q 546 1138 564 1138 q 539 1139 543 1138 q 532 1142 535 1140 l 388 1219 l 243 1142 q 235 1139 239 1140 q 228 1138 231 1138 z "},"Ċ":{"ha":765,"x_min":74,"x_max":725,"o":"m 393 -8 q 233 23 307 -8 q 117 124 160 54 q 74 310 74 194 l 74 697 q 117 883 74 813 q 233 984 160 953 q 394 1015 307 1015 q 566 983 492 1015 q 683 892 640 950 q 725 751 725 833 q 703 680 725 697 q 635 663 681 663 q 572 676 597 663 q 544 719 546 689 q 540 759 544 736 q 521 804 535 782 q 478 842 507 826 q 400 857 450 857 q 291 817 329 857 q 253 697 253 778 l 253 310 q 292 189 253 228 q 403 150 331 150 q 478 165 450 150 q 519 203 506 181 q 537 251 532 226 q 544 299 542 276 q 572 343 547 331 q 633 356 597 356 q 703 338 681 356 q 725 267 725 319 q 683 121 725 183 q 565 25 640 58 q 393 -8 490 -8 m 388 1140 q 337 1163 358 1140 q 315 1214 315 1185 q 337 1265 315 1243 q 388 1288 358 1288 q 438 1265 417 1288 q 458 1214 458 1243 q 438 1163 458 1185 q 388 1140 417 1140 z "},"D":{"ha":807,"x_min":83,"x_max":736,"o":"m 163 0 q 105 17 126 0 q 83 56 83 33 l 83 960 q 105 999 83 982 q 163 1015 126 1015 l 408 1015 q 575 984 501 1015 q 692 883 649 953 q 736 697 736 813 l 736 318 q 692 133 736 203 q 575 31 649 63 q 408 0 501 0 l 163 0 m 264 158 l 408 158 q 517 198 478 158 q 556 318 556 238 l 556 697 q 517 817 556 778 q 410 857 478 857 l 264 857 l 264 158 z "},"Ð":{"ha":817,"x_min":-10,"x_max":744,"o":"m 172 0 q 115 17 136 0 q 93 56 93 33 l 93 467 l 36 467 q 2 486 14 467 q -10 531 -10 506 q 2 576 -10 556 q 36 596 14 596 l 93 596 l 93 960 q 115 999 93 982 q 172 1015 136 1015 l 418 1015 q 584 984 510 1015 q 701 883 658 953 q 744 697 744 813 l 744 318 q 701 133 744 203 q 584 31 658 63 q 418 0 510 0 l 172 0 m 274 158 l 418 158 q 526 198 488 158 q 564 318 564 238 l 564 697 q 526 817 564 778 q 418 857 488 857 l 274 857 l 274 596 l 381 596 q 415 576 403 596 q 428 531 428 556 q 415 486 428 506 q 381 467 403 467 l 274 467 l 274 158 z "},"Ď":{"ha":807,"x_min":83,"x_max":736,"o":"m 163 0 q 105 17 126 0 q 83 56 83 33 l 83 960 q 105 999 83 982 q 163 1015 126 1015 l 408 1015 q 575 984 501 1015 q 692 883 649 953 q 736 697 736 813 l 736 318 q 692 133 736 203 q 575 31 649 63 q 408 0 501 0 l 163 0 m 264 158 l 408 158 q 517 198 478 158 q 556 318 556 238 l 556 697 q 517 817 556 778 q 410 857 478 857 l 264 857 l 264 158 m 404 1147 q 379 1156 393 1147 l 236 1247 q 213 1270 221 1257 q 206 1300 206 1283 q 217 1337 206 1319 q 244 1354 228 1354 q 261 1349 253 1354 l 404 1257 l 546 1349 q 563 1354 556 1354 q 591 1337 581 1354 q 601 1300 601 1319 q 595 1270 601 1283 q 572 1247 589 1257 l 429 1156 q 404 1147 414 1147 z "},"Đ":{"ha":817,"x_min":-10,"x_max":744,"o":"m 172 0 q 115 17 136 0 q 93 56 93 33 l 93 467 l 36 467 q 2 486 14 467 q -10 531 -10 506 q 2 576 -10 556 q 36 596 14 596 l 93 596 l 93 960 q 115 999 93 982 q 172 1015 136 1015 l 418 1015 q 584 984 510 1015 q 701 883 658 953 q 744 697 744 813 l 744 318 q 701 133 744 203 q 584 31 658 63 q 418 0 510 0 l 172 0 m 274 158 l 418 158 q 526 198 488 158 q 564 318 564 238 l 564 697 q 526 817 564 778 q 418 857 488 857 l 274 857 l 274 596 l 381 596 q 415 576 403 596 q 428 531 428 556 q 415 486 428 506 q 381 467 403 467 l 274 467 l 274 158 z "},"E":{"ha":736,"x_min":83,"x_max":714,"o":"m 163 0 q 108 15 133 0 q 83 57 83 29 l 83 958 q 108 1001 83 986 q 163 1015 133 1015 l 657 1015 q 701 990 688 1015 q 714 938 714 965 q 699 881 714 904 q 657 857 685 857 l 264 857 l 264 579 l 475 579 q 517 558 503 579 q 532 507 532 536 q 519 460 532 483 q 475 438 506 438 l 264 438 l 264 158 l 657 158 q 699 135 685 158 q 714 78 714 111 q 701 25 714 50 q 657 0 688 0 l 163 0 z "},"É":{"ha":736,"x_min":83,"x_max":714,"o":"m 163 0 q 108 15 133 0 q 83 57 83 29 l 83 958 q 108 1001 83 986 q 163 1015 133 1015 l 657 1015 q 701 990 688 1015 q 714 938 714 965 q 699 881 714 904 q 657 857 685 857 l 264 857 l 264 579 l 475 579 q 517 558 503 579 q 532 507 532 536 q 519 460 532 483 q 475 438 506 438 l 264 438 l 264 158 l 657 158 q 699 135 685 158 q 714 78 714 111 q 701 25 714 50 q 657 0 688 0 l 163 0 m 344 1126 q 306 1149 322 1126 q 289 1194 289 1172 q 313 1238 289 1225 l 496 1326 q 514 1329 506 1329 q 553 1307 538 1329 q 569 1261 569 1285 q 544 1219 569 1232 l 364 1132 q 354 1128 358 1131 q 344 1126 350 1126 z "},"Ĕ":{"ha":736,"x_min":83,"x_max":714,"o":"m 163 0 q 108 15 133 0 q 83 57 83 29 l 83 958 q 108 1001 83 986 q 163 1015 133 1015 l 657 1015 q 701 990 688 1015 q 714 938 714 965 q 699 881 714 904 q 657 857 685 857 l 264 857 l 264 579 l 475 579 q 517 558 503 579 q 532 507 532 536 q 519 460 532 483 q 475 438 506 438 l 264 438 l 264 158 l 657 158 q 699 135 685 158 q 714 78 714 111 q 701 25 714 50 q 657 0 688 0 l 163 0 m 390 1154 q 277 1197 329 1154 q 210 1299 225 1239 q 216 1328 206 1318 q 246 1339 226 1339 l 268 1339 q 294 1330 285 1339 q 308 1306 303 1321 q 341 1254 317 1274 q 390 1235 365 1235 q 440 1254 418 1235 q 472 1306 463 1274 q 487 1330 478 1321 q 513 1339 496 1339 l 535 1339 q 564 1328 553 1339 q 569 1297 575 1317 q 503 1197 554 1239 q 390 1154 451 1154 z "},"Ě":{"ha":736,"x_min":83,"x_max":714,"o":"m 163 0 q 108 15 133 0 q 83 57 83 29 l 83 958 q 108 1001 83 986 q 163 1015 133 1015 l 657 1015 q 701 990 688 1015 q 714 938 714 965 q 699 881 714 904 q 657 857 685 857 l 264 857 l 264 579 l 475 579 q 517 558 503 579 q 532 507 532 536 q 519 460 532 483 q 475 438 506 438 l 264 438 l 264 158 l 657 158 q 699 135 685 158 q 714 78 714 111 q 701 25 714 50 q 657 0 688 0 l 163 0 m 392 1147 q 367 1156 381 1147 l 224 1247 q 201 1270 208 1257 q 193 1300 193 1283 q 204 1337 193 1319 q 232 1354 215 1354 q 249 1349 240 1354 l 392 1257 l 533 1349 q 550 1354 543 1354 q 578 1337 568 1354 q 589 1300 589 1319 q 583 1270 589 1283 q 560 1247 576 1257 l 417 1156 q 392 1147 401 1147 z "},"Ê":{"ha":736,"x_min":83,"x_max":714,"o":"m 163 0 q 108 15 133 0 q 83 57 83 29 l 83 958 q 108 1001 83 986 q 163 1015 133 1015 l 657 1015 q 701 990 688 1015 q 714 938 714 965 q 699 881 714 904 q 657 857 685 857 l 264 857 l 264 579 l 475 579 q 517 558 503 579 q 532 507 532 536 q 519 460 532 483 q 475 438 506 438 l 264 438 l 264 158 l 657 158 q 699 135 685 158 q 714 78 714 111 q 701 25 714 50 q 657 0 688 0 l 163 0 m 232 1138 q 204 1155 215 1138 q 193 1193 193 1172 q 200 1222 193 1208 q 224 1244 207 1236 l 368 1322 q 392 1329 381 1329 q 415 1322 401 1329 l 560 1246 q 583 1223 576 1238 q 589 1192 589 1208 q 578 1155 589 1172 q 550 1138 568 1138 q 543 1139 547 1138 q 536 1142 539 1140 l 392 1219 l 247 1142 q 239 1139 243 1140 q 232 1138 235 1138 z "},"Ế":{"ha":692,"x_min":83,"x_max":714,"o":"m 163 0 q 108 15 133 0 q 83 57 83 29 l 83 958 q 108 1001 83 986 q 163 1015 133 1015 l 657 1015 q 701 990 688 1015 q 714 938 714 965 q 699 881 714 904 q 657 857 685 857 l 264 857 l 264 579 l 475 579 q 517 558 503 579 q 532 507 532 536 q 519 460 532 483 q 475 438 506 438 l 264 438 l 264 158 l 657 158 q 699 135 685 158 q 714 78 714 111 q 701 25 714 50 q 657 0 688 0 l 163 0 m 278 1094 q 251 1112 263 1094 q 239 1150 239 1129 q 269 1201 239 1182 l 383 1279 q 407 1286 394 1286 q 431 1279 419 1286 l 543 1203 q 574 1149 574 1182 q 563 1112 574 1129 q 535 1094 551 1094 q 528 1096 532 1094 q 519 1099 524 1097 l 407 1176 l 293 1099 q 285 1096 289 1097 q 278 1094 281 1094 m 357 1235 q 318 1258 335 1235 q 301 1303 301 1281 q 325 1346 301 1333 l 508 1435 q 526 1438 518 1438 q 566 1415 550 1438 q 582 1369 582 1393 q 557 1328 582 1340 l 376 1240 q 367 1237 371 1239 q 357 1235 363 1235 z "},"Ệ":{"ha":692,"x_min":83,"x_max":714,"o":"m 163 0 q 108 15 133 0 q 83 57 83 29 l 83 958 q 108 1001 83 986 q 163 1015 133 1015 l 657 1015 q 701 990 688 1015 q 714 938 714 965 q 699 881 714 904 q 657 857 685 857 l 264 857 l 264 579 l 475 579 q 517 558 503 579 q 532 507 532 536 q 519 460 532 483 q 475 438 506 438 l 264 438 l 264 158 l 657 158 q 699 135 685 158 q 714 78 714 111 q 701 25 714 50 q 657 0 688 0 l 163 0 m 367 -183 q 299 -155 326 -183 q 272 -89 272 -126 q 299 -22 272 -50 q 367 6 326 6 q 432 -22 404 6 q 460 -89 460 -50 q 432 -155 460 -126 q 367 -183 404 -183 m 247 1160 q 219 1177 231 1160 q 208 1215 208 1194 q 215 1244 208 1231 q 239 1267 222 1258 l 383 1344 q 407 1351 396 1351 q 431 1344 417 1351 l 575 1268 q 598 1245 592 1260 q 604 1214 604 1231 q 594 1177 604 1194 q 565 1160 583 1160 q 558 1161 563 1160 q 551 1164 554 1163 l 407 1242 l 263 1164 q 254 1161 258 1163 q 247 1160 250 1160 z "},"Ề":{"ha":692,"x_min":83,"x_max":714,"o":"m 163 0 q 108 15 133 0 q 83 57 83 29 l 83 958 q 108 1001 83 986 q 163 1015 133 1015 l 657 1015 q 701 990 688 1015 q 714 938 714 965 q 699 881 714 904 q 657 857 685 857 l 264 857 l 264 579 l 475 579 q 517 558 503 579 q 532 507 532 536 q 519 460 532 483 q 475 438 506 438 l 264 438 l 264 158 l 657 158 q 699 135 685 158 q 714 78 714 111 q 701 25 714 50 q 657 0 688 0 l 163 0 m 278 1097 q 251 1115 263 1097 q 239 1153 239 1132 q 269 1204 239 1185 l 383 1282 q 407 1289 394 1289 q 431 1282 419 1289 l 543 1206 q 574 1151 574 1185 q 563 1115 574 1132 q 535 1097 551 1097 q 528 1099 532 1097 q 519 1101 524 1100 l 407 1179 l 293 1101 q 285 1099 289 1100 q 278 1097 281 1097 m 536 1232 q 526 1234 531 1232 q 517 1238 522 1236 l 336 1325 q 311 1367 311 1338 q 327 1413 311 1390 q 367 1435 343 1435 q 385 1432 375 1435 l 568 1343 q 592 1300 592 1331 q 576 1255 592 1278 q 536 1232 560 1232 z "},"Ể":{"ha":736,"x_min":83,"x_max":714,"o":"m 163 0 q 108 15 133 0 q 83 57 83 29 l 83 958 q 108 1001 83 986 q 163 1015 133 1015 l 657 1015 q 701 990 688 1015 q 714 938 714 965 q 699 881 714 904 q 657 857 685 857 l 264 857 l 264 579 l 475 579 q 517 558 503 579 q 532 507 532 536 q 519 460 532 483 q 475 438 506 438 l 264 438 l 264 158 l 657 158 q 699 135 685 158 q 714 78 714 111 q 701 25 714 50 q 657 0 688 0 l 163 0 m 263 1108 q 235 1126 247 1108 q 224 1164 224 1143 q 254 1215 224 1196 l 368 1293 q 392 1300 379 1300 q 415 1293 404 1300 l 528 1217 q 558 1163 558 1196 q 547 1126 558 1143 q 519 1108 536 1108 q 513 1110 517 1108 q 504 1113 508 1111 l 392 1190 l 278 1113 q 269 1110 274 1111 q 263 1108 265 1108 m 451 1454 q 494 1481 471 1471 q 549 1492 517 1492 q 624 1474 599 1492 q 660 1433 650 1457 q 671 1386 671 1408 q 664 1349 671 1365 q 642 1315 657 1332 q 623 1292 631 1303 q 615 1272 615 1282 q 604 1249 615 1258 q 576 1240 593 1240 q 551 1249 563 1240 q 539 1272 539 1258 q 544 1297 539 1285 q 558 1322 550 1308 q 581 1351 571 1338 q 590 1376 590 1365 q 577 1403 590 1393 q 546 1413 564 1413 q 516 1406 529 1413 q 492 1390 503 1399 q 469 1383 482 1383 q 443 1397 457 1382 q 433 1428 428 1411 q 451 1454 439 1444 z "},"Ễ":{"ha":692,"x_min":83,"x_max":714,"o":"m 163 0 q 108 15 133 0 q 83 57 83 29 l 83 958 q 108 1001 83 986 q 163 1015 133 1015 l 657 1015 q 701 990 688 1015 q 714 938 714 965 q 699 881 714 904 q 657 857 685 857 l 264 857 l 264 579 l 475 579 q 517 558 503 579 q 532 507 532 536 q 519 460 532 483 q 475 438 506 438 l 264 438 l 264 158 l 657 158 q 699 135 685 158 q 714 78 714 111 q 701 25 714 50 q 657 0 688 0 l 163 0 m 278 1094 q 251 1112 263 1094 q 239 1150 239 1129 q 269 1201 239 1182 l 383 1279 q 407 1286 394 1286 q 431 1279 419 1286 l 543 1203 q 574 1149 574 1182 q 563 1112 574 1129 q 535 1094 551 1094 q 528 1096 532 1094 q 519 1099 524 1097 l 407 1176 l 293 1099 q 285 1096 289 1097 q 278 1094 281 1094 m 540 1228 q 464 1238 496 1228 q 405 1258 432 1249 q 343 1268 378 1268 q 294 1260 314 1268 q 258 1243 274 1251 q 229 1235 243 1235 q 201 1246 211 1235 q 188 1272 192 1257 q 183 1293 183 1286 q 197 1344 183 1325 q 231 1372 211 1363 q 272 1385 251 1382 q 303 1388 292 1388 q 374 1378 344 1388 q 433 1358 403 1368 q 500 1347 463 1347 q 549 1356 529 1347 q 583 1372 568 1364 q 613 1381 599 1381 q 641 1369 632 1381 q 654 1343 650 1357 q 658 1322 658 1329 q 644 1271 658 1289 q 611 1243 631 1253 q 572 1231 592 1233 q 540 1228 551 1228 z "},"Ë":{"ha":736,"x_min":83,"x_max":714,"o":"m 163 0 q 108 15 133 0 q 83 57 83 29 l 83 958 q 108 1001 83 986 q 163 1015 133 1015 l 657 1015 q 701 990 688 1015 q 714 938 714 965 q 699 881 714 904 q 657 857 685 857 l 264 857 l 264 579 l 475 579 q 517 558 503 579 q 532 507 532 536 q 519 460 532 483 q 475 438 506 438 l 264 438 l 264 158 l 657 158 q 699 135 685 158 q 714 78 714 111 q 701 25 714 50 q 657 0 688 0 l 163 0 m 494 1139 q 444 1161 465 1139 q 422 1213 422 1183 q 444 1263 422 1242 q 494 1285 465 1285 q 543 1263 522 1285 q 564 1213 564 1242 q 543 1161 564 1183 q 494 1139 522 1139 m 286 1139 q 236 1161 257 1139 q 215 1213 215 1183 q 236 1263 215 1242 q 286 1285 257 1285 q 335 1263 315 1285 q 356 1213 356 1242 q 335 1161 356 1183 q 286 1139 315 1139 z "},"Ė":{"ha":736,"x_min":83,"x_max":714,"o":"m 163 0 q 108 15 133 0 q 83 57 83 29 l 83 958 q 108 1001 83 986 q 163 1015 133 1015 l 657 1015 q 701 990 688 1015 q 714 938 714 965 q 699 881 714 904 q 657 857 685 857 l 264 857 l 264 579 l 475 579 q 517 558 503 579 q 532 507 532 536 q 519 460 532 483 q 475 438 506 438 l 264 438 l 264 158 l 657 158 q 699 135 685 158 q 714 78 714 111 q 701 25 714 50 q 657 0 688 0 l 163 0 m 392 1140 q 341 1163 363 1140 q 319 1214 319 1185 q 341 1265 319 1243 q 392 1288 363 1288 q 442 1265 421 1288 q 463 1214 463 1243 q 442 1163 463 1185 q 392 1140 421 1140 z "},"Ẹ":{"ha":692,"x_min":83,"x_max":714,"o":"m 163 0 q 108 15 133 0 q 83 57 83 29 l 83 958 q 108 1001 83 986 q 163 1015 133 1015 l 657 1015 q 701 990 688 1015 q 714 938 714 965 q 699 881 714 904 q 657 857 685 857 l 264 857 l 264 579 l 475 579 q 517 558 503 579 q 532 507 532 536 q 519 460 532 483 q 475 438 506 438 l 264 438 l 264 158 l 657 158 q 699 135 685 158 q 714 78 714 111 q 701 25 714 50 q 657 0 688 0 l 163 0 m 367 -183 q 299 -155 326 -183 q 272 -89 272 -126 q 299 -22 272 -50 q 367 6 326 6 q 432 -22 404 6 q 460 -89 460 -50 q 432 -155 460 -126 q 367 -183 404 -183 z "},"È":{"ha":736,"x_min":83,"x_max":714,"o":"m 163 0 q 108 15 133 0 q 83 57 83 29 l 83 958 q 108 1001 83 986 q 163 1015 133 1015 l 657 1015 q 701 990 688 1015 q 714 938 714 965 q 699 881 714 904 q 657 857 685 857 l 264 857 l 264 579 l 475 579 q 517 558 503 579 q 532 507 532 536 q 519 460 532 483 q 475 438 506 438 l 264 438 l 264 158 l 657 158 q 699 135 685 158 q 714 78 714 111 q 701 25 714 50 q 657 0 688 0 l 163 0 m 447 1126 q 438 1128 442 1126 q 428 1132 433 1131 l 247 1219 q 222 1261 222 1232 q 238 1307 222 1285 q 278 1329 254 1329 q 296 1326 286 1329 l 479 1238 q 503 1194 503 1225 q 487 1149 503 1172 q 447 1126 471 1126 z "},"Ẻ":{"ha":736,"x_min":83,"x_max":714,"o":"m 163 0 q 108 15 133 0 q 83 57 83 29 l 83 958 q 108 1001 83 986 q 163 1015 133 1015 l 657 1015 q 701 990 688 1015 q 714 938 714 965 q 699 881 714 904 q 657 857 685 857 l 264 857 l 264 579 l 475 579 q 517 558 503 579 q 532 507 532 536 q 519 460 532 483 q 475 438 506 438 l 264 438 l 264 158 l 657 158 q 699 135 685 158 q 714 78 714 111 q 701 25 714 50 q 657 0 688 0 l 163 0 m 274 1318 q 316 1345 293 1335 q 371 1356 339 1356 q 447 1338 421 1356 q 483 1297 472 1321 q 493 1250 493 1272 q 486 1213 493 1229 q 464 1179 479 1196 q 445 1156 453 1167 q 438 1136 438 1146 q 426 1113 438 1122 q 399 1104 415 1104 q 373 1113 385 1104 q 361 1136 361 1122 q 367 1160 361 1149 q 381 1186 372 1172 q 403 1215 393 1201 q 413 1240 413 1229 q 399 1267 413 1257 q 368 1276 386 1276 q 338 1269 351 1276 q 314 1254 325 1263 q 292 1247 304 1247 q 265 1261 279 1246 q 256 1292 250 1275 q 274 1318 261 1308 z "},"Ē":{"ha":736,"x_min":83,"x_max":714,"o":"m 163 0 q 108 15 133 0 q 83 57 83 29 l 83 958 q 108 1001 83 986 q 163 1015 133 1015 l 657 1015 q 701 990 688 1015 q 714 938 714 965 q 699 881 714 904 q 657 857 685 857 l 264 857 l 264 579 l 475 579 q 517 558 503 579 q 532 507 532 536 q 519 460 532 483 q 475 438 506 438 l 264 438 l 264 158 l 657 158 q 699 135 685 158 q 714 78 714 111 q 701 25 714 50 q 657 0 688 0 l 163 0 m 247 1185 q 208 1201 224 1185 q 192 1243 192 1218 q 208 1285 192 1268 q 247 1303 224 1303 l 532 1303 q 571 1285 553 1303 q 589 1243 589 1268 q 571 1201 589 1218 q 532 1185 553 1185 l 247 1185 z "},"Ę":{"ha":736,"x_min":83,"x_max":714,"o":"m 163 0 q 108 15 133 0 q 83 57 83 29 l 83 958 q 108 1001 83 986 q 163 1015 133 1015 l 657 1015 q 701 990 688 1015 q 714 938 714 965 q 699 881 714 904 q 657 857 685 857 l 264 857 l 264 579 l 475 579 q 517 558 503 579 q 532 507 532 536 q 519 460 532 483 q 475 438 506 438 l 264 438 l 264 158 l 657 158 q 699 135 685 158 q 714 78 714 111 q 701 25 714 50 q 657 0 688 0 l 163 0 m 654 -296 q 565 -280 600 -296 q 510 -235 529 -264 q 492 -171 492 -207 q 527 -57 492 -114 q 622 36 563 0 l 688 10 q 610 -65 642 -19 q 579 -154 579 -111 q 599 -202 579 -185 q 663 -219 619 -219 q 687 -233 679 -219 q 694 -260 694 -246 q 687 -285 694 -275 q 654 -296 679 -296 z "},"Ẽ":{"ha":736,"x_min":83,"x_max":714,"o":"m 163 0 q 108 15 133 0 q 83 57 83 29 l 83 958 q 108 1001 83 986 q 163 1015 133 1015 l 657 1015 q 701 990 688 1015 q 714 938 714 965 q 699 881 714 904 q 657 857 685 857 l 264 857 l 264 579 l 475 579 q 517 558 503 579 q 532 507 532 536 q 519 460 532 483 q 475 438 506 438 l 264 438 l 264 158 l 657 158 q 699 135 685 158 q 714 78 714 111 q 701 25 714 50 q 657 0 688 0 l 163 0 m 510 1154 q 433 1165 465 1154 q 374 1185 401 1175 q 313 1194 347 1194 q 263 1186 283 1194 q 228 1169 243 1178 q 199 1161 213 1161 q 171 1172 181 1161 q 157 1198 161 1183 q 153 1219 153 1213 q 167 1270 153 1251 q 201 1299 181 1289 q 241 1311 221 1308 q 272 1314 261 1314 q 343 1304 314 1314 q 402 1284 372 1294 q 469 1274 432 1274 q 518 1282 499 1274 q 553 1299 538 1290 q 582 1307 568 1307 q 610 1295 601 1307 q 624 1269 619 1283 q 628 1249 628 1256 q 614 1197 628 1215 q 581 1169 600 1179 q 541 1157 561 1160 q 510 1154 521 1154 z "},"F":{"ha":707,"x_min":83,"x_max":704,"o":"m 174 0 q 112 15 140 0 q 83 57 83 29 l 83 958 q 108 1001 83 986 q 163 1015 133 1015 l 647 1015 q 691 990 678 1015 q 704 938 704 965 q 690 881 704 904 q 647 857 675 857 l 264 857 l 264 579 l 476 579 q 519 558 504 579 q 533 507 533 536 q 520 460 533 483 q 476 438 507 438 l 264 438 l 264 57 q 236 15 264 29 q 174 0 208 0 z "},"G":{"ha":783,"x_min":74,"x_max":725,"o":"m 399 -8 q 233 23 307 -8 q 117 124 160 54 q 74 310 74 194 l 74 697 q 117 883 74 813 q 233 984 160 953 q 393 1015 306 1015 q 565 983 490 1015 q 682 892 639 951 q 725 749 725 832 q 703 680 725 697 q 635 663 681 663 q 572 675 599 663 q 544 719 546 688 q 531 784 543 753 q 490 836 519 815 q 399 857 460 857 q 292 817 331 857 q 253 697 253 778 l 253 310 q 292 190 253 229 q 399 150 331 150 q 506 190 467 150 q 544 310 544 229 l 544 392 l 432 392 q 391 414 406 392 q 376 463 376 436 q 391 511 376 489 q 432 533 406 533 l 668 533 q 710 516 696 533 q 725 475 725 499 l 725 310 q 682 124 725 194 q 565 23 639 54 q 399 -8 490 -8 z "},"Ğ":{"ha":783,"x_min":74,"x_max":725,"o":"m 399 -8 q 233 23 307 -8 q 117 124 160 54 q 74 310 74 194 l 74 697 q 117 883 74 813 q 233 984 160 953 q 393 1015 306 1015 q 565 983 490 1015 q 682 892 639 951 q 725 749 725 832 q 703 680 725 697 q 635 663 681 663 q 572 675 599 663 q 544 719 546 688 q 531 784 543 753 q 490 836 519 815 q 399 857 460 857 q 292 817 331 857 q 253 697 253 778 l 253 310 q 292 190 253 229 q 399 150 331 150 q 506 190 467 150 q 544 310 544 229 l 544 392 l 432 392 q 391 414 406 392 q 376 463 376 436 q 391 511 376 489 q 432 533 406 533 l 668 533 q 710 516 696 533 q 725 475 725 499 l 725 310 q 682 124 725 194 q 565 23 639 54 q 399 -8 490 -8 m 394 1154 q 281 1197 333 1154 q 214 1299 229 1239 q 220 1328 210 1318 q 250 1339 231 1339 l 272 1339 q 298 1330 289 1339 q 313 1306 307 1321 q 345 1254 321 1274 q 394 1235 369 1235 q 444 1254 422 1235 q 476 1306 467 1274 q 491 1330 482 1321 q 517 1339 500 1339 l 539 1339 q 568 1328 557 1339 q 574 1297 579 1317 q 507 1197 558 1239 q 394 1154 456 1154 z "},"Ĝ":{"ha":783,"x_min":74,"x_max":725,"o":"m 399 -8 q 233 23 307 -8 q 117 124 160 54 q 74 310 74 194 l 74 697 q 117 883 74 813 q 233 984 160 953 q 393 1015 306 1015 q 565 983 490 1015 q 682 892 639 951 q 725 749 725 832 q 703 680 725 697 q 635 663 681 663 q 572 675 599 663 q 544 719 546 688 q 531 784 543 753 q 490 836 519 815 q 399 857 460 857 q 292 817 331 857 q 253 697 253 778 l 253 310 q 292 190 253 229 q 399 150 331 150 q 506 190 467 150 q 544 310 544 229 l 544 392 l 432 392 q 391 414 406 392 q 376 463 376 436 q 391 511 376 489 q 432 533 406 533 l 668 533 q 710 516 696 533 q 725 475 725 499 l 725 310 q 682 124 725 194 q 565 23 639 54 q 399 -8 490 -8 m 236 1138 q 208 1155 219 1138 q 197 1193 197 1172 q 204 1222 197 1208 q 228 1244 211 1236 l 372 1322 q 396 1329 385 1329 q 419 1322 406 1329 l 564 1246 q 587 1223 581 1238 q 593 1192 593 1208 q 583 1155 593 1172 q 554 1138 572 1138 q 547 1139 551 1138 q 540 1142 543 1140 l 396 1219 l 251 1142 q 243 1139 247 1140 q 236 1138 239 1138 z "},"Ģ":{"ha":783,"x_min":74,"x_max":725,"o":"m 399 -8 q 233 23 307 -8 q 117 124 160 54 q 74 310 74 194 l 74 697 q 117 883 74 813 q 233 984 160 953 q 393 1015 306 1015 q 565 983 490 1015 q 682 892 639 951 q 725 749 725 832 q 703 680 725 697 q 635 663 681 663 q 572 675 599 663 q 544 719 546 688 q 531 784 543 753 q 490 836 519 815 q 399 857 460 857 q 292 817 331 857 q 253 697 253 778 l 253 310 q 292 190 253 229 q 399 150 331 150 q 506 190 467 150 q 544 310 544 229 l 544 392 l 432 392 q 391 414 406 392 q 376 463 376 436 q 391 511 376 489 q 432 533 406 533 l 668 533 q 710 516 696 533 q 725 475 725 499 l 725 310 q 682 124 725 194 q 565 23 639 54 q 399 -8 490 -8 m 307 -269 q 268 -247 285 -269 q 251 -201 251 -224 q 275 -160 251 -171 l 458 -71 q 476 -67 468 -67 q 516 -89 500 -67 q 532 -135 532 -111 q 507 -178 532 -165 l 326 -264 q 317 -267 321 -265 q 307 -269 313 -269 z "},"Ġ":{"ha":783,"x_min":74,"x_max":725,"o":"m 399 -8 q 233 23 307 -8 q 117 124 160 54 q 74 310 74 194 l 74 697 q 117 883 74 813 q 233 984 160 953 q 393 1015 306 1015 q 565 983 490 1015 q 682 892 639 951 q 725 749 725 832 q 703 680 725 697 q 635 663 681 663 q 572 675 599 663 q 544 719 546 688 q 531 784 543 753 q 490 836 519 815 q 399 857 460 857 q 292 817 331 857 q 253 697 253 778 l 253 310 q 292 190 253 229 q 399 150 331 150 q 506 190 467 150 q 544 310 544 229 l 544 392 l 432 392 q 391 414 406 392 q 376 463 376 436 q 391 511 376 489 q 432 533 406 533 l 668 533 q 710 516 696 533 q 725 475 725 499 l 725 310 q 682 124 725 194 q 565 23 639 54 q 399 -8 490 -8 m 394 1140 q 344 1163 365 1140 q 322 1214 322 1185 q 344 1265 322 1243 q 394 1288 365 1288 q 444 1265 424 1288 q 465 1214 465 1243 q 444 1163 465 1185 q 394 1140 424 1140 z "},"H":{"ha":842,"x_min":83,"x_max":757,"o":"m 174 0 q 112 15 140 0 q 83 57 83 29 l 83 960 q 112 1002 83 989 q 174 1015 140 1015 q 236 1002 208 1015 q 264 960 264 989 l 264 597 l 576 597 l 576 960 q 605 1002 576 989 q 667 1015 633 1015 q 729 1002 701 1015 q 757 960 757 989 l 757 57 q 729 15 757 29 q 667 0 701 0 q 605 15 633 0 q 576 57 576 29 l 576 456 l 264 456 l 264 57 q 236 15 264 29 q 174 0 208 0 z "},"Ħ":{"ha":846,"x_min":22,"x_max":822,"o":"m 176 0 q 115 15 143 0 q 86 57 86 29 l 86 742 l 68 742 q 34 760 46 742 q 22 800 22 778 q 34 841 22 822 q 68 860 46 860 l 86 860 l 86 960 q 115 1002 86 989 q 176 1015 143 1015 q 238 1002 210 1015 q 267 960 267 989 l 267 860 l 579 860 l 579 960 q 608 1002 579 989 q 669 1015 636 1015 q 731 1002 703 1015 q 760 960 760 989 l 760 860 l 778 860 q 811 841 800 860 q 822 800 822 822 q 811 760 822 778 q 778 742 800 742 l 760 742 l 760 57 q 731 15 760 29 q 669 0 703 0 q 608 15 636 0 q 579 57 579 29 l 579 456 l 267 456 l 267 57 q 238 15 267 29 q 176 0 210 0 m 267 597 l 579 597 l 579 742 l 267 742 l 267 597 z "},"Ĥ":{"ha":842,"x_min":83,"x_max":757,"o":"m 174 0 q 112 15 140 0 q 83 57 83 29 l 83 960 q 112 1002 83 989 q 174 1015 140 1015 q 236 1002 208 1015 q 264 960 264 989 l 264 597 l 576 597 l 576 960 q 605 1002 576 989 q 667 1015 633 1015 q 729 1002 701 1015 q 757 960 757 989 l 757 57 q 729 15 757 29 q 667 0 701 0 q 605 15 633 0 q 576 57 576 29 l 576 456 l 264 456 l 264 57 q 236 15 264 29 q 174 0 208 0 m 263 1138 q 235 1155 246 1138 q 224 1193 224 1172 q 231 1222 224 1208 q 254 1244 238 1236 l 399 1322 q 422 1329 411 1329 q 446 1322 432 1329 l 590 1246 q 613 1223 607 1238 q 619 1192 619 1208 q 609 1155 619 1172 q 581 1138 599 1138 q 574 1139 578 1138 q 567 1142 569 1140 l 422 1219 l 278 1142 q 269 1139 274 1140 q 263 1138 265 1138 z "},"I":{"ha":349,"x_min":83,"x_max":264,"o":"m 174 0 q 112 15 140 0 q 83 57 83 29 l 83 960 q 112 1002 83 989 q 174 1015 140 1015 q 236 1002 208 1015 q 264 960 264 989 l 264 57 q 236 15 264 29 q 174 0 208 0 z "},"Ĳ":{"ha":1093,"x_min":83,"x_max":1014,"o":"m 174 0 q 112 15 140 0 q 83 57 83 29 l 83 960 q 112 1002 83 989 q 174 1015 140 1015 q 236 1002 208 1015 q 264 960 264 989 l 264 57 q 236 15 264 29 q 174 0 208 0 m 694 -8 q 524 25 600 -8 q 406 121 449 58 q 363 268 363 183 q 385 338 363 321 q 454 356 408 356 q 515 344 489 356 q 543 299 542 332 q 558 231 546 265 q 600 173 569 196 q 688 150 631 150 q 797 190 758 150 q 835 310 835 229 l 835 857 l 692 857 q 651 881 665 857 q 636 938 636 904 q 649 990 636 965 q 692 1015 663 1015 l 935 1015 q 990 1001 965 1015 q 1015 958 1015 986 l 1015 310 q 972 124 1015 194 q 856 23 928 54 q 694 -8 783 -8 z "},"Í":{"ha":349,"x_min":71,"x_max":351,"o":"m 174 0 q 112 15 140 0 q 83 57 83 29 l 83 960 q 112 1002 83 989 q 174 1015 140 1015 q 236 1002 208 1015 q 264 960 264 989 l 264 57 q 236 15 264 29 q 174 0 208 0 m 126 1126 q 88 1149 104 1126 q 71 1194 71 1172 q 94 1238 71 1225 l 278 1326 q 296 1329 288 1329 q 335 1307 319 1329 q 351 1261 351 1285 q 326 1219 351 1232 l 146 1132 q 136 1128 140 1131 q 126 1126 132 1126 z "},"Ĭ":{"ha":349,"x_min":-11,"x_max":358,"o":"m 174 0 q 112 15 140 0 q 83 57 83 29 l 83 960 q 112 1002 83 989 q 174 1015 140 1015 q 236 1002 208 1015 q 264 960 264 989 l 264 57 q 236 15 264 29 q 174 0 208 0 m 174 1154 q 60 1197 113 1154 q -7 1299 8 1239 q -1 1328 -11 1318 q 29 1339 10 1339 l 51 1339 q 77 1330 68 1339 q 92 1306 86 1321 q 124 1254 100 1274 q 174 1235 149 1235 q 224 1254 201 1235 q 256 1306 246 1274 q 270 1330 261 1321 q 296 1339 279 1339 l 318 1339 q 347 1328 336 1339 q 353 1297 358 1317 q 286 1197 338 1239 q 174 1154 235 1154 z "},"Î":{"ha":349,"x_min":-24,"x_max":372,"o":"m 174 0 q 112 15 140 0 q 83 57 83 29 l 83 960 q 112 1002 83 989 q 174 1015 140 1015 q 236 1002 208 1015 q 264 960 264 989 l 264 57 q 236 15 264 29 q 174 0 208 0 m 15 1138 q -12 1155 -1 1138 q -24 1193 -24 1172 q -17 1222 -24 1208 q 7 1244 -10 1236 l 151 1322 q 175 1329 164 1329 q 199 1322 185 1329 l 343 1246 q 366 1223 360 1238 q 372 1192 372 1208 q 362 1155 372 1172 q 333 1138 351 1138 q 326 1139 331 1138 q 319 1142 322 1140 l 175 1219 l 31 1142 q 22 1139 26 1140 q 15 1138 18 1138 z "},"Ï":{"ha":349,"x_min":-1,"x_max":346,"o":"m 174 0 q 112 15 140 0 q 83 57 83 29 l 83 960 q 112 1002 83 989 q 174 1015 140 1015 q 236 1002 208 1015 q 264 960 264 989 l 264 57 q 236 15 264 29 q 174 0 208 0 m 278 1139 q 227 1161 249 1139 q 206 1213 206 1183 q 227 1263 206 1242 q 278 1285 249 1285 q 326 1263 306 1285 q 347 1213 347 1242 q 326 1161 347 1183 q 278 1139 306 1139 m 69 1139 q 19 1161 40 1139 q -1 1213 -1 1183 q 19 1263 -1 1242 q 69 1285 40 1285 q 119 1263 99 1285 q 139 1213 139 1242 q 119 1161 139 1183 q 69 1139 99 1139 z "},"İ":{"ha":349,"x_min":83,"x_max":264,"o":"m 174 0 q 112 15 140 0 q 83 57 83 29 l 83 960 q 112 1002 83 989 q 174 1015 140 1015 q 236 1002 208 1015 q 264 960 264 989 l 264 57 q 236 15 264 29 q 174 0 208 0 m 174 1140 q 123 1163 144 1140 q 101 1214 101 1185 q 123 1265 101 1243 q 174 1288 144 1288 q 224 1265 203 1288 q 244 1214 244 1243 q 224 1163 244 1185 q 174 1140 203 1140 z "},"Ị":{"ha":281,"x_min":67,"x_max":264,"o":"m 174 0 q 112 15 140 0 q 83 57 83 29 l 83 960 q 112 1002 83 989 q 174 1015 140 1015 q 236 1002 208 1015 q 264 960 264 989 l 264 57 q 236 15 264 29 q 174 0 208 0 m 161 -183 q 94 -155 121 -183 q 67 -89 67 -126 q 94 -22 67 -50 q 161 6 121 6 q 226 -22 199 6 q 254 -89 254 -50 q 226 -155 254 -126 q 161 -183 199 -183 z "},"Ì":{"ha":349,"x_min":4,"x_max":285,"o":"m 174 0 q 112 15 140 0 q 83 57 83 29 l 83 960 q 112 1002 83 989 q 174 1015 140 1015 q 236 1002 208 1015 q 264 960 264 989 l 264 57 q 236 15 264 29 q 174 0 208 0 m 229 1126 q 219 1128 224 1126 q 210 1132 215 1131 l 29 1219 q 4 1261 4 1232 q 20 1307 4 1285 q 60 1329 36 1329 q 78 1326 68 1329 l 261 1238 q 285 1194 285 1225 q 269 1149 285 1172 q 229 1126 253 1126 z "},"Ỉ":{"ha":349,"x_min":33,"x_max":275,"o":"m 174 0 q 112 15 140 0 q 83 57 83 29 l 83 960 q 112 1002 83 989 q 174 1015 140 1015 q 236 1002 208 1015 q 264 960 264 989 l 264 57 q 236 15 264 29 q 174 0 208 0 m 57 1318 q 99 1345 76 1335 q 154 1356 122 1356 q 230 1338 204 1356 q 266 1297 256 1321 q 276 1250 276 1272 q 269 1213 276 1229 q 247 1179 263 1196 q 228 1156 236 1167 q 221 1136 221 1146 q 210 1113 221 1122 q 182 1104 199 1104 q 156 1113 168 1104 q 144 1136 144 1122 q 150 1160 144 1149 q 164 1186 156 1172 q 186 1215 176 1201 q 196 1240 196 1229 q 183 1267 196 1257 q 151 1276 169 1276 q 122 1269 135 1276 q 97 1254 108 1263 q 75 1247 88 1247 q 49 1261 63 1246 q 39 1292 33 1275 q 57 1318 44 1308 z "},"Ī":{"ha":349,"x_min":-25,"x_max":372,"o":"m 174 0 q 112 15 140 0 q 83 57 83 29 l 83 960 q 112 1002 83 989 q 174 1015 140 1015 q 236 1002 208 1015 q 264 960 264 989 l 264 57 q 236 15 264 29 q 174 0 208 0 m 31 1185 q -9 1201 7 1185 q -25 1243 -25 1218 q -9 1285 -25 1268 q 31 1303 7 1303 l 315 1303 q 354 1285 336 1303 q 372 1243 372 1268 q 354 1201 372 1218 q 315 1185 336 1185 l 31 1185 z "},"Į":{"ha":349,"x_min":32,"x_max":264,"o":"m 174 0 q 112 15 140 0 q 83 57 83 29 l 83 960 q 112 1002 83 989 q 174 1015 140 1015 q 236 1002 208 1015 q 264 960 264 989 l 264 57 q 236 15 264 29 q 174 0 208 0 m 194 -294 q 105 -278 140 -294 q 51 -234 69 -262 q 32 -169 32 -206 q 67 -56 32 -112 q 163 38 103 1 l 228 11 q 151 -64 182 -18 q 119 -153 119 -110 q 140 -201 119 -183 q 203 -218 160 -218 q 227 -231 219 -218 q 235 -258 235 -244 q 227 -284 235 -274 q 194 -294 219 -294 z "},"Ĩ":{"ha":349,"x_min":-64,"x_max":411,"o":"m 174 0 q 112 15 140 0 q 83 57 83 29 l 83 960 q 112 1002 83 989 q 174 1015 140 1015 q 236 1002 208 1015 q 264 960 264 989 l 264 57 q 236 15 264 29 q 174 0 208 0 m 293 1154 q 217 1165 249 1154 q 158 1185 185 1175 q 96 1194 131 1194 q 47 1186 67 1194 q 11 1169 26 1178 q -18 1161 -4 1161 q -46 1172 -36 1161 q -60 1198 -56 1183 q -64 1219 -64 1213 q -50 1270 -64 1251 q -16 1299 -36 1289 q 24 1311 4 1308 q 56 1314 44 1314 q 126 1304 97 1314 q 185 1284 156 1294 q 253 1274 215 1274 q 301 1282 282 1274 q 336 1299 321 1290 q 365 1307 351 1307 q 394 1295 385 1307 q 407 1269 403 1283 q 411 1249 411 1256 q 397 1197 411 1215 q 364 1169 383 1179 q 324 1157 344 1160 q 293 1154 304 1154 z "},"J":{"ha":746,"x_min":14,"x_max":667,"o":"m 346 -8 q 176 25 251 -8 q 57 121 100 58 q 14 268 14 183 q 37 338 14 321 q 106 356 60 356 q 167 344 140 356 q 194 299 193 332 q 209 231 197 265 q 251 173 221 196 q 339 150 282 150 q 448 190 410 150 q 486 310 486 229 l 486 857 l 343 857 q 302 881 317 857 q 288 938 288 904 q 301 990 288 965 q 343 1015 314 1015 l 586 1015 q 642 1001 617 1015 q 667 958 667 986 l 667 310 q 623 124 667 194 q 507 23 579 54 q 346 -8 435 -8 z "},"Ĵ":{"ha":746,"x_min":14,"x_max":667,"o":"m 346 -8 q 176 25 251 -8 q 57 121 100 58 q 14 268 14 183 q 37 338 14 321 q 106 356 60 356 q 167 344 140 356 q 194 299 193 332 q 209 231 197 265 q 251 173 221 196 q 339 150 282 150 q 448 190 410 150 q 486 310 486 229 l 486 857 l 343 857 q 302 881 317 857 q 288 938 288 904 q 301 990 288 965 q 343 1015 314 1015 l 586 1015 q 642 1001 617 1015 q 667 958 667 986 l 667 310 q 623 124 667 194 q 507 23 579 54 q 346 -8 435 -8 m 214 1138 q 186 1155 197 1138 q 175 1193 175 1172 q 182 1222 175 1208 q 206 1244 189 1236 l 350 1322 q 374 1329 363 1329 q 397 1322 383 1329 l 542 1246 q 565 1223 558 1238 q 571 1192 571 1208 q 560 1155 571 1172 q 532 1138 550 1138 q 525 1139 529 1138 q 518 1142 521 1140 l 374 1219 l 229 1142 q 221 1139 225 1140 q 214 1138 217 1138 z "},"K":{"ha":768,"x_min":83,"x_max":772,"o":"m 174 0 q 112 15 140 0 q 83 57 83 29 l 83 960 q 112 1002 83 989 q 174 1015 140 1015 q 236 1002 208 1015 q 264 960 264 989 l 264 581 l 565 989 q 614 1015 583 1015 q 662 1001 638 1015 q 703 967 686 988 q 719 922 719 946 q 717 906 719 915 q 707 888 714 896 l 460 576 l 763 115 q 772 83 772 100 q 756 40 772 61 q 715 6 740 19 q 664 -7 690 -7 q 628 1 644 -7 q 600 28 613 10 l 339 424 l 264 329 l 264 57 q 236 15 264 29 q 174 0 208 0 z "},"Ķ":{"ha":768,"x_min":83,"x_max":772,"o":"m 174 0 q 112 15 140 0 q 83 57 83 29 l 83 960 q 112 1002 83 989 q 174 1015 140 1015 q 236 1002 208 1015 q 264 960 264 989 l 264 581 l 565 989 q 614 1015 583 1015 q 662 1001 638 1015 q 703 967 686 988 q 719 922 719 946 q 717 906 719 915 q 707 888 714 896 l 460 576 l 763 115 q 772 83 772 100 q 756 40 772 61 q 715 6 740 19 q 664 -7 690 -7 q 628 1 644 -7 q 600 28 613 10 l 339 424 l 264 329 l 264 57 q 236 15 264 29 q 174 0 208 0 m 299 -269 q 260 -247 276 -269 q 243 -201 243 -224 q 267 -160 243 -171 l 450 -71 q 468 -67 460 -67 q 508 -89 492 -67 q 524 -135 524 -111 q 499 -178 524 -165 l 318 -264 q 308 -267 313 -265 q 299 -269 304 -269 z "},"L":{"ha":671,"x_min":83,"x_max":657,"o":"m 163 0 q 108 15 133 0 q 83 57 83 29 l 83 960 q 112 1002 83 989 q 174 1015 140 1015 q 236 1002 208 1015 q 264 960 264 989 l 264 158 l 604 158 q 644 134 631 158 q 657 79 657 110 q 644 25 657 50 q 604 0 631 0 l 163 0 z "},"Ĺ":{"ha":671,"x_min":83,"x_max":657,"o":"m 163 0 q 108 15 133 0 q 83 57 83 29 l 83 960 q 112 1002 83 989 q 174 1015 140 1015 q 236 1002 208 1015 q 264 960 264 989 l 264 158 l 604 158 q 644 134 631 158 q 657 79 657 110 q 644 25 657 50 q 604 0 631 0 l 163 0 m 272 1126 q 233 1149 250 1126 q 217 1194 217 1172 q 240 1238 217 1225 l 424 1326 q 442 1329 433 1329 q 481 1307 465 1329 q 497 1261 497 1285 q 472 1219 497 1232 l 292 1132 q 282 1128 286 1131 q 272 1126 278 1126 z "},"Ľ":{"ha":674,"x_min":83,"x_max":657,"o":"m 163 0 q 108 15 133 0 q 83 57 83 29 l 83 960 q 112 1002 83 989 q 174 1015 140 1015 q 236 1002 208 1015 q 264 960 264 989 l 264 158 l 604 158 q 644 134 631 158 q 657 79 657 110 q 644 25 657 50 q 604 0 631 0 l 163 0 m 501 710 q 462 722 482 710 q 442 757 442 733 q 447 776 442 767 l 479 850 q 442 885 456 863 q 428 935 428 907 q 456 1001 428 974 q 521 1029 483 1029 q 588 1001 560 1029 q 615 936 615 974 q 613 918 615 929 q 603 887 611 907 q 579 829 594 867 q 539 732 564 792 q 522 715 533 721 q 501 710 511 710 z "},"Ļ":{"ha":671,"x_min":83,"x_max":657,"o":"m 163 0 q 108 15 133 0 q 83 57 83 29 l 83 960 q 112 1002 83 989 q 174 1015 140 1015 q 236 1002 208 1015 q 264 960 264 989 l 264 158 l 604 158 q 644 134 631 158 q 657 79 657 110 q 644 25 657 50 q 604 0 631 0 l 163 0 m 258 -269 q 219 -247 236 -269 q 203 -201 203 -224 q 226 -160 203 -171 l 410 -71 q 428 -67 419 -67 q 467 -89 451 -67 q 483 -135 483 -111 q 458 -178 483 -165 l 278 -264 q 268 -267 272 -265 q 258 -269 264 -269 z "},"Ŀ":{"ha":672,"x_min":83,"x_max":657,"o":"m 163 0 q 108 15 133 0 q 83 57 83 29 l 83 960 q 112 1002 83 989 q 174 1015 140 1015 q 236 1002 208 1015 q 264 960 264 989 l 264 158 l 604 158 q 644 134 631 158 q 657 79 657 110 q 644 25 657 50 q 604 0 631 0 l 163 0 m 513 496 q 442 523 471 496 q 413 585 413 550 q 442 647 413 621 q 513 672 471 672 q 583 647 554 672 q 611 585 611 621 q 583 523 611 550 q 513 496 554 496 z "},"Ł":{"ha":679,"x_min":-10,"x_max":665,"o":"m 171 0 q 117 15 142 0 q 92 57 92 29 l 92 367 l 69 354 q 53 350 61 350 q 9 376 28 350 q -10 431 -10 403 q -4 456 -10 444 q 14 472 1 467 l 92 511 l 92 960 q 120 1002 92 989 q 182 1015 149 1015 q 244 1002 217 1015 q 272 960 272 989 l 272 597 l 356 640 q 372 643 364 643 q 404 631 390 643 q 427 600 418 618 q 436 564 436 582 q 413 522 436 533 l 272 453 l 272 158 l 613 158 q 652 134 639 158 q 665 79 665 110 q 652 25 665 50 q 613 0 639 0 l 171 0 z "},"M":{"ha":971,"x_min":83,"x_max":888,"o":"m 174 0 q 112 15 140 0 q 83 57 83 29 l 83 925 q 112 995 83 975 q 174 1015 140 1015 q 230 1008 207 1015 q 273 981 253 1001 q 315 919 293 960 l 485 608 l 656 919 q 699 981 681 960 q 742 1008 718 1001 q 797 1015 765 1015 q 860 995 832 1015 q 888 925 888 975 l 888 57 q 859 15 888 29 q 797 0 831 0 q 735 15 764 0 q 707 57 707 29 l 707 654 l 546 365 q 517 338 533 346 q 483 329 500 329 q 452 337 468 329 q 424 365 436 344 l 264 665 l 264 57 q 236 15 264 29 q 174 0 208 0 z "},"N":{"ha":842,"x_min":83,"x_max":757,"o":"m 174 0 q 112 15 140 0 q 83 57 83 29 l 83 958 q 112 1001 83 988 q 174 1015 140 1015 q 228 1008 207 1015 q 269 981 250 1001 q 308 919 288 961 l 576 401 l 576 960 q 605 1002 576 989 q 667 1015 633 1015 q 729 1002 701 1015 q 757 960 757 989 l 757 57 q 729 15 757 29 q 667 0 701 0 q 608 13 635 0 q 564 57 581 25 l 264 615 l 264 57 q 236 15 264 29 q 174 0 208 0 z "},"Ń":{"ha":842,"x_min":83,"x_max":757,"o":"m 174 0 q 112 15 140 0 q 83 57 83 29 l 83 958 q 112 1001 83 988 q 174 1015 140 1015 q 228 1008 207 1015 q 269 981 250 1001 q 308 919 288 961 l 576 401 l 576 960 q 605 1002 576 989 q 667 1015 633 1015 q 729 1002 701 1015 q 757 960 757 989 l 757 57 q 729 15 757 29 q 667 0 701 0 q 608 13 635 0 q 564 57 581 25 l 264 615 l 264 57 q 236 15 264 29 q 174 0 208 0 m 374 1126 q 335 1149 351 1126 q 318 1194 318 1172 q 342 1238 318 1225 l 525 1326 q 543 1329 535 1329 q 583 1307 567 1329 q 599 1261 599 1285 q 574 1219 599 1232 l 393 1132 q 383 1128 388 1131 q 374 1126 379 1126 z "},"Ň":{"ha":842,"x_min":83,"x_max":757,"o":"m 174 0 q 112 15 140 0 q 83 57 83 29 l 83 958 q 112 1001 83 988 q 174 1015 140 1015 q 228 1008 207 1015 q 269 981 250 1001 q 308 919 288 961 l 576 401 l 576 960 q 605 1002 576 989 q 667 1015 633 1015 q 729 1002 701 1015 q 757 960 757 989 l 757 57 q 729 15 757 29 q 667 0 701 0 q 608 13 635 0 q 564 57 581 25 l 264 615 l 264 57 q 236 15 264 29 q 174 0 208 0 m 422 1147 q 397 1156 411 1147 l 254 1247 q 231 1270 239 1257 q 224 1300 224 1283 q 235 1337 224 1319 q 263 1354 246 1354 q 279 1349 271 1354 l 422 1257 l 564 1349 q 581 1354 574 1354 q 609 1337 599 1354 q 619 1300 619 1319 q 613 1270 619 1283 q 590 1247 607 1257 l 447 1156 q 422 1147 432 1147 z "},"Ņ":{"ha":842,"x_min":83,"x_max":757,"o":"m 174 0 q 112 15 140 0 q 83 57 83 29 l 83 958 q 112 1001 83 988 q 174 1015 140 1015 q 228 1008 207 1015 q 269 981 250 1001 q 308 919 288 961 l 576 401 l 576 960 q 605 1002 576 989 q 667 1015 633 1015 q 729 1002 701 1015 q 757 960 757 989 l 757 57 q 729 15 757 29 q 667 0 701 0 q 608 13 635 0 q 564 57 581 25 l 264 615 l 264 57 q 236 15 264 29 q 174 0 208 0 m 336 -269 q 297 -247 314 -269 q 281 -201 281 -224 q 304 -160 281 -171 l 488 -71 q 506 -67 497 -67 q 545 -89 529 -67 q 561 -135 561 -111 q 536 -178 561 -165 l 356 -264 q 346 -267 350 -265 q 336 -269 342 -269 z "},"Ŋ":{"ha":842,"x_min":83,"x_max":757,"o":"m 547 -307 q 473 -284 492 -307 q 454 -233 454 -261 q 474 -176 454 -197 q 522 -156 494 -156 q 558 -142 546 -156 q 574 -102 569 -128 q 578 -44 578 -76 l 578 8 q 574 33 578 22 q 564 57 571 44 l 264 615 l 264 57 q 236 15 264 29 q 174 0 208 0 q 112 15 140 0 q 83 57 83 29 l 83 958 q 112 1001 83 988 q 174 1015 140 1015 q 228 1008 207 1015 q 269 981 250 1001 q 308 919 288 961 l 576 401 l 576 960 q 605 1002 576 989 q 667 1015 633 1015 q 729 1002 701 1015 q 757 960 757 989 l 757 -44 q 733 -181 757 -121 q 663 -274 710 -240 q 547 -307 617 -307 z "},"Ñ":{"ha":842,"x_min":83,"x_max":757,"o":"m 174 0 q 112 15 140 0 q 83 57 83 29 l 83 958 q 112 1001 83 988 q 174 1015 140 1015 q 228 1008 207 1015 q 269 981 250 1001 q 308 919 288 961 l 576 401 l 576 960 q 605 1002 576 989 q 667 1015 633 1015 q 729 1002 701 1015 q 757 960 757 989 l 757 57 q 729 15 757 29 q 667 0 701 0 q 608 13 635 0 q 564 57 581 25 l 264 615 l 264 57 q 236 15 264 29 q 174 0 208 0 m 540 1154 q 464 1165 496 1154 q 405 1185 432 1175 q 343 1194 378 1194 q 294 1186 314 1194 q 258 1169 274 1178 q 229 1161 243 1161 q 201 1172 211 1161 q 188 1198 192 1183 q 183 1219 183 1213 q 197 1270 183 1251 q 231 1299 211 1289 q 272 1311 251 1308 q 303 1314 292 1314 q 374 1304 344 1314 q 433 1284 403 1294 q 500 1274 463 1274 q 549 1282 529 1274 q 583 1299 568 1290 q 613 1307 599 1307 q 641 1295 632 1307 q 654 1269 650 1283 q 658 1249 658 1256 q 644 1197 658 1215 q 611 1169 631 1179 q 572 1157 592 1160 q 540 1154 551 1154 z "},"O":{"ha":797,"x_min":74,"x_max":725,"o":"m 399 -8 q 233 23 307 -8 q 117 124 160 54 q 74 310 74 194 l 74 697 q 117 883 74 813 q 233 984 160 953 q 399 1015 306 1015 q 565 984 490 1015 q 682 883 639 953 q 725 697 725 813 l 725 310 q 682 124 725 194 q 565 23 639 54 q 399 -8 490 -8 m 399 150 q 506 189 467 150 q 544 310 544 228 l 544 697 q 506 818 544 779 q 399 857 467 857 q 292 818 331 857 q 253 697 253 779 l 253 310 q 292 189 253 228 q 399 150 331 150 z "},"Ó":{"ha":797,"x_min":74,"x_max":725,"o":"m 399 -8 q 233 23 307 -8 q 117 124 160 54 q 74 310 74 194 l 74 697 q 117 883 74 813 q 233 984 160 953 q 399 1015 306 1015 q 565 984 490 1015 q 682 883 639 953 q 725 697 725 813 l 725 310 q 682 124 725 194 q 565 23 639 54 q 399 -8 490 -8 m 399 150 q 506 189 467 150 q 544 310 544 228 l 544 697 q 506 818 544 779 q 399 857 467 857 q 292 818 331 857 q 253 697 253 779 l 253 310 q 292 189 253 228 q 399 150 331 150 m 353 1126 q 314 1149 331 1126 q 297 1194 297 1172 q 321 1238 297 1225 l 504 1326 q 522 1329 514 1329 q 562 1307 546 1329 q 578 1261 578 1285 q 553 1219 578 1232 l 372 1132 q 363 1128 367 1131 q 353 1126 358 1126 z "},"Ŏ":{"ha":797,"x_min":74,"x_max":725,"o":"m 399 -8 q 233 23 307 -8 q 117 124 160 54 q 74 310 74 194 l 74 697 q 117 883 74 813 q 233 984 160 953 q 399 1015 306 1015 q 565 984 490 1015 q 682 883 639 953 q 725 697 725 813 l 725 310 q 682 124 725 194 q 565 23 639 54 q 399 -8 490 -8 m 399 150 q 506 189 467 150 q 544 310 544 228 l 544 697 q 506 818 544 779 q 399 857 467 857 q 292 818 331 857 q 253 697 253 779 l 253 310 q 292 189 253 228 q 399 150 331 150 m 399 1154 q 285 1197 338 1154 q 218 1299 233 1239 q 224 1328 214 1318 q 254 1339 235 1339 l 276 1339 q 302 1330 293 1339 q 317 1306 311 1321 q 349 1254 325 1274 q 399 1235 374 1235 q 449 1254 426 1235 q 481 1306 471 1274 q 495 1330 486 1321 q 521 1339 504 1339 l 543 1339 q 572 1328 561 1339 q 578 1297 583 1317 q 511 1197 563 1239 q 399 1154 460 1154 z "},"Ô":{"ha":797,"x_min":74,"x_max":725,"o":"m 399 -8 q 233 23 307 -8 q 117 124 160 54 q 74 310 74 194 l 74 697 q 117 883 74 813 q 233 984 160 953 q 399 1015 306 1015 q 565 984 490 1015 q 682 883 639 953 q 725 697 725 813 l 725 310 q 682 124 725 194 q 565 23 639 54 q 399 -8 490 -8 m 399 150 q 506 189 467 150 q 544 310 544 228 l 544 697 q 506 818 544 779 q 399 857 467 857 q 292 818 331 857 q 253 697 253 779 l 253 310 q 292 189 253 228 q 399 150 331 150 m 240 1138 q 213 1155 224 1138 q 201 1193 201 1172 q 208 1222 201 1208 q 232 1244 215 1236 l 376 1322 q 400 1329 389 1329 q 424 1322 410 1329 l 568 1246 q 591 1223 585 1238 q 597 1192 597 1208 q 587 1155 597 1172 q 558 1138 576 1138 q 551 1139 556 1138 q 544 1142 547 1140 l 400 1219 l 256 1142 q 247 1139 251 1140 q 240 1138 243 1138 z "},"Ố":{"ha":754,"x_min":74,"x_max":725,"o":"m 399 -8 q 233 23 307 -8 q 117 124 160 54 q 74 310 74 194 l 74 697 q 117 883 74 813 q 233 984 160 953 q 399 1015 306 1015 q 565 984 490 1015 q 682 883 639 953 q 725 697 725 813 l 725 310 q 682 124 725 194 q 565 23 639 54 q 399 -8 490 -8 m 399 150 q 506 189 467 150 q 544 310 544 228 l 544 697 q 506 818 544 779 q 399 857 467 857 q 292 818 331 857 q 253 697 253 779 l 253 310 q 292 189 253 228 q 399 150 331 150 m 267 1094 q 240 1112 251 1094 q 228 1150 228 1129 q 258 1201 228 1182 l 372 1279 q 396 1286 383 1286 q 419 1279 408 1286 l 532 1203 q 563 1149 563 1182 q 551 1112 563 1129 q 524 1094 540 1094 q 517 1096 521 1094 q 508 1099 513 1097 l 396 1176 l 282 1099 q 274 1096 278 1097 q 267 1094 269 1094 m 346 1235 q 307 1258 324 1235 q 290 1303 290 1281 q 314 1346 290 1333 l 497 1435 q 515 1438 507 1438 q 555 1415 539 1438 q 571 1369 571 1393 q 546 1328 571 1340 l 365 1240 q 356 1237 360 1239 q 346 1235 351 1235 z "},"Ộ":{"ha":754,"x_min":74,"x_max":725,"o":"m 399 -8 q 233 23 307 -8 q 117 124 160 54 q 74 310 74 194 l 74 697 q 117 883 74 813 q 233 984 160 953 q 399 1015 306 1015 q 565 984 490 1015 q 682 883 639 953 q 725 697 725 813 l 725 310 q 682 124 725 194 q 565 23 639 54 q 399 -8 490 -8 m 399 150 q 506 189 467 150 q 544 310 544 228 l 544 697 q 506 818 544 779 q 399 857 467 857 q 292 818 331 857 q 253 697 253 779 l 253 310 q 292 189 253 228 q 399 150 331 150 m 399 -183 q 331 -155 358 -183 q 304 -89 304 -126 q 331 -22 304 -50 q 399 6 358 6 q 464 -22 436 6 q 492 -89 492 -50 q 464 -155 492 -126 q 399 -183 436 -183 m 236 1160 q 208 1177 219 1160 q 197 1215 197 1194 q 204 1244 197 1231 q 228 1267 211 1258 l 372 1344 q 396 1351 385 1351 q 419 1344 406 1351 l 564 1268 q 587 1245 581 1260 q 593 1214 593 1231 q 583 1177 593 1194 q 554 1160 572 1160 q 547 1161 551 1160 q 540 1164 543 1163 l 396 1242 l 251 1164 q 243 1161 247 1163 q 236 1160 239 1160 z "},"Ồ":{"ha":754,"x_min":74,"x_max":725,"o":"m 399 -8 q 233 23 307 -8 q 117 124 160 54 q 74 310 74 194 l 74 697 q 117 883 74 813 q 233 984 160 953 q 399 1015 306 1015 q 565 984 490 1015 q 682 883 639 953 q 725 697 725 813 l 725 310 q 682 124 725 194 q 565 23 639 54 q 399 -8 490 -8 m 399 150 q 506 189 467 150 q 544 310 544 228 l 544 697 q 506 818 544 779 q 399 857 467 857 q 292 818 331 857 q 253 697 253 779 l 253 310 q 292 189 253 228 q 399 150 331 150 m 267 1097 q 240 1115 251 1097 q 228 1153 228 1132 q 258 1204 228 1185 l 372 1282 q 396 1289 383 1289 q 419 1282 408 1289 l 532 1206 q 563 1151 563 1185 q 551 1115 563 1132 q 524 1097 540 1097 q 517 1099 521 1097 q 508 1101 513 1100 l 396 1179 l 282 1101 q 274 1099 278 1100 q 267 1097 269 1097 m 525 1232 q 515 1234 519 1232 q 506 1238 511 1236 l 325 1325 q 300 1367 300 1338 q 316 1413 300 1390 q 356 1435 332 1435 q 374 1432 364 1435 l 557 1343 q 581 1300 581 1331 q 565 1255 581 1278 q 525 1232 549 1232 z "},"Ổ":{"ha":797,"x_min":74,"x_max":725,"o":"m 399 -8 q 233 23 307 -8 q 117 124 160 54 q 74 310 74 194 l 74 697 q 117 883 74 813 q 233 984 160 953 q 399 1015 306 1015 q 565 984 490 1015 q 682 883 639 953 q 725 697 725 813 l 725 310 q 682 124 725 194 q 565 23 639 54 q 399 -8 490 -8 m 399 150 q 506 189 467 150 q 544 310 544 228 l 544 697 q 506 818 544 779 q 399 857 467 857 q 292 818 331 857 q 253 697 253 779 l 253 310 q 292 189 253 228 q 399 150 331 150 m 271 1108 q 244 1126 256 1108 q 232 1164 232 1143 q 263 1215 232 1196 l 376 1293 q 400 1300 388 1300 q 424 1293 413 1300 l 536 1217 q 567 1163 567 1196 q 556 1126 567 1143 q 528 1108 544 1108 q 521 1110 525 1108 q 513 1113 517 1111 l 400 1190 l 286 1113 q 278 1110 282 1111 q 271 1108 274 1108 m 460 1454 q 502 1481 479 1471 q 557 1492 525 1492 q 633 1474 607 1492 q 669 1433 658 1457 q 679 1386 679 1408 q 672 1349 679 1365 q 650 1315 665 1332 q 631 1292 639 1303 q 624 1272 624 1282 q 613 1249 624 1258 q 585 1240 601 1240 q 559 1249 571 1240 q 547 1272 547 1258 q 553 1297 547 1285 q 567 1322 558 1308 q 589 1351 579 1338 q 599 1376 599 1365 q 585 1403 599 1393 q 554 1413 572 1413 q 524 1406 538 1413 q 500 1390 511 1399 q 478 1383 490 1383 q 451 1397 465 1382 q 442 1428 436 1411 q 460 1454 447 1444 z "},"Ỗ":{"ha":754,"x_min":74,"x_max":725,"o":"m 399 -8 q 233 23 307 -8 q 117 124 160 54 q 74 310 74 194 l 74 697 q 117 883 74 813 q 233 984 160 953 q 399 1015 306 1015 q 565 984 490 1015 q 682 883 639 953 q 725 697 725 813 l 725 310 q 682 124 725 194 q 565 23 639 54 q 399 -8 490 -8 m 399 150 q 506 189 467 150 q 544 310 544 228 l 544 697 q 506 818 544 779 q 399 857 467 857 q 292 818 331 857 q 253 697 253 779 l 253 310 q 292 189 253 228 q 399 150 331 150 m 267 1094 q 240 1112 251 1094 q 228 1150 228 1129 q 258 1201 228 1182 l 372 1279 q 396 1286 383 1286 q 419 1279 408 1286 l 532 1203 q 563 1149 563 1182 q 551 1112 563 1129 q 524 1094 540 1094 q 517 1096 521 1094 q 508 1099 513 1097 l 396 1176 l 282 1099 q 274 1096 278 1097 q 267 1094 269 1094 m 529 1228 q 453 1238 485 1228 q 394 1258 421 1249 q 332 1268 367 1268 q 283 1260 303 1268 q 247 1243 263 1251 q 218 1235 232 1235 q 190 1246 200 1235 q 176 1272 181 1257 q 172 1293 172 1286 q 186 1344 172 1325 q 220 1372 200 1363 q 260 1385 240 1382 q 292 1388 281 1388 q 363 1378 333 1388 q 422 1358 392 1368 q 489 1347 451 1347 q 538 1356 518 1347 q 572 1372 557 1364 q 601 1381 588 1381 q 630 1369 621 1381 q 643 1343 639 1357 q 647 1322 647 1329 q 633 1271 647 1289 q 600 1243 619 1253 q 560 1231 581 1233 q 529 1228 540 1228 z "},"Ö":{"ha":797,"x_min":74,"x_max":725,"o":"m 399 -8 q 233 23 307 -8 q 117 124 160 54 q 74 310 74 194 l 74 697 q 117 883 74 813 q 233 984 160 953 q 399 1015 306 1015 q 565 984 490 1015 q 682 883 639 953 q 725 697 725 813 l 725 310 q 682 124 725 194 q 565 23 639 54 q 399 -8 490 -8 m 399 150 q 506 189 467 150 q 544 310 544 228 l 544 697 q 506 818 544 779 q 399 857 467 857 q 292 818 331 857 q 253 697 253 779 l 253 310 q 292 189 253 228 q 399 150 331 150 m 503 1139 q 452 1161 474 1139 q 431 1213 431 1183 q 452 1263 431 1242 q 503 1285 474 1285 q 551 1263 531 1285 q 572 1213 572 1242 q 551 1161 572 1183 q 503 1139 531 1139 m 294 1139 q 244 1161 265 1139 q 224 1213 224 1183 q 244 1263 224 1242 q 294 1285 265 1285 q 344 1263 324 1285 q 364 1213 364 1242 q 344 1161 364 1183 q 294 1139 324 1139 z "},"Ọ":{"ha":754,"x_min":74,"x_max":725,"o":"m 399 -8 q 233 23 307 -8 q 117 124 160 54 q 74 310 74 194 l 74 697 q 117 883 74 813 q 233 984 160 953 q 399 1015 306 1015 q 565 984 490 1015 q 682 883 639 953 q 725 697 725 813 l 725 310 q 682 124 725 194 q 565 23 639 54 q 399 -8 490 -8 m 399 150 q 506 189 467 150 q 544 310 544 228 l 544 697 q 506 818 544 779 q 399 857 467 857 q 292 818 331 857 q 253 697 253 779 l 253 310 q 292 189 253 228 q 399 150 331 150 m 399 -183 q 331 -155 358 -183 q 304 -89 304 -126 q 331 -22 304 -50 q 399 6 358 6 q 464 -22 436 6 q 492 -89 492 -50 q 464 -155 492 -126 q 399 -183 436 -183 z "},"Ò":{"ha":797,"x_min":74,"x_max":725,"o":"m 399 -8 q 233 23 307 -8 q 117 124 160 54 q 74 310 74 194 l 74 697 q 117 883 74 813 q 233 984 160 953 q 399 1015 306 1015 q 565 984 490 1015 q 682 883 639 953 q 725 697 725 813 l 725 310 q 682 124 725 194 q 565 23 639 54 q 399 -8 490 -8 m 399 150 q 506 189 467 150 q 544 310 544 228 l 544 697 q 506 818 544 779 q 399 857 467 857 q 292 818 331 857 q 253 697 253 779 l 253 310 q 292 189 253 228 q 399 150 331 150 m 456 1126 q 446 1128 450 1126 q 436 1132 442 1131 l 256 1219 q 231 1261 231 1232 q 247 1307 231 1285 q 286 1329 263 1329 q 304 1326 294 1329 l 488 1238 q 511 1194 511 1225 q 495 1149 511 1172 q 456 1126 479 1126 z "},"Ỏ":{"ha":797,"x_min":74,"x_max":725,"o":"m 399 -8 q 233 23 307 -8 q 117 124 160 54 q 74 310 74 194 l 74 697 q 117 883 74 813 q 233 984 160 953 q 399 1015 306 1015 q 565 984 490 1015 q 682 883 639 953 q 725 697 725 813 l 725 310 q 682 124 725 194 q 565 23 639 54 q 399 -8 490 -8 m 399 150 q 506 189 467 150 q 544 310 544 228 l 544 697 q 506 818 544 779 q 399 857 467 857 q 292 818 331 857 q 253 697 253 779 l 253 310 q 292 189 253 228 q 399 150 331 150 m 282 1318 q 324 1345 301 1335 q 379 1356 347 1356 q 455 1338 429 1356 q 491 1297 481 1321 q 501 1250 501 1272 q 494 1213 501 1229 q 472 1179 488 1196 q 453 1156 461 1167 q 446 1136 446 1146 q 435 1113 446 1122 q 407 1104 424 1104 q 381 1113 393 1104 q 369 1136 369 1122 q 375 1160 369 1149 q 389 1186 381 1172 q 411 1215 401 1201 q 421 1240 421 1229 q 408 1267 421 1257 q 376 1276 394 1276 q 347 1269 360 1276 q 322 1254 333 1263 q 300 1247 313 1247 q 274 1261 288 1246 q 264 1292 258 1275 q 282 1318 269 1308 z "},"Ơ":{"ha":797,"x_min":74,"x_max":725,"o":"m 399 -8 q 233 23 307 -8 q 117 124 160 54 q 74 310 74 194 l 74 697 q 117 883 74 813 q 233 984 160 953 q 399 1015 306 1015 q 565 984 490 1015 q 682 883 639 953 q 725 697 725 813 l 725 310 q 682 124 725 194 q 565 23 639 54 q 399 -8 490 -8 m 399 150 q 506 189 467 150 q 544 310 544 228 l 544 697 q 506 818 544 779 q 399 857 467 857 q 292 818 331 857 q 253 697 253 779 l 253 310 q 292 189 253 228 q 399 150 331 150 m 431 899 l 431 1017 q 520 1038 488 1017 q 553 1104 553 1060 q 568 1149 553 1128 q 613 1171 583 1171 q 660 1148 647 1171 q 672 1104 672 1125 q 648 1001 672 1049 q 571 926 624 954 q 431 899 518 899 z "},"Ớ":{"ha":797,"x_min":74,"x_max":725,"o":"m 399 -8 q 233 23 307 -8 q 117 124 160 54 q 74 310 74 194 l 74 697 q 117 883 74 813 q 233 984 160 953 q 399 1015 306 1015 q 565 984 490 1015 q 682 883 639 953 q 725 697 725 813 l 725 310 q 682 124 725 194 q 565 23 639 54 q 399 -8 490 -8 m 399 150 q 506 189 467 150 q 544 310 544 228 l 544 697 q 506 818 544 779 q 399 857 467 857 q 292 818 331 857 q 253 697 253 779 l 253 310 q 292 189 253 228 q 399 150 331 150 m 431 899 l 431 1017 q 520 1038 488 1017 q 553 1104 553 1060 q 568 1149 553 1128 q 613 1171 583 1171 q 660 1148 647 1171 q 672 1104 672 1125 q 648 1001 672 1049 q 571 926 624 954 q 431 899 518 899 m 353 1126 q 314 1149 331 1126 q 297 1194 297 1172 q 321 1238 297 1225 l 504 1326 q 522 1329 514 1329 q 562 1307 546 1329 q 578 1261 578 1285 q 553 1219 578 1232 l 372 1132 q 363 1128 367 1131 q 353 1126 358 1126 z "},"Ợ":{"ha":754,"x_min":74,"x_max":725,"o":"m 399 -8 q 233 23 307 -8 q 117 124 160 54 q 74 310 74 194 l 74 697 q 117 883 74 813 q 233 984 160 953 q 399 1015 306 1015 q 565 984 490 1015 q 682 883 639 953 q 725 697 725 813 l 725 310 q 682 124 725 194 q 565 23 639 54 q 399 -8 490 -8 m 399 150 q 506 189 467 150 q 544 310 544 228 l 544 697 q 506 818 544 779 q 399 857 467 857 q 292 818 331 857 q 253 697 253 779 l 253 310 q 292 189 253 228 q 399 150 331 150 m 414 903 l 414 1021 q 503 1042 471 1021 q 536 1108 536 1064 q 551 1153 536 1132 q 596 1175 567 1175 q 643 1152 631 1175 q 656 1108 656 1129 q 631 1006 656 1053 q 554 931 607 958 q 414 903 501 903 m 399 -183 q 331 -155 358 -183 q 304 -89 304 -126 q 331 -22 304 -50 q 399 6 358 6 q 464 -22 436 6 q 492 -89 492 -50 q 464 -155 492 -126 q 399 -183 436 -183 z "},"Ờ":{"ha":797,"x_min":74,"x_max":725,"o":"m 399 -8 q 233 23 307 -8 q 117 124 160 54 q 74 310 74 194 l 74 697 q 117 883 74 813 q 233 984 160 953 q 399 1015 306 1015 q 565 984 490 1015 q 682 883 639 953 q 725 697 725 813 l 725 310 q 682 124 725 194 q 565 23 639 54 q 399 -8 490 -8 m 399 150 q 506 189 467 150 q 544 310 544 228 l 544 697 q 506 818 544 779 q 399 857 467 857 q 292 818 331 857 q 253 697 253 779 l 253 310 q 292 189 253 228 q 399 150 331 150 m 431 899 l 431 1017 q 520 1038 488 1017 q 553 1104 553 1060 q 568 1149 553 1128 q 613 1171 583 1171 q 660 1148 647 1171 q 672 1104 672 1125 q 648 1001 672 1049 q 571 926 624 954 q 431 899 518 899 m 456 1126 q 446 1128 450 1126 q 436 1132 442 1131 l 256 1219 q 231 1261 231 1232 q 247 1307 231 1285 q 286 1329 263 1329 q 304 1326 294 1329 l 488 1238 q 511 1194 511 1225 q 495 1149 511 1172 q 456 1126 479 1126 z "},"Ở":{"ha":797,"x_min":74,"x_max":725,"o":"m 399 -8 q 233 23 307 -8 q 117 124 160 54 q 74 310 74 194 l 74 697 q 117 883 74 813 q 233 984 160 953 q 399 1015 306 1015 q 565 984 490 1015 q 682 883 639 953 q 725 697 725 813 l 725 310 q 682 124 725 194 q 565 23 639 54 q 399 -8 490 -8 m 399 150 q 506 189 467 150 q 544 310 544 228 l 544 697 q 506 818 544 779 q 399 857 467 857 q 292 818 331 857 q 253 697 253 779 l 253 310 q 292 189 253 228 q 399 150 331 150 m 431 899 l 431 1017 q 520 1038 488 1017 q 553 1104 553 1060 q 568 1149 553 1128 q 613 1171 583 1171 q 660 1148 647 1171 q 672 1104 672 1125 q 648 1001 672 1049 q 571 926 624 954 q 431 899 518 899 m 282 1318 q 324 1345 301 1335 q 379 1356 347 1356 q 455 1338 429 1356 q 491 1297 481 1321 q 501 1250 501 1272 q 494 1213 501 1229 q 472 1179 488 1196 q 453 1156 461 1167 q 446 1136 446 1146 q 435 1113 446 1122 q 407 1104 424 1104 q 381 1113 393 1104 q 369 1136 369 1122 q 375 1160 369 1149 q 389 1186 381 1172 q 411 1215 401 1201 q 421 1240 421 1229 q 408 1267 421 1257 q 376 1276 394 1276 q 347 1269 360 1276 q 322 1254 333 1263 q 300 1247 313 1247 q 274 1261 288 1246 q 264 1292 258 1275 q 282 1318 269 1308 z "},"Ỡ":{"ha":797,"x_min":74,"x_max":725,"o":"m 399 -8 q 233 23 307 -8 q 117 124 160 54 q 74 310 74 194 l 74 697 q 117 883 74 813 q 233 984 160 953 q 399 1015 306 1015 q 565 984 490 1015 q 682 883 639 953 q 725 697 725 813 l 725 310 q 682 124 725 194 q 565 23 639 54 q 399 -8 490 -8 m 399 150 q 506 189 467 150 q 544 310 544 228 l 544 697 q 506 818 544 779 q 399 857 467 857 q 292 818 331 857 q 253 697 253 779 l 253 310 q 292 189 253 228 q 399 150 331 150 m 431 899 l 431 1017 q 520 1038 488 1017 q 553 1104 553 1060 q 568 1149 553 1128 q 613 1171 583 1171 q 660 1148 647 1171 q 672 1104 672 1125 q 648 1001 672 1049 q 571 926 624 954 q 431 899 518 899 m 518 1154 q 442 1165 474 1154 q 383 1185 410 1175 q 321 1194 356 1194 q 272 1186 292 1194 q 236 1169 251 1178 q 207 1161 221 1161 q 179 1172 189 1161 q 165 1198 169 1183 q 161 1219 161 1213 q 175 1270 161 1251 q 209 1299 189 1289 q 249 1311 229 1308 q 281 1314 269 1314 q 351 1304 322 1314 q 410 1284 381 1294 q 478 1274 440 1274 q 526 1282 507 1274 q 561 1299 546 1290 q 590 1307 576 1307 q 619 1295 610 1307 q 632 1269 628 1283 q 636 1249 636 1256 q 622 1197 636 1215 q 589 1169 608 1179 q 549 1157 569 1160 q 518 1154 529 1154 z "},"Ő":{"ha":797,"x_min":74,"x_max":725,"o":"m 399 -8 q 233 23 307 -8 q 117 124 160 54 q 74 310 74 194 l 74 697 q 117 883 74 813 q 233 984 160 953 q 399 1015 306 1015 q 565 984 490 1015 q 682 883 639 953 q 725 697 725 813 l 725 310 q 682 124 725 194 q 565 23 639 54 q 399 -8 490 -8 m 399 150 q 506 189 467 150 q 544 310 544 228 l 544 697 q 506 818 544 779 q 399 857 467 857 q 292 818 331 857 q 253 697 253 779 l 253 310 q 292 189 253 228 q 399 150 331 150 m 467 1146 q 428 1163 446 1146 q 411 1199 411 1181 q 421 1221 411 1211 l 538 1343 q 551 1352 544 1350 q 564 1354 557 1354 q 600 1337 583 1354 q 617 1301 617 1319 q 607 1278 617 1289 l 493 1158 q 467 1146 483 1146 m 249 1146 q 210 1163 228 1146 q 193 1199 193 1181 q 203 1221 193 1211 l 319 1343 q 333 1352 326 1350 q 346 1354 339 1354 q 382 1337 365 1354 q 399 1301 399 1319 q 389 1278 399 1289 l 275 1158 q 249 1146 264 1146 z "},"Ō":{"ha":797,"x_min":74,"x_max":725,"o":"m 399 -8 q 233 23 307 -8 q 117 124 160 54 q 74 310 74 194 l 74 697 q 117 883 74 813 q 233 984 160 953 q 399 1015 306 1015 q 565 984 490 1015 q 682 883 639 953 q 725 697 725 813 l 725 310 q 682 124 725 194 q 565 23 639 54 q 399 -8 490 -8 m 399 150 q 506 189 467 150 q 544 310 544 228 l 544 697 q 506 818 544 779 q 399 857 467 857 q 292 818 331 857 q 253 697 253 779 l 253 310 q 292 189 253 228 q 399 150 331 150 m 256 1185 q 216 1201 232 1185 q 200 1243 200 1218 q 216 1285 200 1268 q 256 1303 232 1303 l 540 1303 q 579 1285 561 1303 q 597 1243 597 1268 q 579 1201 597 1218 q 540 1185 561 1185 l 256 1185 z "},"Ø":{"ha":797,"x_min":74,"x_max":725,"o":"m 399 -8 q 233 23 307 -8 q 117 124 160 54 q 74 310 74 194 l 74 697 q 117 883 74 813 q 233 984 160 953 q 399 1015 306 1015 q 565 984 490 1015 q 682 883 639 953 q 725 697 725 813 l 725 310 q 682 124 725 194 q 565 23 639 54 q 399 -8 490 -8 m 399 150 q 506 189 467 150 q 544 310 544 228 l 544 697 q 506 818 544 779 q 399 857 467 857 q 292 818 331 857 q 253 697 253 779 l 253 310 q 292 189 253 228 q 399 150 331 150 m 164 -62 q 117 -43 136 -62 q 99 -1 99 -24 q 104 22 99 11 l 604 1035 q 654 1064 618 1064 q 701 1047 679 1064 q 724 1001 724 1029 q 718 976 724 988 l 218 -32 q 197 -54 213 -46 q 164 -62 181 -62 z "},"Ǿ":{"ha":797,"x_min":74,"x_max":725,"o":"m 399 -8 q 233 23 307 -8 q 117 124 160 54 q 74 310 74 194 l 74 697 q 117 883 74 813 q 233 984 160 953 q 399 1015 306 1015 q 565 984 490 1015 q 682 883 639 953 q 725 697 725 813 l 725 310 q 682 124 725 194 q 565 23 639 54 q 399 -8 490 -8 m 399 150 q 506 189 467 150 q 544 310 544 228 l 544 697 q 506 818 544 779 q 399 857 467 857 q 292 818 331 857 q 253 697 253 779 l 253 310 q 292 189 253 228 q 399 150 331 150 m 164 -62 q 117 -43 136 -62 q 99 -1 99 -24 q 104 22 99 11 l 604 1035 q 654 1064 618 1064 q 701 1047 679 1064 q 724 1001 724 1029 q 718 976 724 988 l 218 -32 q 197 -54 213 -46 q 164 -62 181 -62 m 353 1126 q 314 1149 331 1126 q 297 1194 297 1172 q 321 1238 297 1225 l 504 1326 q 522 1329 514 1329 q 562 1307 546 1329 q 578 1261 578 1285 q 553 1219 578 1232 l 372 1132 q 363 1128 367 1131 q 353 1126 358 1126 z "},"Õ":{"ha":797,"x_min":74,"x_max":725,"o":"m 399 -8 q 233 23 307 -8 q 117 124 160 54 q 74 310 74 194 l 74 697 q 117 883 74 813 q 233 984 160 953 q 399 1015 306 1015 q 565 984 490 1015 q 682 883 639 953 q 725 697 725 813 l 725 310 q 682 124 725 194 q 565 23 639 54 q 399 -8 490 -8 m 399 150 q 506 189 467 150 q 544 310 544 228 l 544 697 q 506 818 544 779 q 399 857 467 857 q 292 818 331 857 q 253 697 253 779 l 253 310 q 292 189 253 228 q 399 150 331 150 m 518 1154 q 442 1165 474 1154 q 383 1185 410 1175 q 321 1194 356 1194 q 272 1186 292 1194 q 236 1169 251 1178 q 207 1161 221 1161 q 179 1172 189 1161 q 165 1198 169 1183 q 161 1219 161 1213 q 175 1270 161 1251 q 209 1299 189 1289 q 249 1311 229 1308 q 281 1314 269 1314 q 351 1304 322 1314 q 410 1284 381 1294 q 478 1274 440 1274 q 526 1282 507 1274 q 561 1299 546 1290 q 590 1307 576 1307 q 619 1295 610 1307 q 632 1269 628 1283 q 636 1249 636 1256 q 622 1197 636 1215 q 589 1169 608 1179 q 549 1157 569 1160 q 518 1154 529 1154 z "},"Œ":{"ha":1153,"x_min":74,"x_max":1131,"o":"m 367 -8 q 216 23 282 -8 q 112 124 150 54 q 74 310 74 194 l 74 697 q 112 883 74 813 q 216 984 150 953 q 367 1015 282 1015 q 483 990 425 1015 q 568 913 540 965 l 568 958 q 593 1001 568 986 q 647 1015 618 1015 l 1074 1015 q 1117 990 1104 1015 q 1131 938 1131 965 q 1116 881 1131 904 q 1074 857 1101 857 l 726 857 l 726 579 l 892 579 q 934 558 919 579 q 949 507 949 536 q 935 460 949 483 q 892 438 922 438 l 726 438 l 726 158 l 1074 158 q 1116 135 1101 158 q 1131 78 1131 111 q 1117 25 1131 50 q 1074 0 1104 0 l 647 0 q 593 15 618 0 q 568 57 568 29 l 568 94 q 483 17 540 42 q 367 -8 425 -8 m 399 150 q 507 189 468 150 q 546 310 546 228 l 546 697 q 507 818 546 779 q 399 857 468 857 q 292 818 331 857 q 254 697 254 779 l 254 310 q 292 189 254 228 q 399 150 331 150 z "},"P":{"ha":774,"x_min":83,"x_max":746,"o":"m 174 0 q 112 15 140 0 q 83 57 83 29 l 83 960 q 103 999 83 982 q 153 1015 122 1015 l 431 1015 q 591 985 519 1015 q 704 885 663 954 q 746 703 746 817 l 746 694 q 703 511 746 581 q 585 410 660 442 q 419 379 511 379 l 264 379 l 264 57 q 236 15 264 29 q 174 0 208 0 m 264 521 l 419 521 q 527 560 489 521 q 565 681 565 600 l 565 697 q 527 817 565 778 q 419 857 489 857 l 264 857 l 264 521 z "},"Þ":{"ha":721,"x_min":83,"x_max":688,"o":"m 172 0 q 108 18 133 0 q 83 57 83 36 l 83 978 q 108 1018 83 1003 q 169 1033 133 1033 q 236 1018 210 1033 q 263 978 263 1003 l 263 758 q 332 831 285 799 q 442 864 379 864 q 567 828 511 864 q 655 731 622 792 q 688 592 688 669 l 688 458 q 654 321 688 383 q 567 221 621 258 q 449 183 513 183 q 370 199 408 183 q 304 240 332 214 q 263 293 276 265 l 263 57 q 236 18 263 36 q 172 0 210 0 m 388 340 q 447 356 419 340 q 492 398 475 371 q 508 458 508 425 l 508 592 q 492 649 508 624 q 447 691 475 675 q 386 707 419 707 q 327 692 356 707 q 281 653 299 678 q 263 592 263 628 l 263 443 q 278 402 263 426 q 323 359 294 378 q 388 340 351 340 z "},"Q":{"ha":797,"x_min":74,"x_max":725,"o":"m 399 -151 q 358 -137 376 -151 q 340 -94 340 -122 l 340 -4 q 203 39 264 4 q 108 140 142 74 q 74 310 74 207 l 74 697 q 117 883 74 814 q 233 984 160 953 q 399 1015 307 1015 q 565 984 490 1015 q 682 883 639 953 q 725 697 725 814 l 725 310 q 690 140 725 207 q 594 39 656 74 q 456 -4 533 4 l 456 -94 q 438 -137 456 -122 q 399 -151 419 -151 m 340 161 l 340 235 q 358 277 340 264 q 399 290 376 290 q 438 277 419 290 q 456 235 456 264 l 456 161 q 521 212 497 175 q 544 310 544 249 l 544 697 q 506 817 544 778 q 399 857 467 857 q 292 817 331 857 q 253 697 253 778 l 253 310 q 276 212 253 249 q 340 161 299 175 z "},"R":{"ha":789,"x_min":83,"x_max":753,"o":"m 640 -7 q 605 4 622 -7 q 578 36 588 15 l 381 419 l 264 419 l 264 57 q 236 15 264 29 q 174 0 208 0 q 112 15 140 0 q 83 57 83 29 l 83 960 q 99 999 83 982 q 142 1015 115 1015 l 417 1015 q 583 989 508 1015 q 701 899 657 963 q 746 725 746 836 q 722 588 746 644 q 658 498 699 532 q 564 447 617 464 l 747 110 q 751 98 750 104 q 753 88 753 92 q 736 43 753 65 q 694 7 719 21 q 640 -7 668 -7 m 264 561 l 417 561 q 525 594 485 561 q 565 708 565 628 q 525 824 565 792 q 417 857 485 857 l 264 857 l 264 561 z "},"Ŕ":{"ha":789,"x_min":83,"x_max":753,"o":"m 640 -7 q 605 4 622 -7 q 578 36 588 15 l 381 419 l 264 419 l 264 57 q 236 15 264 29 q 174 0 208 0 q 112 15 140 0 q 83 57 83 29 l 83 960 q 99 999 83 982 q 142 1015 115 1015 l 417 1015 q 583 989 508 1015 q 701 899 657 963 q 746 725 746 836 q 722 588 746 644 q 658 498 699 532 q 564 447 617 464 l 747 110 q 751 98 750 104 q 753 88 753 92 q 736 43 753 65 q 694 7 719 21 q 640 -7 668 -7 m 264 561 l 417 561 q 525 594 485 561 q 565 708 565 628 q 525 824 565 792 q 417 857 485 857 l 264 857 l 264 561 m 353 1126 q 314 1149 331 1126 q 297 1194 297 1172 q 321 1238 297 1225 l 504 1326 q 522 1329 514 1329 q 562 1307 546 1329 q 578 1261 578 1285 q 553 1219 578 1232 l 372 1132 q 363 1128 367 1131 q 353 1126 358 1126 z "},"Ř":{"ha":789,"x_min":83,"x_max":753,"o":"m 640 -7 q 605 4 622 -7 q 578 36 588 15 l 381 419 l 264 419 l 264 57 q 236 15 264 29 q 174 0 208 0 q 112 15 140 0 q 83 57 83 29 l 83 960 q 99 999 83 982 q 142 1015 115 1015 l 417 1015 q 583 989 508 1015 q 701 899 657 963 q 746 725 746 836 q 722 588 746 644 q 658 498 699 532 q 564 447 617 464 l 747 110 q 751 98 750 104 q 753 88 753 92 q 736 43 753 65 q 694 7 719 21 q 640 -7 668 -7 m 264 561 l 417 561 q 525 594 485 561 q 565 708 565 628 q 525 824 565 792 q 417 857 485 857 l 264 857 l 264 561 m 401 1147 q 376 1156 390 1147 l 233 1247 q 210 1270 218 1257 q 203 1300 203 1283 q 214 1337 203 1319 q 242 1354 225 1354 q 258 1349 250 1354 l 401 1257 l 543 1349 q 560 1354 553 1354 q 588 1337 578 1354 q 599 1300 599 1319 q 592 1270 599 1283 q 569 1247 586 1257 l 426 1156 q 401 1147 411 1147 z "},"Ŗ":{"ha":789,"x_min":83,"x_max":753,"o":"m 640 -7 q 605 4 622 -7 q 578 36 588 15 l 381 419 l 264 419 l 264 57 q 236 15 264 29 q 174 0 208 0 q 112 15 140 0 q 83 57 83 29 l 83 960 q 99 999 83 982 q 142 1015 115 1015 l 417 1015 q 583 989 508 1015 q 701 899 657 963 q 746 725 746 836 q 722 588 746 644 q 658 498 699 532 q 564 447 617 464 l 747 110 q 751 98 750 104 q 753 88 753 92 q 736 43 753 65 q 694 7 719 21 q 640 -7 668 -7 m 264 561 l 417 561 q 525 594 485 561 q 565 708 565 628 q 525 824 565 792 q 417 857 485 857 l 264 857 l 264 561 m 306 -269 q 267 -247 283 -269 q 250 -201 250 -224 q 274 -160 250 -171 l 457 -71 q 475 -67 467 -67 q 515 -89 499 -67 q 531 -135 531 -111 q 506 -178 531 -165 l 325 -264 q 315 -267 319 -265 q 306 -269 311 -269 z "},"S":{"ha":725,"x_min":33,"x_max":685,"o":"m 354 -12 q 191 14 264 -12 q 76 80 118 40 q 33 160 33 119 q 44 202 33 179 q 72 241 54 225 q 113 257 90 257 q 154 241 135 257 q 199 203 174 225 q 260 166 224 182 q 349 150 296 150 q 426 163 390 150 q 483 203 461 176 q 504 271 504 229 q 481 346 504 315 q 417 399 457 376 q 329 442 376 421 q 234 486 282 463 q 147 543 186 510 q 83 625 107 576 q 58 744 58 674 q 88 875 58 822 q 167 960 118 928 q 276 1008 217 993 q 396 1022 336 1022 q 472 1017 428 1022 q 559 1000 515 1013 q 631 966 603 988 q 660 911 660 944 q 652 872 660 894 q 628 833 644 850 q 588 815 613 815 q 544 828 565 815 q 488 855 522 842 q 396 868 454 868 q 311 855 347 868 q 257 819 275 842 q 239 761 239 796 q 263 700 239 725 q 327 656 288 675 q 414 617 367 636 q 509 572 461 597 q 597 510 557 546 q 661 420 638 474 q 685 289 685 367 q 642 123 685 190 q 524 22 599 56 q 354 -12 450 -12 z "},"Ś":{"ha":725,"x_min":33,"x_max":685,"o":"m 354 -12 q 191 14 264 -12 q 76 80 118 40 q 33 160 33 119 q 44 202 33 179 q 72 241 54 225 q 113 257 90 257 q 154 241 135 257 q 199 203 174 225 q 260 166 224 182 q 349 150 296 150 q 426 163 390 150 q 483 203 461 176 q 504 271 504 229 q 481 346 504 315 q 417 399 457 376 q 329 442 376 421 q 234 486 282 463 q 147 543 186 510 q 83 625 107 576 q 58 744 58 674 q 88 875 58 822 q 167 960 118 928 q 276 1008 217 993 q 396 1022 336 1022 q 472 1017 428 1022 q 559 1000 515 1013 q 631 966 603 988 q 660 911 660 944 q 652 872 660 894 q 628 833 644 850 q 588 815 613 815 q 544 828 565 815 q 488 855 522 842 q 396 868 454 868 q 311 855 347 868 q 257 819 275 842 q 239 761 239 796 q 263 700 239 725 q 327 656 288 675 q 414 617 367 636 q 509 572 461 597 q 597 510 557 546 q 661 420 638 474 q 685 289 685 367 q 642 123 685 190 q 524 22 599 56 q 354 -12 450 -12 m 315 1126 q 276 1149 293 1126 q 260 1194 260 1172 q 283 1238 260 1225 l 467 1326 q 485 1329 476 1329 q 524 1307 508 1329 q 540 1261 540 1285 q 515 1219 540 1232 l 335 1132 q 325 1128 329 1131 q 315 1126 321 1126 z "},"Š":{"ha":725,"x_min":33,"x_max":685,"o":"m 354 -12 q 191 14 264 -12 q 76 80 118 40 q 33 160 33 119 q 44 202 33 179 q 72 241 54 225 q 113 257 90 257 q 154 241 135 257 q 199 203 174 225 q 260 166 224 182 q 349 150 296 150 q 426 163 390 150 q 483 203 461 176 q 504 271 504 229 q 481 346 504 315 q 417 399 457 376 q 329 442 376 421 q 234 486 282 463 q 147 543 186 510 q 83 625 107 576 q 58 744 58 674 q 88 875 58 822 q 167 960 118 928 q 276 1008 217 993 q 396 1022 336 1022 q 472 1017 428 1022 q 559 1000 515 1013 q 631 966 603 988 q 660 911 660 944 q 652 872 660 894 q 628 833 644 850 q 588 815 613 815 q 544 828 565 815 q 488 855 522 842 q 396 868 454 868 q 311 855 347 868 q 257 819 275 842 q 239 761 239 796 q 263 700 239 725 q 327 656 288 675 q 414 617 367 636 q 509 572 461 597 q 597 510 557 546 q 661 420 638 474 q 685 289 685 367 q 642 123 685 190 q 524 22 599 56 q 354 -12 450 -12 m 364 1147 q 339 1156 353 1147 l 196 1247 q 173 1270 181 1257 q 165 1300 165 1283 q 176 1337 165 1319 q 204 1354 188 1354 q 221 1349 213 1354 l 364 1257 l 506 1349 q 522 1354 515 1354 q 551 1337 540 1354 q 561 1300 561 1319 q 555 1270 561 1283 q 532 1247 549 1257 l 389 1156 q 364 1147 374 1147 z "},"Ş":{"ha":725,"x_min":33,"x_max":685,"o":"m 354 -12 q 191 14 264 -12 q 76 80 118 40 q 33 160 33 119 q 44 202 33 179 q 72 241 54 225 q 113 257 90 257 q 154 241 135 257 q 199 203 174 225 q 260 166 224 182 q 349 150 296 150 q 426 163 390 150 q 483 203 461 176 q 504 271 504 229 q 481 346 504 315 q 417 399 457 376 q 329 442 376 421 q 234 486 282 463 q 147 543 186 510 q 83 625 107 576 q 58 744 58 674 q 88 875 58 822 q 167 960 118 928 q 276 1008 217 993 q 396 1022 336 1022 q 472 1017 428 1022 q 559 1000 515 1013 q 631 966 603 988 q 660 911 660 944 q 652 872 660 894 q 628 833 644 850 q 588 815 613 815 q 544 828 565 815 q 488 855 522 842 q 396 868 454 868 q 311 855 347 868 q 257 819 275 842 q 239 761 239 796 q 263 700 239 725 q 327 656 288 675 q 414 617 367 636 q 509 572 461 597 q 597 510 557 546 q 661 420 638 474 q 685 289 685 367 q 642 123 685 190 q 524 22 599 56 q 354 -12 450 -12 m 383 -300 q 333 -296 360 -300 q 285 -282 306 -292 q 265 -260 265 -272 q 269 -242 265 -254 q 279 -219 272 -231 q 297 -208 286 -208 q 326 -218 308 -208 q 378 -228 343 -228 q 426 -216 408 -228 q 443 -182 443 -204 q 427 -147 443 -161 q 376 -131 411 -133 l 300 -124 l 339 13 l 418 13 l 392 -71 q 496 -104 463 -74 q 529 -178 529 -135 q 516 -231 529 -201 q 471 -280 503 -260 q 383 -300 439 -300 z "},"Ŝ":{"ha":725,"x_min":33,"x_max":685,"o":"m 354 -12 q 191 14 264 -12 q 76 80 118 40 q 33 160 33 119 q 44 202 33 179 q 72 241 54 225 q 113 257 90 257 q 154 241 135 257 q 199 203 174 225 q 260 166 224 182 q 349 150 296 150 q 426 163 390 150 q 483 203 461 176 q 504 271 504 229 q 481 346 504 315 q 417 399 457 376 q 329 442 376 421 q 234 486 282 463 q 147 543 186 510 q 83 625 107 576 q 58 744 58 674 q 88 875 58 822 q 167 960 118 928 q 276 1008 217 993 q 396 1022 336 1022 q 472 1017 428 1022 q 559 1000 515 1013 q 631 966 603 988 q 660 911 660 944 q 652 872 660 894 q 628 833 644 850 q 588 815 613 815 q 544 828 565 815 q 488 855 522 842 q 396 868 454 868 q 311 855 347 868 q 257 819 275 842 q 239 761 239 796 q 263 700 239 725 q 327 656 288 675 q 414 617 367 636 q 509 572 461 597 q 597 510 557 546 q 661 420 638 474 q 685 289 685 367 q 642 123 685 190 q 524 22 599 56 q 354 -12 450 -12 m 204 1138 q 176 1155 188 1138 q 165 1193 165 1172 q 172 1222 165 1208 q 196 1244 179 1236 l 340 1322 q 364 1329 353 1329 q 388 1322 374 1329 l 532 1246 q 555 1223 549 1238 q 561 1192 561 1208 q 551 1155 561 1172 q 522 1138 540 1138 q 515 1139 519 1138 q 508 1142 511 1140 l 364 1219 l 219 1142 q 211 1139 215 1140 q 204 1138 207 1138 z "},"Ș":{"ha":725,"x_min":33,"x_max":685,"o":"m 354 -12 q 191 14 264 -12 q 76 80 118 40 q 33 160 33 119 q 44 202 33 179 q 72 241 54 225 q 113 257 90 257 q 154 241 135 257 q 199 203 174 225 q 260 166 224 182 q 349 150 296 150 q 426 163 390 150 q 483 203 461 176 q 504 271 504 229 q 481 346 504 315 q 417 399 457 376 q 329 442 376 421 q 234 486 282 463 q 147 543 186 510 q 83 625 107 576 q 58 744 58 674 q 88 875 58 822 q 167 960 118 928 q 276 1008 217 993 q 396 1022 336 1022 q 472 1017 428 1022 q 559 1000 515 1013 q 631 966 603 988 q 660 911 660 944 q 652 872 660 894 q 628 833 644 850 q 588 815 613 815 q 544 828 565 815 q 488 855 522 842 q 396 868 454 868 q 311 855 347 868 q 257 819 275 842 q 239 761 239 796 q 263 700 239 725 q 327 656 288 675 q 414 617 367 636 q 509 572 461 597 q 597 510 557 546 q 661 420 638 474 q 685 289 685 367 q 642 123 685 190 q 524 22 599 56 q 354 -12 450 -12 m 285 -269 q 246 -247 263 -269 q 229 -201 229 -224 q 253 -160 229 -171 l 436 -71 q 454 -67 446 -67 q 494 -89 478 -67 q 510 -135 510 -111 q 485 -178 510 -165 l 304 -264 q 294 -267 299 -265 q 285 -269 290 -269 z "},"T":{"ha":726,"x_min":13,"x_max":714,"o":"m 364 0 q 301 15 329 0 q 274 57 274 29 l 274 853 l 69 853 q 28 878 43 853 q 13 935 13 903 q 26 990 13 964 q 69 1015 40 1015 l 657 1015 q 701 990 688 1015 q 714 935 714 964 q 699 878 714 903 q 657 853 685 853 l 454 853 l 454 57 q 426 15 454 29 q 364 0 397 0 z "},"Ŧ":{"ha":728,"x_min":14,"x_max":714,"o":"m 364 0 q 302 15 331 0 q 274 57 274 29 l 274 442 l 156 442 q 120 462 132 442 q 108 507 108 482 q 120 551 108 531 q 156 572 132 572 l 274 572 l 274 853 l 69 853 q 28 878 43 853 q 14 935 14 903 q 27 990 14 964 q 69 1015 40 1015 l 658 1015 q 701 990 688 1015 q 714 935 714 964 q 700 878 714 903 q 658 853 686 853 l 454 853 l 454 572 l 571 572 q 606 551 594 572 q 618 507 618 531 q 606 461 618 481 q 571 442 594 442 l 454 442 l 454 57 q 426 15 454 29 q 364 0 397 0 z "},"Ť":{"ha":726,"x_min":13,"x_max":714,"o":"m 364 0 q 301 15 329 0 q 274 57 274 29 l 274 853 l 69 853 q 28 878 43 853 q 13 935 13 903 q 26 990 13 964 q 69 1015 40 1015 l 657 1015 q 701 990 688 1015 q 714 935 714 964 q 699 878 714 903 q 657 853 685 853 l 454 853 l 454 57 q 426 15 454 29 q 364 0 397 0 m 364 1147 q 339 1156 353 1147 l 196 1247 q 173 1270 181 1257 q 165 1300 165 1283 q 176 1337 165 1319 q 204 1354 188 1354 q 221 1349 213 1354 l 364 1257 l 506 1349 q 522 1354 515 1354 q 551 1337 540 1354 q 561 1300 561 1319 q 555 1270 561 1283 q 532 1247 549 1257 l 389 1156 q 364 1147 374 1147 z "},"Ţ":{"ha":726,"x_min":13,"x_max":714,"o":"m 364 0 q 301 15 329 0 q 274 57 274 29 l 274 853 l 69 853 q 28 878 43 853 q 13 935 13 903 q 26 990 13 964 q 69 1015 40 1015 l 657 1015 q 701 990 688 1015 q 714 935 714 964 q 699 878 714 903 q 657 853 685 853 l 454 853 l 454 57 q 426 15 454 29 q 364 0 397 0 m 278 -269 q 239 -247 256 -269 q 222 -201 222 -224 q 246 -160 222 -171 l 429 -71 q 447 -67 439 -67 q 487 -89 471 -67 q 503 -135 503 -111 q 478 -178 503 -165 l 297 -264 q 288 -267 292 -265 q 278 -269 283 -269 z "},"U":{"ha":825,"x_min":79,"x_max":746,"o":"m 413 -8 q 243 23 318 -8 q 124 124 168 54 q 79 310 79 194 l 79 960 q 107 1002 79 989 q 169 1015 135 1015 q 231 1002 203 1015 q 260 960 260 989 l 260 310 q 300 190 260 229 q 413 150 340 150 q 524 190 483 150 q 565 310 565 229 l 565 960 q 592 1002 565 989 q 656 1015 619 1015 q 717 1002 689 1015 q 746 960 746 989 l 746 310 q 701 124 746 194 q 581 23 657 54 q 413 -8 506 -8 z "},"Ú":{"ha":825,"x_min":79,"x_max":746,"o":"m 413 -8 q 243 23 318 -8 q 124 124 168 54 q 79 310 79 194 l 79 960 q 107 1002 79 989 q 169 1015 135 1015 q 231 1002 203 1015 q 260 960 260 989 l 260 310 q 300 190 260 229 q 413 150 340 150 q 524 190 483 150 q 565 310 565 229 l 565 960 q 592 1002 565 989 q 656 1015 619 1015 q 717 1002 689 1015 q 746 960 746 989 l 746 310 q 701 124 746 194 q 581 23 657 54 q 413 -8 506 -8 m 365 1126 q 326 1149 343 1126 q 310 1194 310 1172 q 333 1238 310 1225 l 517 1326 q 535 1329 526 1329 q 574 1307 558 1329 q 590 1261 590 1285 q 565 1219 590 1232 l 385 1132 q 375 1128 379 1131 q 365 1126 371 1126 z "},"Ŭ":{"ha":825,"x_min":79,"x_max":746,"o":"m 413 -8 q 243 23 318 -8 q 124 124 168 54 q 79 310 79 194 l 79 960 q 107 1002 79 989 q 169 1015 135 1015 q 231 1002 203 1015 q 260 960 260 989 l 260 310 q 300 190 260 229 q 413 150 340 150 q 524 190 483 150 q 565 310 565 229 l 565 960 q 592 1002 565 989 q 656 1015 619 1015 q 717 1002 689 1015 q 746 960 746 989 l 746 310 q 701 124 746 194 q 581 23 657 54 q 413 -8 506 -8 m 413 1154 q 299 1197 351 1154 q 232 1299 247 1239 q 238 1328 228 1318 q 268 1339 249 1339 l 290 1339 q 316 1330 307 1339 q 331 1306 325 1321 q 363 1254 339 1274 q 413 1235 388 1235 q 463 1254 440 1235 q 494 1306 485 1274 q 509 1330 500 1321 q 535 1339 518 1339 l 557 1339 q 586 1328 575 1339 q 592 1297 597 1317 q 525 1197 576 1239 q 413 1154 474 1154 z "},"Û":{"ha":825,"x_min":79,"x_max":746,"o":"m 413 -8 q 243 23 318 -8 q 124 124 168 54 q 79 310 79 194 l 79 960 q 107 1002 79 989 q 169 1015 135 1015 q 231 1002 203 1015 q 260 960 260 989 l 260 310 q 300 190 260 229 q 413 150 340 150 q 524 190 483 150 q 565 310 565 229 l 565 960 q 592 1002 565 989 q 656 1015 619 1015 q 717 1002 689 1015 q 746 960 746 989 l 746 310 q 701 124 746 194 q 581 23 657 54 q 413 -8 506 -8 m 253 1138 q 225 1155 236 1138 q 214 1193 214 1172 q 221 1222 214 1208 q 244 1244 228 1236 l 389 1322 q 413 1329 401 1329 q 436 1322 422 1329 l 581 1246 q 603 1223 597 1238 q 610 1192 610 1208 q 599 1155 610 1172 q 571 1138 589 1138 q 564 1139 568 1138 q 557 1142 560 1140 l 413 1219 l 268 1142 q 260 1139 264 1140 q 253 1138 256 1138 z "},"Ü":{"ha":825,"x_min":79,"x_max":746,"o":"m 413 -8 q 243 23 318 -8 q 124 124 168 54 q 79 310 79 194 l 79 960 q 107 1002 79 989 q 169 1015 135 1015 q 231 1002 203 1015 q 260 960 260 989 l 260 310 q 300 190 260 229 q 413 150 340 150 q 524 190 483 150 q 565 310 565 229 l 565 960 q 592 1002 565 989 q 656 1015 619 1015 q 717 1002 689 1015 q 746 960 746 989 l 746 310 q 701 124 746 194 q 581 23 657 54 q 413 -8 506 -8 m 515 1139 q 465 1161 486 1139 q 443 1213 443 1183 q 465 1263 443 1242 q 515 1285 486 1285 q 564 1263 543 1285 q 585 1213 585 1242 q 564 1161 585 1183 q 515 1139 543 1139 m 307 1139 q 257 1161 278 1139 q 236 1213 236 1183 q 257 1263 236 1242 q 307 1285 278 1285 q 356 1263 336 1285 q 376 1213 376 1242 q 356 1161 376 1183 q 307 1139 336 1139 z "},"Ụ":{"ha":763,"x_min":79,"x_max":746,"o":"m 413 -8 q 243 23 318 -8 q 124 124 168 54 q 79 310 79 194 l 79 960 q 107 1002 79 989 q 169 1015 135 1015 q 231 1002 203 1015 q 260 960 260 989 l 260 310 q 300 190 260 229 q 413 150 340 150 q 524 190 483 150 q 565 310 565 229 l 565 960 q 592 1002 565 989 q 656 1015 619 1015 q 717 1002 689 1015 q 746 960 746 989 l 746 310 q 701 124 746 194 q 581 23 657 54 q 413 -8 506 -8 m 403 -183 q 335 -155 363 -183 q 308 -89 308 -126 q 335 -22 308 -50 q 403 6 363 6 q 468 -22 440 6 q 496 -89 496 -50 q 468 -155 496 -126 q 403 -183 440 -183 z "},"Ù":{"ha":825,"x_min":79,"x_max":746,"o":"m 413 -8 q 243 23 318 -8 q 124 124 168 54 q 79 310 79 194 l 79 960 q 107 1002 79 989 q 169 1015 135 1015 q 231 1002 203 1015 q 260 960 260 989 l 260 310 q 300 190 260 229 q 413 150 340 150 q 524 190 483 150 q 565 310 565 229 l 565 960 q 592 1002 565 989 q 656 1015 619 1015 q 717 1002 689 1015 q 746 960 746 989 l 746 310 q 701 124 746 194 q 581 23 657 54 q 413 -8 506 -8 m 468 1126 q 458 1128 463 1126 q 449 1132 454 1131 l 268 1219 q 243 1261 243 1232 q 259 1307 243 1285 q 299 1329 275 1329 q 317 1326 307 1329 l 500 1238 q 524 1194 524 1225 q 508 1149 524 1172 q 468 1126 492 1126 z "},"Ủ":{"ha":825,"x_min":79,"x_max":746,"o":"m 413 -8 q 243 23 318 -8 q 124 124 168 54 q 79 310 79 194 l 79 960 q 107 1002 79 989 q 169 1015 135 1015 q 231 1002 203 1015 q 260 960 260 989 l 260 310 q 300 190 260 229 q 413 150 340 150 q 524 190 483 150 q 565 310 565 229 l 565 960 q 592 1002 565 989 q 656 1015 619 1015 q 717 1002 689 1015 q 746 960 746 989 l 746 310 q 701 124 746 194 q 581 23 657 54 q 413 -8 506 -8 m 294 1318 q 337 1345 314 1335 q 392 1356 360 1356 q 467 1338 442 1356 q 503 1297 493 1321 q 514 1250 514 1272 q 507 1213 514 1229 q 485 1179 500 1196 q 466 1156 474 1167 q 458 1136 458 1146 q 447 1113 458 1122 q 419 1104 436 1104 q 394 1113 406 1104 q 382 1136 382 1122 q 388 1160 382 1149 q 401 1186 393 1172 q 424 1215 414 1201 q 433 1240 433 1229 q 420 1267 433 1257 q 389 1276 407 1276 q 359 1269 372 1276 q 335 1254 346 1263 q 313 1247 325 1247 q 286 1261 300 1246 q 276 1292 271 1275 q 294 1318 282 1308 z "},"Ư":{"ha":825,"x_min":79,"x_max":894,"o":"m 413 -8 q 243 23 318 -8 q 124 124 168 54 q 79 310 79 194 l 79 960 q 107 1002 79 989 q 169 1015 135 1015 q 231 1002 203 1015 q 260 960 260 989 l 260 310 q 300 190 260 229 q 413 150 340 150 q 524 190 483 150 q 565 310 565 229 l 565 960 q 592 1002 565 989 q 656 1015 619 1015 q 717 1002 689 1015 q 746 960 746 989 l 746 310 q 701 124 746 194 q 581 23 657 54 q 413 -8 506 -8 m 654 899 l 654 1017 q 744 1038 711 1017 q 776 1104 776 1060 q 792 1149 776 1128 q 836 1171 807 1171 q 883 1148 871 1171 q 896 1104 896 1125 q 872 1001 896 1049 q 794 926 847 954 q 654 899 742 899 z "},"Ứ":{"ha":825,"x_min":79,"x_max":894,"o":"m 413 -8 q 243 23 318 -8 q 124 124 168 54 q 79 310 79 194 l 79 960 q 107 1002 79 989 q 169 1015 135 1015 q 231 1002 203 1015 q 260 960 260 989 l 260 310 q 300 190 260 229 q 413 150 340 150 q 524 190 483 150 q 565 310 565 229 l 565 960 q 592 1002 565 989 q 656 1015 619 1015 q 717 1002 689 1015 q 746 960 746 989 l 746 310 q 701 124 746 194 q 581 23 657 54 q 413 -8 506 -8 m 654 899 l 654 1017 q 744 1038 711 1017 q 776 1104 776 1060 q 792 1149 776 1128 q 836 1171 807 1171 q 883 1148 871 1171 q 896 1104 896 1125 q 872 1001 896 1049 q 794 926 847 954 q 654 899 742 899 m 365 1126 q 326 1149 343 1126 q 310 1194 310 1172 q 333 1238 310 1225 l 517 1326 q 535 1329 526 1329 q 574 1307 558 1329 q 590 1261 590 1285 q 565 1219 590 1232 l 385 1132 q 375 1128 379 1131 q 365 1126 371 1126 z "},"Ự":{"ha":763,"x_min":79,"x_max":868,"o":"m 413 -8 q 243 23 318 -8 q 124 124 168 54 q 79 310 79 194 l 79 960 q 107 1002 79 989 q 169 1015 135 1015 q 231 1002 203 1015 q 260 960 260 989 l 260 310 q 300 190 260 229 q 413 150 340 150 q 524 190 483 150 q 565 310 565 229 l 565 960 q 592 1002 565 989 q 656 1015 619 1015 q 717 1002 689 1015 q 746 960 746 989 l 746 310 q 701 124 746 194 q 581 23 657 54 q 413 -8 506 -8 m 626 903 l 626 1021 q 716 1042 683 1021 q 749 1108 749 1064 q 764 1153 749 1132 q 808 1175 779 1175 q 856 1152 843 1175 q 868 1108 868 1129 q 844 1006 868 1053 q 767 931 819 958 q 626 903 714 903 m 403 -183 q 335 -155 363 -183 q 308 -89 308 -126 q 335 -22 308 -50 q 403 6 363 6 q 468 -22 440 6 q 496 -89 496 -50 q 468 -155 496 -126 q 403 -183 440 -183 z "},"Ừ":{"ha":825,"x_min":79,"x_max":894,"o":"m 413 -8 q 243 23 318 -8 q 124 124 168 54 q 79 310 79 194 l 79 960 q 107 1002 79 989 q 169 1015 135 1015 q 231 1002 203 1015 q 260 960 260 989 l 260 310 q 300 190 260 229 q 413 150 340 150 q 524 190 483 150 q 565 310 565 229 l 565 960 q 592 1002 565 989 q 656 1015 619 1015 q 717 1002 689 1015 q 746 960 746 989 l 746 310 q 701 124 746 194 q 581 23 657 54 q 413 -8 506 -8 m 654 899 l 654 1017 q 744 1038 711 1017 q 776 1104 776 1060 q 792 1149 776 1128 q 836 1171 807 1171 q 883 1148 871 1171 q 896 1104 896 1125 q 872 1001 896 1049 q 794 926 847 954 q 654 899 742 899 m 468 1126 q 458 1128 463 1126 q 449 1132 454 1131 l 268 1219 q 243 1261 243 1232 q 259 1307 243 1285 q 299 1329 275 1329 q 317 1326 307 1329 l 500 1238 q 524 1194 524 1225 q 508 1149 524 1172 q 468 1126 492 1126 z "},"Ử":{"ha":825,"x_min":79,"x_max":894,"o":"m 413 -8 q 243 23 318 -8 q 124 124 168 54 q 79 310 79 194 l 79 960 q 107 1002 79 989 q 169 1015 135 1015 q 231 1002 203 1015 q 260 960 260 989 l 260 310 q 300 190 260 229 q 413 150 340 150 q 524 190 483 150 q 565 310 565 229 l 565 960 q 592 1002 565 989 q 656 1015 619 1015 q 717 1002 689 1015 q 746 960 746 989 l 746 310 q 701 124 746 194 q 581 23 657 54 q 413 -8 506 -8 m 654 899 l 654 1017 q 744 1038 711 1017 q 776 1104 776 1060 q 792 1149 776 1128 q 836 1171 807 1171 q 883 1148 871 1171 q 896 1104 896 1125 q 872 1001 896 1049 q 794 926 847 954 q 654 899 742 899 m 294 1318 q 337 1345 314 1335 q 392 1356 360 1356 q 467 1338 442 1356 q 503 1297 493 1321 q 514 1250 514 1272 q 507 1213 514 1229 q 485 1179 500 1196 q 466 1156 474 1167 q 458 1136 458 1146 q 447 1113 458 1122 q 419 1104 436 1104 q 394 1113 406 1104 q 382 1136 382 1122 q 388 1160 382 1149 q 401 1186 393 1172 q 424 1215 414 1201 q 433 1240 433 1229 q 420 1267 433 1257 q 389 1276 407 1276 q 359 1269 372 1276 q 335 1254 346 1263 q 313 1247 325 1247 q 286 1261 300 1246 q 276 1292 271 1275 q 294 1318 282 1308 z "},"Ữ":{"ha":825,"x_min":79,"x_max":894,"o":"m 413 -8 q 243 23 318 -8 q 124 124 168 54 q 79 310 79 194 l 79 960 q 107 1002 79 989 q 169 1015 135 1015 q 231 1002 203 1015 q 260 960 260 989 l 260 310 q 300 190 260 229 q 413 150 340 150 q 524 190 483 150 q 565 310 565 229 l 565 960 q 592 1002 565 989 q 656 1015 619 1015 q 717 1002 689 1015 q 746 960 746 989 l 746 310 q 701 124 746 194 q 581 23 657 54 q 413 -8 506 -8 m 654 899 l 654 1017 q 744 1038 711 1017 q 776 1104 776 1060 q 792 1149 776 1128 q 836 1171 807 1171 q 883 1148 871 1171 q 896 1104 896 1125 q 872 1001 896 1049 q 794 926 847 954 q 654 899 742 899 m 531 1154 q 454 1165 486 1154 q 395 1185 422 1175 q 333 1194 368 1194 q 284 1186 304 1194 q 249 1169 264 1178 q 219 1161 233 1161 q 192 1172 201 1161 q 178 1198 182 1183 q 174 1219 174 1213 q 188 1270 174 1251 q 222 1299 201 1289 q 262 1311 242 1308 q 293 1314 282 1314 q 364 1304 335 1314 q 423 1284 393 1294 q 490 1274 453 1274 q 539 1282 519 1274 q 574 1299 558 1290 q 603 1307 589 1307 q 631 1295 622 1307 q 644 1269 640 1283 q 649 1249 649 1256 q 635 1197 649 1215 q 601 1169 621 1179 q 562 1157 582 1160 q 531 1154 542 1154 z "},"Ű":{"ha":825,"x_min":79,"x_max":746,"o":"m 413 -8 q 243 23 318 -8 q 124 124 168 54 q 79 310 79 194 l 79 960 q 107 1002 79 989 q 169 1015 135 1015 q 231 1002 203 1015 q 260 960 260 989 l 260 310 q 300 190 260 229 q 413 150 340 150 q 524 190 483 150 q 565 310 565 229 l 565 960 q 592 1002 565 989 q 656 1015 619 1015 q 717 1002 689 1015 q 746 960 746 989 l 746 310 q 701 124 746 194 q 581 23 657 54 q 413 -8 506 -8 m 479 1146 q 441 1163 458 1146 q 424 1199 424 1181 q 433 1221 424 1211 l 550 1343 q 563 1352 557 1350 q 576 1354 569 1354 q 613 1337 596 1354 q 629 1301 629 1319 q 619 1278 629 1289 l 506 1158 q 479 1146 496 1146 m 261 1146 q 223 1163 240 1146 q 206 1199 206 1181 q 215 1221 206 1211 l 332 1343 q 345 1352 339 1350 q 358 1354 351 1354 q 394 1337 378 1354 q 411 1301 411 1319 q 401 1278 411 1289 l 288 1158 q 261 1146 276 1146 z "},"Ū":{"ha":825,"x_min":79,"x_max":746,"o":"m 413 -8 q 243 23 318 -8 q 124 124 168 54 q 79 310 79 194 l 79 960 q 107 1002 79 989 q 169 1015 135 1015 q 231 1002 203 1015 q 260 960 260 989 l 260 310 q 300 190 260 229 q 413 150 340 150 q 524 190 483 150 q 565 310 565 229 l 565 960 q 592 1002 565 989 q 656 1015 619 1015 q 717 1002 689 1015 q 746 960 746 989 l 746 310 q 701 124 746 194 q 581 23 657 54 q 413 -8 506 -8 m 268 1185 q 228 1201 244 1185 q 213 1243 213 1218 q 228 1285 213 1268 q 268 1303 244 1303 l 553 1303 q 592 1285 574 1303 q 610 1243 610 1268 q 592 1201 610 1218 q 553 1185 574 1185 l 268 1185 z "},"Ų":{"ha":825,"x_min":79,"x_max":746,"o":"m 413 -8 q 243 23 318 -8 q 124 124 168 54 q 79 310 79 194 l 79 960 q 107 1002 79 989 q 169 1015 135 1015 q 231 1002 203 1015 q 260 960 260 989 l 260 310 q 300 190 260 229 q 413 150 340 150 q 524 190 483 150 q 565 310 565 229 l 565 960 q 592 1002 565 989 q 656 1015 619 1015 q 717 1002 689 1015 q 746 960 746 989 l 746 310 q 701 124 746 194 q 581 23 657 54 q 413 -8 506 -8 m 507 -296 q 417 -280 453 -296 q 363 -235 382 -264 q 344 -171 344 -207 q 380 -57 344 -114 q 475 36 415 0 l 540 10 q 463 -65 494 -19 q 432 -154 432 -111 q 452 -202 432 -185 q 515 -219 472 -219 q 540 -233 532 -219 q 547 -260 547 -246 q 540 -285 547 -275 q 507 -296 532 -296 z "},"Ů":{"ha":825,"x_min":79,"x_max":746,"o":"m 413 -8 q 243 23 318 -8 q 124 124 168 54 q 79 310 79 194 l 79 960 q 107 1002 79 989 q 169 1015 135 1015 q 231 1002 203 1015 q 260 960 260 989 l 260 310 q 300 190 260 229 q 413 150 340 150 q 524 190 483 150 q 565 310 565 229 l 565 960 q 592 1002 565 989 q 656 1015 619 1015 q 717 1002 689 1015 q 746 960 746 989 l 746 310 q 701 124 746 194 q 581 23 657 54 q 413 -8 506 -8 m 411 1122 q 344 1142 375 1122 q 294 1194 313 1161 q 276 1263 276 1226 q 294 1329 276 1299 q 343 1380 313 1360 q 411 1400 374 1400 q 478 1381 447 1400 q 529 1331 510 1363 q 549 1263 549 1299 q 529 1194 549 1226 q 478 1142 510 1161 q 411 1122 447 1122 m 413 1194 q 456 1215 439 1194 q 474 1261 474 1236 q 456 1304 474 1285 q 413 1324 439 1324 q 366 1303 385 1324 q 347 1263 347 1283 q 367 1216 347 1238 q 413 1194 386 1194 z "},"Ũ":{"ha":825,"x_min":79,"x_max":746,"o":"m 413 -8 q 243 23 318 -8 q 124 124 168 54 q 79 310 79 194 l 79 960 q 107 1002 79 989 q 169 1015 135 1015 q 231 1002 203 1015 q 260 960 260 989 l 260 310 q 300 190 260 229 q 413 150 340 150 q 524 190 483 150 q 565 310 565 229 l 565 960 q 592 1002 565 989 q 656 1015 619 1015 q 717 1002 689 1015 q 746 960 746 989 l 746 310 q 701 124 746 194 q 581 23 657 54 q 413 -8 506 -8 m 531 1154 q 454 1165 486 1154 q 395 1185 422 1175 q 333 1194 368 1194 q 284 1186 304 1194 q 249 1169 264 1178 q 219 1161 233 1161 q 192 1172 201 1161 q 178 1198 182 1183 q 174 1219 174 1213 q 188 1270 174 1251 q 222 1299 201 1289 q 262 1311 242 1308 q 293 1314 282 1314 q 364 1304 335 1314 q 423 1284 393 1294 q 490 1274 453 1274 q 539 1282 519 1274 q 574 1299 558 1290 q 603 1307 589 1307 q 631 1295 622 1307 q 644 1269 640 1283 q 649 1249 649 1256 q 635 1197 649 1215 q 601 1169 621 1179 q 562 1157 582 1160 q 531 1154 542 1154 z "},"V":{"ha":797,"x_min":11,"x_max":785,"o":"m 399 -8 q 326 7 360 -8 q 283 53 292 22 l 14 926 q 11 940 11 936 q 29 979 11 963 q 74 1006 47 996 q 126 1015 101 1015 q 165 1008 149 1015 q 186 979 182 1000 l 399 226 l 610 979 q 633 1008 617 1000 q 671 1015 649 1015 q 722 1006 696 1015 q 767 979 749 996 q 785 940 785 963 q 784 934 785 938 q 783 926 783 931 l 515 53 q 473 7 507 22 q 399 -8 439 -8 z "},"W":{"ha":1224,"x_min":11,"x_max":1213,"o":"m 407 -8 q 333 7 368 -8 q 289 53 299 22 l 14 926 q 11 943 11 935 q 29 980 11 964 q 74 1006 47 996 q 126 1015 101 1015 q 165 1007 147 1015 q 186 979 182 999 l 406 226 l 524 710 q 556 747 531 735 q 611 760 582 760 q 669 747 643 760 q 700 710 694 735 l 818 226 l 1038 979 q 1060 1007 1043 999 q 1097 1015 1076 1015 q 1150 1006 1124 1015 q 1194 980 1176 996 q 1213 943 1213 964 q 1210 926 1213 935 l 935 53 q 890 7 924 22 q 817 -8 857 -8 q 743 7 778 -8 q 701 53 708 22 l 611 428 l 522 53 q 481 7 515 22 q 407 -8 446 -8 z "},"Ẃ":{"ha":1224,"x_min":11,"x_max":1213,"o":"m 407 -8 q 333 7 368 -8 q 289 53 299 22 l 14 926 q 11 943 11 935 q 29 980 11 964 q 74 1006 47 996 q 126 1015 101 1015 q 165 1007 147 1015 q 186 979 182 999 l 406 226 l 524 710 q 556 747 531 735 q 611 760 582 760 q 669 747 643 760 q 700 710 694 735 l 818 226 l 1038 979 q 1060 1007 1043 999 q 1097 1015 1076 1015 q 1150 1006 1124 1015 q 1194 980 1176 996 q 1213 943 1213 964 q 1210 926 1213 935 l 935 53 q 890 7 924 22 q 817 -8 857 -8 q 743 7 778 -8 q 701 53 708 22 l 611 428 l 522 53 q 481 7 515 22 q 407 -8 446 -8 m 564 1126 q 525 1149 542 1126 q 508 1194 508 1172 q 532 1238 508 1225 l 715 1326 q 733 1329 725 1329 q 773 1307 757 1329 q 789 1261 789 1285 q 764 1219 789 1232 l 583 1132 q 574 1128 578 1131 q 564 1126 569 1126 z "},"Ŵ":{"ha":1224,"x_min":11,"x_max":1213,"o":"m 407 -8 q 333 7 368 -8 q 289 53 299 22 l 14 926 q 11 943 11 935 q 29 980 11 964 q 74 1006 47 996 q 126 1015 101 1015 q 165 1007 147 1015 q 186 979 182 999 l 406 226 l 524 710 q 556 747 531 735 q 611 760 582 760 q 669 747 643 760 q 700 710 694 735 l 818 226 l 1038 979 q 1060 1007 1043 999 q 1097 1015 1076 1015 q 1150 1006 1124 1015 q 1194 980 1176 996 q 1213 943 1213 964 q 1210 926 1213 935 l 935 53 q 890 7 924 22 q 817 -8 857 -8 q 743 7 778 -8 q 701 53 708 22 l 611 428 l 522 53 q 481 7 515 22 q 407 -8 446 -8 m 453 1138 q 425 1155 436 1138 q 414 1193 414 1172 q 421 1222 414 1208 q 444 1244 428 1236 l 589 1322 q 613 1329 601 1329 q 636 1322 622 1329 l 781 1246 q 803 1223 797 1238 q 810 1192 810 1208 q 799 1155 810 1172 q 771 1138 789 1138 q 764 1139 768 1138 q 757 1142 760 1140 l 613 1219 l 468 1142 q 460 1139 464 1140 q 453 1138 456 1138 z "},"Ẅ":{"ha":1224,"x_min":11,"x_max":1213,"o":"m 407 -8 q 333 7 368 -8 q 289 53 299 22 l 14 926 q 11 943 11 935 q 29 980 11 964 q 74 1006 47 996 q 126 1015 101 1015 q 165 1007 147 1015 q 186 979 182 999 l 406 226 l 524 710 q 556 747 531 735 q 611 760 582 760 q 669 747 643 760 q 700 710 694 735 l 818 226 l 1038 979 q 1060 1007 1043 999 q 1097 1015 1076 1015 q 1150 1006 1124 1015 q 1194 980 1176 996 q 1213 943 1213 964 q 1210 926 1213 935 l 935 53 q 890 7 924 22 q 817 -8 857 -8 q 743 7 778 -8 q 701 53 708 22 l 611 428 l 522 53 q 481 7 515 22 q 407 -8 446 -8 m 715 1139 q 665 1161 686 1139 q 643 1213 643 1183 q 665 1263 643 1242 q 715 1285 686 1285 q 764 1263 743 1285 q 785 1213 785 1242 q 764 1161 785 1183 q 715 1139 743 1139 m 507 1139 q 457 1161 478 1139 q 436 1213 436 1183 q 457 1263 436 1242 q 507 1285 478 1285 q 556 1263 536 1285 q 576 1213 576 1242 q 556 1161 576 1183 q 507 1139 536 1139 z "},"Ẁ":{"ha":1224,"x_min":11,"x_max":1213,"o":"m 407 -8 q 333 7 368 -8 q 289 53 299 22 l 14 926 q 11 943 11 935 q 29 980 11 964 q 74 1006 47 996 q 126 1015 101 1015 q 165 1007 147 1015 q 186 979 182 999 l 406 226 l 524 710 q 556 747 531 735 q 611 760 582 760 q 669 747 643 760 q 700 710 694 735 l 818 226 l 1038 979 q 1060 1007 1043 999 q 1097 1015 1076 1015 q 1150 1006 1124 1015 q 1194 980 1176 996 q 1213 943 1213 964 q 1210 926 1213 935 l 935 53 q 890 7 924 22 q 817 -8 857 -8 q 743 7 778 -8 q 701 53 708 22 l 611 428 l 522 53 q 481 7 515 22 q 407 -8 446 -8 m 668 1126 q 658 1128 663 1126 q 649 1132 654 1131 l 468 1219 q 443 1261 443 1232 q 459 1307 443 1285 q 499 1329 475 1329 q 517 1326 507 1329 l 700 1238 q 724 1194 724 1225 q 708 1149 724 1172 q 668 1126 692 1126 z "},"X":{"ha":776,"x_min":17,"x_max":760,"o":"m 136 -7 q 83 6 111 -7 q 36 38 56 18 q 17 83 17 58 q 28 117 17 99 l 268 508 l 36 899 q 24 938 24 918 q 42 981 24 961 q 87 1011 60 1000 q 139 1022 114 1022 q 176 1012 161 1022 q 199 983 190 1001 l 388 643 l 578 983 q 602 1012 588 1001 q 638 1022 617 1022 q 690 1011 663 1022 q 735 981 717 1000 q 753 938 753 961 q 740 899 753 918 l 508 508 l 749 117 q 760 83 760 99 q 740 38 760 58 q 694 6 721 18 q 640 -7 667 -7 q 612 1 625 -7 q 592 22 599 10 l 388 379 l 185 22 q 165 1 178 10 q 136 -7 151 -7 z "},"Y":{"ha":794,"x_min":11,"x_max":783,"o":"m 397 0 q 335 15 364 0 q 307 57 307 29 l 307 407 q 303 425 307 417 l 15 922 q 12 933 13 928 q 11 940 11 938 q 31 979 11 963 q 78 1006 50 996 q 131 1015 106 1015 q 164 1006 153 1015 q 185 979 175 997 l 397 578 l 608 979 q 631 1006 619 997 q 664 1015 642 1015 q 716 1006 689 1015 q 763 979 743 996 q 783 940 783 963 q 783 933 783 938 q 779 922 782 928 l 492 425 q 488 407 488 417 l 488 57 q 459 15 488 29 q 397 0 431 0 z "},"Ý":{"ha":794,"x_min":11,"x_max":783,"o":"m 397 0 q 335 15 364 0 q 307 57 307 29 l 307 407 q 303 425 307 417 l 15 922 q 12 933 13 928 q 11 940 11 938 q 31 979 11 963 q 78 1006 50 996 q 131 1015 106 1015 q 164 1006 153 1015 q 185 979 175 997 l 397 578 l 608 979 q 631 1006 619 997 q 664 1015 642 1015 q 716 1006 689 1015 q 763 979 743 996 q 783 940 783 963 q 783 933 783 938 q 779 922 782 928 l 492 425 q 488 407 488 417 l 488 57 q 459 15 488 29 q 397 0 431 0 m 350 1126 q 311 1149 328 1126 q 294 1194 294 1172 q 318 1238 294 1225 l 501 1326 q 519 1329 511 1329 q 559 1307 543 1329 q 575 1261 575 1285 q 550 1219 575 1232 l 369 1132 q 360 1128 364 1131 q 350 1126 356 1126 z "},"Ŷ":{"ha":794,"x_min":11,"x_max":783,"o":"m 397 0 q 335 15 364 0 q 307 57 307 29 l 307 407 q 303 425 307 417 l 15 922 q 12 933 13 928 q 11 940 11 938 q 31 979 11 963 q 78 1006 50 996 q 131 1015 106 1015 q 164 1006 153 1015 q 185 979 175 997 l 397 578 l 608 979 q 631 1006 619 997 q 664 1015 642 1015 q 716 1006 689 1015 q 763 979 743 996 q 783 940 783 963 q 783 933 783 938 q 779 922 782 928 l 492 425 q 488 407 488 417 l 488 57 q 459 15 488 29 q 397 0 431 0 m 239 1138 q 211 1155 222 1138 q 200 1193 200 1172 q 207 1222 200 1208 q 231 1244 214 1236 l 375 1322 q 399 1329 388 1329 q 422 1322 408 1329 l 567 1246 q 590 1223 583 1238 q 596 1192 596 1208 q 585 1155 596 1172 q 557 1138 575 1138 q 550 1139 554 1138 q 543 1142 546 1140 l 399 1219 l 254 1142 q 246 1139 250 1140 q 239 1138 242 1138 z "},"Ÿ":{"ha":794,"x_min":11,"x_max":783,"o":"m 397 0 q 335 15 364 0 q 307 57 307 29 l 307 407 q 303 425 307 417 l 15 922 q 12 933 13 928 q 11 940 11 938 q 31 979 11 963 q 78 1006 50 996 q 131 1015 106 1015 q 164 1006 153 1015 q 185 979 175 997 l 397 578 l 608 979 q 631 1006 619 997 q 664 1015 642 1015 q 716 1006 689 1015 q 763 979 743 996 q 783 940 783 963 q 783 933 783 938 q 779 922 782 928 l 492 425 q 488 407 488 417 l 488 57 q 459 15 488 29 q 397 0 431 0 m 501 1139 q 451 1161 472 1139 q 429 1213 429 1183 q 451 1263 429 1242 q 501 1285 472 1285 q 550 1263 529 1285 q 571 1213 571 1242 q 550 1161 571 1183 q 501 1139 529 1139 m 293 1139 q 243 1161 264 1139 q 222 1213 222 1183 q 243 1263 222 1242 q 293 1285 264 1285 q 342 1263 322 1285 q 363 1213 363 1242 q 342 1161 363 1183 q 293 1139 322 1139 z "},"Ỵ":{"ha":707,"x_min":11,"x_max":783,"o":"m 397 0 q 335 15 364 0 q 307 57 307 29 l 307 407 q 303 425 307 417 l 15 922 q 12 933 13 928 q 11 940 11 938 q 31 979 11 963 q 78 1006 50 996 q 131 1015 106 1015 q 164 1006 153 1015 q 185 979 175 997 l 397 578 l 608 979 q 631 1006 619 997 q 664 1015 642 1015 q 716 1006 689 1015 q 763 979 743 996 q 783 940 783 963 q 783 933 783 938 q 779 922 782 928 l 492 425 q 488 407 488 417 l 488 57 q 459 15 488 29 q 397 0 431 0 m 375 -183 q 308 -155 335 -183 q 281 -89 281 -126 q 308 -22 281 -50 q 375 6 335 6 q 440 -22 413 6 q 468 -89 468 -50 q 440 -155 468 -126 q 375 -183 413 -183 z "},"Ỳ":{"ha":794,"x_min":11,"x_max":783,"o":"m 397 0 q 335 15 364 0 q 307 57 307 29 l 307 407 q 303 425 307 417 l 15 922 q 12 933 13 928 q 11 940 11 938 q 31 979 11 963 q 78 1006 50 996 q 131 1015 106 1015 q 164 1006 153 1015 q 185 979 175 997 l 397 578 l 608 979 q 631 1006 619 997 q 664 1015 642 1015 q 716 1006 689 1015 q 763 979 743 996 q 783 940 783 963 q 783 933 783 938 q 779 922 782 928 l 492 425 q 488 407 488 417 l 488 57 q 459 15 488 29 q 397 0 431 0 m 454 1126 q 444 1128 449 1126 q 435 1132 440 1131 l 254 1219 q 229 1261 229 1232 q 245 1307 229 1285 q 285 1329 261 1329 q 303 1326 293 1329 l 486 1238 q 510 1194 510 1225 q 494 1149 510 1172 q 454 1126 478 1126 z "},"Ỷ":{"ha":794,"x_min":11,"x_max":783,"o":"m 397 0 q 335 15 364 0 q 307 57 307 29 l 307 407 q 303 425 307 417 l 15 922 q 12 933 13 928 q 11 940 11 938 q 31 979 11 963 q 78 1006 50 996 q 131 1015 106 1015 q 164 1006 153 1015 q 185 979 175 997 l 397 578 l 608 979 q 631 1006 619 997 q 664 1015 642 1015 q 716 1006 689 1015 q 763 979 743 996 q 783 940 783 963 q 783 933 783 938 q 779 922 782 928 l 492 425 q 488 407 488 417 l 488 57 q 459 15 488 29 q 397 0 431 0 m 281 1318 q 323 1345 300 1335 q 378 1356 346 1356 q 453 1338 428 1356 q 490 1297 479 1321 q 500 1250 500 1272 q 493 1213 500 1229 q 471 1179 486 1196 q 452 1156 460 1167 q 444 1136 444 1146 q 433 1113 444 1122 q 406 1104 422 1104 q 380 1113 392 1104 q 368 1136 368 1122 q 374 1160 368 1149 q 388 1186 379 1172 q 410 1215 400 1201 q 419 1240 419 1229 q 406 1267 419 1257 q 375 1276 393 1276 q 345 1269 358 1276 q 321 1254 332 1263 q 299 1247 311 1247 q 272 1261 286 1246 q 263 1292 257 1275 q 281 1318 268 1308 z "},"Ỹ":{"ha":794,"x_min":11,"x_max":783,"o":"m 397 0 q 335 15 364 0 q 307 57 307 29 l 307 407 q 303 425 307 417 l 15 922 q 12 933 13 928 q 11 940 11 938 q 31 979 11 963 q 78 1006 50 996 q 131 1015 106 1015 q 164 1006 153 1015 q 185 979 175 997 l 397 578 l 608 979 q 631 1006 619 997 q 664 1015 642 1015 q 716 1006 689 1015 q 763 979 743 996 q 783 940 783 963 q 783 933 783 938 q 779 922 782 928 l 492 425 q 488 407 488 417 l 488 57 q 459 15 488 29 q 397 0 431 0 m 517 1154 q 440 1165 472 1154 q 381 1185 408 1175 q 319 1194 354 1194 q 270 1186 290 1194 q 235 1169 250 1178 q 206 1161 219 1161 q 178 1172 188 1161 q 164 1198 168 1183 q 160 1219 160 1213 q 174 1270 160 1251 q 208 1299 188 1289 q 248 1311 228 1308 q 279 1314 268 1314 q 350 1304 321 1314 q 409 1284 379 1294 q 476 1274 439 1274 q 525 1282 506 1274 q 560 1299 544 1290 q 589 1307 575 1307 q 617 1295 608 1307 q 631 1269 626 1283 q 635 1249 635 1256 q 621 1197 635 1215 q 588 1169 607 1179 q 548 1157 568 1160 q 517 1154 528 1154 z "},"Z":{"ha":722,"x_min":18,"x_max":706,"o":"m 72 0 q 31 14 44 0 q 18 50 18 28 q 38 113 18 79 l 450 857 l 99 857 q 58 881 72 857 q 43 936 43 904 q 56 990 43 965 q 99 1015 69 1015 l 626 1015 q 667 1001 654 1015 q 681 967 681 988 q 660 901 681 938 l 249 158 l 649 158 q 691 133 676 158 q 706 79 706 107 q 691 26 706 51 q 649 0 676 0 l 72 0 z "},"Ź":{"ha":722,"x_min":18,"x_max":706,"o":"m 72 0 q 31 14 44 0 q 18 50 18 28 q 38 113 18 79 l 450 857 l 99 857 q 58 881 72 857 q 43 936 43 904 q 56 990 43 965 q 99 1015 69 1015 l 626 1015 q 667 1001 654 1015 q 681 967 681 988 q 660 901 681 938 l 249 158 l 649 158 q 691 133 676 158 q 706 79 706 107 q 691 26 706 51 q 649 0 676 0 l 72 0 m 311 1126 q 272 1149 289 1126 q 256 1194 256 1172 q 279 1238 256 1225 l 463 1326 q 481 1329 472 1329 q 520 1307 504 1329 q 536 1261 536 1285 q 511 1219 536 1232 l 331 1132 q 321 1128 325 1131 q 311 1126 317 1126 z "},"Ž":{"ha":722,"x_min":18,"x_max":706,"o":"m 72 0 q 31 14 44 0 q 18 50 18 28 q 38 113 18 79 l 450 857 l 99 857 q 58 881 72 857 q 43 936 43 904 q 56 990 43 965 q 99 1015 69 1015 l 626 1015 q 667 1001 654 1015 q 681 967 681 988 q 660 901 681 938 l 249 158 l 649 158 q 691 133 676 158 q 706 79 706 107 q 691 26 706 51 q 649 0 676 0 l 72 0 m 358 1147 q 333 1156 347 1147 l 190 1247 q 167 1270 175 1257 q 160 1300 160 1283 q 171 1337 160 1319 q 199 1354 182 1354 q 215 1349 207 1354 l 358 1257 l 500 1349 q 517 1354 510 1354 q 545 1337 535 1354 q 556 1300 556 1319 q 549 1270 556 1283 q 526 1247 543 1257 l 383 1156 q 358 1147 368 1147 z "},"Ż":{"ha":722,"x_min":18,"x_max":706,"o":"m 72 0 q 31 14 44 0 q 18 50 18 28 q 38 113 18 79 l 450 857 l 99 857 q 58 881 72 857 q 43 936 43 904 q 56 990 43 965 q 99 1015 69 1015 l 626 1015 q 667 1001 654 1015 q 681 967 681 988 q 660 901 681 938 l 249 158 l 649 158 q 691 133 676 158 q 706 79 706 107 q 691 26 706 51 q 649 0 676 0 l 72 0 m 358 1140 q 308 1163 329 1140 q 286 1214 286 1185 q 308 1265 286 1243 q 358 1288 329 1288 q 408 1265 388 1288 q 429 1214 429 1243 q 408 1163 429 1185 q 358 1140 388 1140 z "},"a":{"ha":654,"x_min":31,"x_max":590,"o":"m 211 -12 q 84 33 138 -12 q 31 172 31 78 q 72 296 31 251 q 185 358 113 340 q 354 376 258 376 l 411 376 l 411 394 q 399 454 411 425 q 362 503 388 483 q 289 522 336 522 q 208 512 236 522 q 164 490 179 501 q 131 479 149 479 q 85 508 101 479 q 69 568 69 538 q 105 620 69 597 q 192 656 140 643 q 292 668 243 668 q 465 629 400 668 q 560 529 531 590 q 590 397 590 468 l 590 57 q 565 17 590 33 q 503 0 540 0 q 445 17 468 0 q 422 57 422 33 l 422 97 q 334 21 385 54 q 211 -12 283 -12 m 283 121 q 342 140 313 121 q 391 190 371 160 q 411 254 411 221 l 411 283 l 390 283 q 303 278 344 283 q 235 253 261 272 q 210 196 210 235 q 231 139 210 157 q 283 121 253 121 z "},"á":{"ha":654,"x_min":31,"x_max":590,"o":"m 211 -12 q 84 33 138 -12 q 31 172 31 78 q 72 296 31 251 q 185 358 113 340 q 354 376 258 376 l 411 376 l 411 394 q 399 454 411 425 q 362 503 388 483 q 289 522 336 522 q 208 512 236 522 q 164 490 179 501 q 131 479 149 479 q 85 508 101 479 q 69 568 69 538 q 105 620 69 597 q 192 656 140 643 q 292 668 243 668 q 465 629 400 668 q 560 529 531 590 q 590 397 590 468 l 590 57 q 565 17 590 33 q 503 0 540 0 q 445 17 468 0 q 422 57 422 33 l 422 97 q 334 21 385 54 q 211 -12 283 -12 m 283 121 q 342 140 313 121 q 391 190 371 160 q 411 254 411 221 l 411 283 l 390 283 q 303 278 344 283 q 235 253 261 272 q 210 196 210 235 q 231 139 210 157 q 283 121 253 121 m 260 783 q 221 806 238 783 q 204 851 204 829 q 228 894 204 882 l 411 983 q 429 986 421 986 q 469 964 453 986 q 485 918 485 942 q 460 876 485 889 l 279 789 q 269 785 274 788 q 260 783 265 783 z "},"ă":{"ha":654,"x_min":31,"x_max":590,"o":"m 211 -12 q 84 33 138 -12 q 31 172 31 78 q 72 296 31 251 q 185 358 113 340 q 354 376 258 376 l 411 376 l 411 394 q 399 454 411 425 q 362 503 388 483 q 289 522 336 522 q 208 512 236 522 q 164 490 179 501 q 131 479 149 479 q 85 508 101 479 q 69 568 69 538 q 105 620 69 597 q 192 656 140 643 q 292 668 243 668 q 465 629 400 668 q 560 529 531 590 q 590 397 590 468 l 590 57 q 565 17 590 33 q 503 0 540 0 q 445 17 468 0 q 422 57 422 33 l 422 97 q 334 21 385 54 q 211 -12 283 -12 m 283 121 q 342 140 313 121 q 391 190 371 160 q 411 254 411 221 l 411 283 l 390 283 q 303 278 344 283 q 235 253 261 272 q 210 196 210 235 q 231 139 210 157 q 283 121 253 121 m 306 811 q 192 853 244 811 q 125 956 140 896 q 131 985 121 975 q 161 996 142 996 l 183 996 q 209 987 200 996 q 224 963 218 978 q 256 911 232 931 q 306 892 281 892 q 356 911 333 892 q 388 963 378 931 q 402 987 393 978 q 428 996 411 996 l 450 996 q 479 985 468 996 q 485 954 490 974 q 418 853 469 896 q 306 811 367 811 z "},"ắ":{"ha":654,"x_min":31,"x_max":590,"o":"m 211 -12 q 84 33 138 -12 q 31 172 31 78 q 72 296 31 251 q 185 358 113 340 q 354 376 258 376 l 411 376 l 411 394 q 399 454 411 425 q 362 503 388 483 q 289 522 336 522 q 208 512 236 522 q 164 490 179 501 q 131 479 149 479 q 85 508 101 479 q 69 568 69 538 q 105 620 69 597 q 192 656 140 643 q 292 668 243 668 q 465 629 400 668 q 560 529 531 590 q 590 397 590 468 l 590 57 q 565 17 590 33 q 503 0 540 0 q 445 17 468 0 q 422 57 422 33 l 422 97 q 334 21 385 54 q 211 -12 283 -12 m 283 121 q 342 140 313 121 q 391 190 371 160 q 411 254 411 221 l 411 283 l 390 283 q 303 278 344 283 q 235 253 261 272 q 210 196 210 235 q 231 139 210 157 q 283 121 253 121 m 306 763 q 192 805 244 763 q 125 907 140 847 q 131 937 121 926 q 161 947 142 947 l 183 947 q 209 938 200 947 q 224 914 218 929 q 256 863 232 882 q 306 843 281 843 q 356 863 333 843 q 388 914 378 882 q 402 938 393 929 q 428 947 411 947 l 450 947 q 479 936 468 947 q 485 906 490 925 q 418 805 469 847 q 306 763 367 763 m 278 993 q 239 1016 256 993 q 222 1061 222 1039 q 246 1104 222 1092 l 429 1193 q 447 1196 439 1196 q 487 1174 471 1196 q 503 1128 503 1151 q 478 1086 503 1099 l 297 999 q 288 995 292 997 q 278 993 283 993 z "},"ặ":{"ha":588,"x_min":31,"x_max":590,"o":"m 211 -12 q 84 33 138 -12 q 31 172 31 78 q 72 296 31 251 q 185 358 113 340 q 354 376 258 376 l 411 376 l 411 394 q 399 454 411 425 q 362 503 388 483 q 289 522 336 522 q 208 512 236 522 q 164 490 179 501 q 131 479 149 479 q 85 508 101 479 q 69 568 69 538 q 105 620 69 597 q 192 656 140 643 q 292 668 243 668 q 465 629 400 668 q 560 529 531 590 q 590 397 590 468 l 590 57 q 565 17 590 33 q 503 0 540 0 q 445 17 468 0 q 422 57 422 33 l 422 97 q 334 21 385 54 q 211 -12 283 -12 m 283 121 q 342 140 313 121 q 391 190 371 160 q 411 254 411 221 l 411 283 l 390 283 q 303 278 344 283 q 235 253 261 272 q 210 196 210 235 q 231 139 210 157 q 283 121 253 121 m 315 -183 q 248 -155 275 -183 q 221 -89 221 -126 q 248 -22 221 -50 q 315 6 275 6 q 381 -22 353 6 q 408 -89 408 -50 q 381 -155 408 -126 q 315 -183 353 -183 m 328 817 q 215 859 267 817 q 147 961 163 901 q 153 991 143 981 q 183 1001 164 1001 l 206 1001 q 231 992 222 1001 q 246 968 240 983 q 278 917 254 936 q 328 897 303 897 q 378 917 356 897 q 410 968 400 936 q 424 992 415 983 q 450 1001 433 1001 l 472 1001 q 501 990 490 1001 q 507 960 513 979 q 440 859 492 901 q 328 817 389 817 z "},"ằ":{"ha":654,"x_min":31,"x_max":590,"o":"m 211 -12 q 84 33 138 -12 q 31 172 31 78 q 72 296 31 251 q 185 358 113 340 q 354 376 258 376 l 411 376 l 411 394 q 399 454 411 425 q 362 503 388 483 q 289 522 336 522 q 208 512 236 522 q 164 490 179 501 q 131 479 149 479 q 85 508 101 479 q 69 568 69 538 q 105 620 69 597 q 192 656 140 643 q 292 668 243 668 q 465 629 400 668 q 560 529 531 590 q 590 397 590 468 l 590 57 q 565 17 590 33 q 503 0 540 0 q 445 17 468 0 q 422 57 422 33 l 422 97 q 334 21 385 54 q 211 -12 283 -12 m 283 121 q 342 140 313 121 q 391 190 371 160 q 411 254 411 221 l 411 283 l 390 283 q 303 278 344 283 q 235 253 261 272 q 210 196 210 235 q 231 139 210 157 q 283 121 253 121 m 300 764 q 187 806 239 764 q 119 908 135 849 q 126 938 115 928 q 156 949 136 949 l 178 949 q 203 940 194 949 q 218 915 213 931 q 251 864 226 883 q 300 844 275 844 q 350 864 328 844 q 382 915 372 883 q 397 940 388 931 q 422 949 406 949 l 444 949 q 474 938 463 949 q 479 907 485 926 q 413 806 464 849 q 300 764 361 764 m 307 971 q 297 973 301 971 q 288 976 293 975 l 107 1064 q 82 1106 82 1076 q 98 1151 82 1129 q 138 1174 114 1174 q 156 1171 146 1174 l 339 1082 q 363 1039 363 1069 q 347 994 363 1017 q 307 971 331 971 z "},"ẳ":{"ha":654,"x_min":31,"x_max":590,"o":"m 211 -12 q 84 33 138 -12 q 31 172 31 78 q 72 296 31 251 q 185 358 113 340 q 354 376 258 376 l 411 376 l 411 394 q 399 454 411 425 q 362 503 388 483 q 289 522 336 522 q 208 512 236 522 q 164 490 179 501 q 131 479 149 479 q 85 508 101 479 q 69 568 69 538 q 105 620 69 597 q 192 656 140 643 q 292 668 243 668 q 465 629 400 668 q 560 529 531 590 q 590 397 590 468 l 590 57 q 565 17 590 33 q 503 0 540 0 q 445 17 468 0 q 422 57 422 33 l 422 97 q 334 21 385 54 q 211 -12 283 -12 m 283 121 q 342 140 313 121 q 391 190 371 160 q 411 254 411 221 l 411 283 l 390 283 q 303 278 344 283 q 235 253 261 272 q 210 196 210 235 q 231 139 210 157 q 283 121 253 121 m 306 763 q 192 805 244 763 q 125 907 140 847 q 131 937 121 926 q 161 947 142 947 l 183 947 q 209 938 200 947 q 224 914 218 929 q 256 863 232 882 q 306 843 281 843 q 356 863 333 843 q 388 914 378 882 q 402 938 393 929 q 428 947 411 947 l 450 947 q 479 936 468 947 q 485 906 490 925 q 418 805 469 847 q 306 763 367 763 m 185 1151 q 227 1178 204 1168 q 282 1189 250 1189 q 358 1172 332 1189 q 394 1130 383 1154 q 404 1083 404 1106 q 397 1046 404 1063 q 375 1013 390 1029 q 356 990 364 1000 q 349 969 349 979 q 338 947 349 956 q 310 938 326 938 q 284 947 296 938 q 272 969 272 956 q 278 994 272 982 q 292 1019 283 1006 q 314 1049 304 1035 q 324 1074 324 1063 q 310 1100 324 1090 q 279 1110 297 1110 q 249 1103 263 1110 q 225 1088 236 1096 q 203 1080 215 1081 q 176 1094 190 1079 q 167 1125 161 1108 q 185 1151 172 1142 z "},"ẵ":{"ha":588,"x_min":31,"x_max":590,"o":"m 211 -12 q 84 33 138 -12 q 31 172 31 78 q 72 296 31 251 q 185 358 113 340 q 354 376 258 376 l 411 376 l 411 394 q 399 454 411 425 q 362 503 388 483 q 289 522 336 522 q 208 512 236 522 q 164 490 179 501 q 131 479 149 479 q 85 508 101 479 q 69 568 69 538 q 105 620 69 597 q 192 656 140 643 q 292 668 243 668 q 465 629 400 668 q 560 529 531 590 q 590 397 590 468 l 590 57 q 565 17 590 33 q 503 0 540 0 q 445 17 468 0 q 422 57 422 33 l 422 97 q 334 21 385 54 q 211 -12 283 -12 m 283 121 q 342 140 313 121 q 391 190 371 160 q 411 254 411 221 l 411 283 l 390 283 q 303 278 344 283 q 235 253 261 272 q 210 196 210 235 q 231 139 210 157 q 283 121 253 121 m 328 751 q 215 794 267 751 q 147 896 163 836 q 153 926 143 915 q 183 936 164 936 l 206 936 q 231 927 222 936 q 246 903 240 918 q 278 851 254 871 q 328 832 303 832 q 378 851 356 832 q 410 903 400 871 q 424 927 415 918 q 450 936 433 936 l 472 936 q 501 925 490 936 q 507 894 513 914 q 440 794 492 836 q 328 751 389 751 m 446 914 q 369 924 401 914 q 310 944 338 935 q 249 954 283 954 q 199 946 219 954 q 164 929 179 938 q 135 921 149 921 q 107 932 117 921 q 93 958 97 943 q 89 979 89 972 q 103 1030 89 1011 q 137 1058 117 1049 q 177 1071 157 1068 q 208 1074 197 1074 q 279 1064 250 1074 q 338 1044 308 1054 q 406 1033 368 1033 q 454 1042 435 1033 q 489 1058 474 1050 q 518 1067 504 1067 q 547 1055 538 1067 q 560 1029 556 1043 q 564 1008 564 1015 q 550 957 564 975 q 517 929 536 939 q 477 917 497 919 q 446 914 457 914 z "},"â":{"ha":654,"x_min":31,"x_max":590,"o":"m 211 -12 q 84 33 138 -12 q 31 172 31 78 q 72 296 31 251 q 185 358 113 340 q 354 376 258 376 l 411 376 l 411 394 q 399 454 411 425 q 362 503 388 483 q 289 522 336 522 q 208 512 236 522 q 164 490 179 501 q 131 479 149 479 q 85 508 101 479 q 69 568 69 538 q 105 620 69 597 q 192 656 140 643 q 292 668 243 668 q 465 629 400 668 q 560 529 531 590 q 590 397 590 468 l 590 57 q 565 17 590 33 q 503 0 540 0 q 445 17 468 0 q 422 57 422 33 l 422 97 q 334 21 385 54 q 211 -12 283 -12 m 283 121 q 342 140 313 121 q 391 190 371 160 q 411 254 411 221 l 411 283 l 390 283 q 303 278 344 283 q 235 253 261 272 q 210 196 210 235 q 231 139 210 157 q 283 121 253 121 m 147 793 q 119 810 131 793 q 108 849 108 828 q 115 878 108 864 q 139 900 122 892 l 283 978 q 307 985 296 985 q 331 978 317 985 l 475 901 q 498 878 492 893 q 504 847 504 864 q 494 810 504 828 q 465 793 483 793 q 458 794 463 793 q 451 797 454 796 l 307 875 l 163 797 q 154 794 158 796 q 147 793 150 793 z "},"ấ":{"ha":588,"x_min":31,"x_max":590,"o":"m 211 -12 q 84 33 138 -12 q 31 172 31 78 q 72 296 31 251 q 185 358 113 340 q 354 376 258 376 l 411 376 l 411 394 q 399 454 411 425 q 362 503 388 483 q 289 522 336 522 q 208 512 236 522 q 164 490 179 501 q 131 479 149 479 q 85 508 101 479 q 69 568 69 538 q 105 620 69 597 q 192 656 140 643 q 292 668 243 668 q 465 629 400 668 q 560 529 531 590 q 590 397 590 468 l 590 57 q 565 17 590 33 q 503 0 540 0 q 445 17 468 0 q 422 57 422 33 l 422 97 q 334 21 385 54 q 211 -12 283 -12 m 283 121 q 342 140 313 121 q 391 190 371 160 q 411 254 411 221 l 411 283 l 390 283 q 303 278 344 283 q 235 253 261 272 q 210 196 210 235 q 231 139 210 157 q 283 121 253 121 m 183 735 q 156 752 168 735 q 144 790 144 769 q 175 842 144 822 l 289 919 q 313 926 300 926 q 336 919 325 926 l 449 843 q 479 789 479 822 q 468 752 479 769 q 440 735 457 735 q 433 736 438 735 q 425 739 429 738 l 313 817 l 199 739 q 190 736 194 738 q 183 735 186 735 m 263 875 q 224 898 240 875 q 207 943 207 921 q 231 986 207 974 l 414 1075 q 432 1078 424 1078 q 472 1056 456 1078 q 488 1010 488 1033 q 463 968 488 981 l 282 881 q 272 877 276 879 q 263 875 268 875 z "},"ậ":{"ha":588,"x_min":31,"x_max":590,"o":"m 211 -12 q 84 33 138 -12 q 31 172 31 78 q 72 296 31 251 q 185 358 113 340 q 354 376 258 376 l 411 376 l 411 394 q 399 454 411 425 q 362 503 388 483 q 289 522 336 522 q 208 512 236 522 q 164 490 179 501 q 131 479 149 479 q 85 508 101 479 q 69 568 69 538 q 105 620 69 597 q 192 656 140 643 q 292 668 243 668 q 465 629 400 668 q 560 529 531 590 q 590 397 590 468 l 590 57 q 565 17 590 33 q 503 0 540 0 q 445 17 468 0 q 422 57 422 33 l 422 97 q 334 21 385 54 q 211 -12 283 -12 m 283 121 q 342 140 313 121 q 391 190 371 160 q 411 254 411 221 l 411 283 l 390 283 q 303 278 344 283 q 235 253 261 272 q 210 196 210 235 q 231 139 210 157 q 283 121 253 121 m 315 -183 q 248 -155 275 -183 q 221 -89 221 -126 q 248 -22 221 -50 q 315 6 275 6 q 381 -22 353 6 q 408 -89 408 -50 q 381 -155 408 -126 q 315 -183 353 -183 m 153 800 q 125 817 136 800 q 114 856 114 835 q 121 885 114 871 q 144 907 128 899 l 289 985 q 313 992 301 992 q 336 985 322 992 l 481 908 q 503 885 497 900 q 510 854 510 871 q 499 817 510 835 q 471 800 489 800 q 464 801 468 800 q 457 804 460 803 l 313 882 l 168 804 q 160 801 164 803 q 153 800 156 800 z "},"ầ":{"ha":588,"x_min":31,"x_max":590,"o":"m 211 -12 q 84 33 138 -12 q 31 172 31 78 q 72 296 31 251 q 185 358 113 340 q 354 376 258 376 l 411 376 l 411 394 q 399 454 411 425 q 362 503 388 483 q 289 522 336 522 q 208 512 236 522 q 164 490 179 501 q 131 479 149 479 q 85 508 101 479 q 69 568 69 538 q 105 620 69 597 q 192 656 140 643 q 292 668 243 668 q 465 629 400 668 q 560 529 531 590 q 590 397 590 468 l 590 57 q 565 17 590 33 q 503 0 540 0 q 445 17 468 0 q 422 57 422 33 l 422 97 q 334 21 385 54 q 211 -12 283 -12 m 283 121 q 342 140 313 121 q 391 190 371 160 q 411 254 411 221 l 411 283 l 390 283 q 303 278 344 283 q 235 253 261 272 q 210 196 210 235 q 231 139 210 157 q 283 121 253 121 m 183 738 q 156 755 168 738 q 144 793 144 772 q 175 844 144 825 l 289 922 q 313 929 300 929 q 336 922 325 929 l 449 846 q 479 792 479 825 q 468 755 479 772 q 440 738 457 738 q 433 739 438 738 q 425 742 429 740 l 313 819 l 199 742 q 190 739 194 740 q 183 738 186 738 m 442 872 q 432 874 436 872 q 422 878 428 876 l 242 965 q 217 1007 217 978 q 233 1053 217 1031 q 272 1075 249 1075 q 290 1072 281 1075 l 474 983 q 497 940 497 971 q 481 895 497 918 q 442 872 465 872 z "},"ẩ":{"ha":654,"x_min":31,"x_max":590,"o":"m 211 -12 q 84 33 138 -12 q 31 172 31 78 q 72 296 31 251 q 185 358 113 340 q 354 376 258 376 l 411 376 l 411 394 q 399 454 411 425 q 362 503 388 483 q 289 522 336 522 q 208 512 236 522 q 164 490 179 501 q 131 479 149 479 q 85 508 101 479 q 69 568 69 538 q 105 620 69 597 q 192 656 140 643 q 292 668 243 668 q 465 629 400 668 q 560 529 531 590 q 590 397 590 468 l 590 57 q 565 17 590 33 q 503 0 540 0 q 445 17 468 0 q 422 57 422 33 l 422 97 q 334 21 385 54 q 211 -12 283 -12 m 283 121 q 342 140 313 121 q 391 190 371 160 q 411 254 411 221 l 411 283 l 390 283 q 303 278 344 283 q 235 253 261 272 q 210 196 210 235 q 231 139 210 157 q 283 121 253 121 m 178 764 q 151 781 163 764 q 139 819 139 799 q 169 871 139 851 l 283 949 q 307 956 294 956 q 331 949 319 956 l 443 872 q 474 818 474 851 q 463 781 474 799 q 435 764 451 764 q 428 765 432 764 q 419 768 424 767 l 307 846 l 193 768 q 185 765 189 767 q 178 764 181 764 m 367 1111 q 409 1138 386 1128 q 464 1149 432 1149 q 540 1131 514 1149 q 576 1090 565 1114 q 586 1043 586 1065 q 579 1006 586 1022 q 557 972 572 989 q 538 949 546 960 q 531 929 531 939 q 519 906 531 915 q 492 897 508 897 q 466 906 478 897 q 454 929 454 915 q 460 953 454 942 q 474 979 465 965 q 496 1008 486 994 q 506 1033 506 1022 q 492 1060 506 1050 q 461 1069 479 1069 q 431 1063 444 1069 q 407 1047 418 1056 q 385 1040 397 1040 q 358 1054 372 1039 q 349 1085 343 1068 q 367 1111 354 1101 z "},"ẫ":{"ha":588,"x_min":31,"x_max":590,"o":"m 211 -12 q 84 33 138 -12 q 31 172 31 78 q 72 296 31 251 q 185 358 113 340 q 354 376 258 376 l 411 376 l 411 394 q 399 454 411 425 q 362 503 388 483 q 289 522 336 522 q 208 512 236 522 q 164 490 179 501 q 131 479 149 479 q 85 508 101 479 q 69 568 69 538 q 105 620 69 597 q 192 656 140 643 q 292 668 243 668 q 465 629 400 668 q 560 529 531 590 q 590 397 590 468 l 590 57 q 565 17 590 33 q 503 0 540 0 q 445 17 468 0 q 422 57 422 33 l 422 97 q 334 21 385 54 q 211 -12 283 -12 m 283 121 q 342 140 313 121 q 391 190 371 160 q 411 254 411 221 l 411 283 l 390 283 q 303 278 344 283 q 235 253 261 272 q 210 196 210 235 q 231 139 210 157 q 283 121 253 121 m 183 735 q 156 752 168 735 q 144 790 144 769 q 175 842 144 822 l 289 919 q 313 926 300 926 q 336 919 325 926 l 449 843 q 479 789 479 822 q 468 752 479 769 q 440 735 457 735 q 433 736 438 735 q 425 739 429 738 l 313 817 l 199 739 q 190 736 194 738 q 183 735 186 735 m 446 868 q 369 878 401 868 q 310 899 338 889 q 249 908 283 908 q 199 900 219 908 q 164 883 179 892 q 135 875 149 875 q 107 886 117 875 q 93 912 97 897 q 89 933 89 926 q 103 984 89 965 q 137 1013 117 1003 q 177 1025 157 1022 q 208 1028 197 1028 q 279 1018 250 1028 q 338 998 308 1008 q 406 988 368 988 q 454 996 435 988 q 489 1013 474 1004 q 518 1021 504 1021 q 547 1009 538 1021 q 560 983 556 997 q 564 963 564 969 q 550 911 564 929 q 517 883 536 893 q 477 871 497 874 q 446 868 457 868 z "},"ä":{"ha":654,"x_min":31,"x_max":590,"o":"m 211 -12 q 84 33 138 -12 q 31 172 31 78 q 72 296 31 251 q 185 358 113 340 q 354 376 258 376 l 411 376 l 411 394 q 399 454 411 425 q 362 503 388 483 q 289 522 336 522 q 208 512 236 522 q 164 490 179 501 q 131 479 149 479 q 85 508 101 479 q 69 568 69 538 q 105 620 69 597 q 192 656 140 643 q 292 668 243 668 q 465 629 400 668 q 560 529 531 590 q 590 397 590 468 l 590 57 q 565 17 590 33 q 503 0 540 0 q 445 17 468 0 q 422 57 422 33 l 422 97 q 334 21 385 54 q 211 -12 283 -12 m 283 121 q 342 140 313 121 q 391 190 371 160 q 411 254 411 221 l 411 283 l 390 283 q 303 278 344 283 q 235 253 261 272 q 210 196 210 235 q 231 139 210 157 q 283 121 253 121 m 410 794 q 359 817 381 794 q 338 868 338 839 q 359 919 338 897 q 410 940 381 940 q 458 919 438 940 q 479 868 479 897 q 458 817 479 839 q 410 794 438 794 m 201 794 q 151 817 172 794 q 131 868 131 839 q 151 919 131 897 q 201 940 172 940 q 251 919 231 940 q 271 868 271 897 q 251 817 271 839 q 201 794 231 794 z "},"ạ":{"ha":588,"x_min":31,"x_max":590,"o":"m 211 -12 q 84 33 138 -12 q 31 172 31 78 q 72 296 31 251 q 185 358 113 340 q 354 376 258 376 l 411 376 l 411 394 q 399 454 411 425 q 362 503 388 483 q 289 522 336 522 q 208 512 236 522 q 164 490 179 501 q 131 479 149 479 q 85 508 101 479 q 69 568 69 538 q 105 620 69 597 q 192 656 140 643 q 292 668 243 668 q 465 629 400 668 q 560 529 531 590 q 590 397 590 468 l 590 57 q 565 17 590 33 q 503 0 540 0 q 445 17 468 0 q 422 57 422 33 l 422 97 q 334 21 385 54 q 211 -12 283 -12 m 283 121 q 342 140 313 121 q 391 190 371 160 q 411 254 411 221 l 411 283 l 390 283 q 303 278 344 283 q 235 253 261 272 q 210 196 210 235 q 231 139 210 157 q 283 121 253 121 m 315 -183 q 248 -155 275 -183 q 221 -89 221 -126 q 248 -22 221 -50 q 315 6 275 6 q 381 -22 353 6 q 408 -89 408 -50 q 381 -155 408 -126 q 315 -183 353 -183 z "},"à":{"ha":654,"x_min":31,"x_max":590,"o":"m 211 -12 q 84 33 138 -12 q 31 172 31 78 q 72 296 31 251 q 185 358 113 340 q 354 376 258 376 l 411 376 l 411 394 q 399 454 411 425 q 362 503 388 483 q 289 522 336 522 q 208 512 236 522 q 164 490 179 501 q 131 479 149 479 q 85 508 101 479 q 69 568 69 538 q 105 620 69 597 q 192 656 140 643 q 292 668 243 668 q 465 629 400 668 q 560 529 531 590 q 590 397 590 468 l 590 57 q 565 17 590 33 q 503 0 540 0 q 445 17 468 0 q 422 57 422 33 l 422 97 q 334 21 385 54 q 211 -12 283 -12 m 283 121 q 342 140 313 121 q 391 190 371 160 q 411 254 411 221 l 411 283 l 390 283 q 303 278 344 283 q 235 253 261 272 q 210 196 210 235 q 231 139 210 157 q 283 121 253 121 m 363 782 q 353 784 357 782 q 343 788 349 786 l 163 875 q 138 917 138 888 q 153 963 138 940 q 193 985 169 985 q 211 982 201 985 l 394 893 q 418 850 418 881 q 402 805 418 828 q 363 782 386 782 z "},"ả":{"ha":654,"x_min":31,"x_max":590,"o":"m 211 -12 q 84 33 138 -12 q 31 172 31 78 q 72 296 31 251 q 185 358 113 340 q 354 376 258 376 l 411 376 l 411 394 q 399 454 411 425 q 362 503 388 483 q 289 522 336 522 q 208 512 236 522 q 164 490 179 501 q 131 479 149 479 q 85 508 101 479 q 69 568 69 538 q 105 620 69 597 q 192 656 140 643 q 292 668 243 668 q 465 629 400 668 q 560 529 531 590 q 590 397 590 468 l 590 57 q 565 17 590 33 q 503 0 540 0 q 445 17 468 0 q 422 57 422 33 l 422 97 q 334 21 385 54 q 211 -12 283 -12 m 283 121 q 342 140 313 121 q 391 190 371 160 q 411 254 411 221 l 411 283 l 390 283 q 303 278 344 283 q 235 253 261 272 q 210 196 210 235 q 231 139 210 157 q 283 121 253 121 m 189 975 q 231 1002 208 992 q 286 1013 254 1013 q 362 995 336 1013 q 398 953 388 978 q 408 907 408 929 q 401 869 408 886 q 379 836 394 853 q 360 813 368 824 q 353 793 353 803 q 342 770 353 779 q 314 761 331 761 q 288 770 300 761 q 276 793 276 779 q 282 817 276 806 q 296 843 288 829 q 318 872 308 858 q 328 897 328 886 q 315 924 328 914 q 283 933 301 933 q 253 926 267 933 q 229 911 240 919 q 207 903 219 904 q 181 918 194 903 q 171 949 165 932 q 189 975 176 965 z "},"ā":{"ha":654,"x_min":31,"x_max":590,"o":"m 211 -12 q 84 33 138 -12 q 31 172 31 78 q 72 296 31 251 q 185 358 113 340 q 354 376 258 376 l 411 376 l 411 394 q 399 454 411 425 q 362 503 388 483 q 289 522 336 522 q 208 512 236 522 q 164 490 179 501 q 131 479 149 479 q 85 508 101 479 q 69 568 69 538 q 105 620 69 597 q 192 656 140 643 q 292 668 243 668 q 465 629 400 668 q 560 529 531 590 q 590 397 590 468 l 590 57 q 565 17 590 33 q 503 0 540 0 q 445 17 468 0 q 422 57 422 33 l 422 97 q 334 21 385 54 q 211 -12 283 -12 m 283 121 q 342 140 313 121 q 391 190 371 160 q 411 254 411 221 l 411 283 l 390 283 q 303 278 344 283 q 235 253 261 272 q 210 196 210 235 q 231 139 210 157 q 283 121 253 121 m 163 842 q 123 858 139 842 q 107 900 107 875 q 123 942 107 925 q 163 960 139 960 l 447 960 q 486 942 468 960 q 504 900 504 925 q 486 858 504 875 q 447 842 468 842 l 163 842 z "},"ą":{"ha":654,"x_min":31,"x_max":590,"o":"m 211 -12 q 84 33 138 -12 q 31 172 31 78 q 72 296 31 251 q 185 358 113 340 q 354 376 258 376 l 411 376 l 411 394 q 399 454 411 425 q 362 503 388 483 q 289 522 336 522 q 208 512 236 522 q 164 490 179 501 q 131 479 149 479 q 85 508 101 479 q 69 568 69 538 q 105 620 69 597 q 192 656 140 643 q 292 668 243 668 q 465 629 400 668 q 560 529 531 590 q 590 397 590 468 l 590 57 q 565 17 590 33 q 503 0 540 0 q 445 17 468 0 q 422 57 422 33 l 422 97 q 334 21 385 54 q 211 -12 283 -12 m 283 121 q 342 140 313 121 q 391 190 371 160 q 411 254 411 221 l 411 283 l 390 283 q 303 278 344 283 q 235 253 261 272 q 210 196 210 235 q 231 139 210 157 q 283 121 253 121 m 517 -294 q 427 -278 463 -294 q 373 -234 392 -262 q 354 -169 354 -206 q 390 -56 354 -112 q 485 38 425 1 l 550 11 q 473 -64 504 -18 q 442 -153 442 -110 q 462 -201 442 -183 q 525 -218 482 -218 q 549 -231 542 -218 q 557 -258 557 -244 q 549 -284 557 -274 q 517 -294 542 -294 z "},"å":{"ha":654,"x_min":31,"x_max":590,"o":"m 211 -12 q 84 33 138 -12 q 31 172 31 78 q 72 296 31 251 q 185 358 113 340 q 354 376 258 376 l 411 376 l 411 394 q 399 454 411 425 q 362 503 388 483 q 289 522 336 522 q 208 512 236 522 q 164 490 179 501 q 131 479 149 479 q 85 508 101 479 q 69 568 69 538 q 105 620 69 597 q 192 656 140 643 q 292 668 243 668 q 465 629 400 668 q 560 529 531 590 q 590 397 590 468 l 590 57 q 565 17 590 33 q 503 0 540 0 q 445 17 468 0 q 422 57 422 33 l 422 97 q 334 21 385 54 q 211 -12 283 -12 m 283 121 q 342 140 313 121 q 391 190 371 160 q 411 254 411 221 l 411 283 l 390 283 q 303 278 344 283 q 235 253 261 272 q 210 196 210 235 q 231 139 210 157 q 283 121 253 121 m 306 779 q 238 799 269 779 q 189 851 207 818 q 171 919 171 883 q 189 986 171 956 q 238 1037 207 1017 q 306 1057 268 1057 q 373 1038 342 1057 q 424 988 404 1019 q 443 919 443 956 q 424 851 443 883 q 373 799 404 818 q 306 779 342 779 m 307 851 q 351 872 333 851 q 368 918 368 893 q 351 961 368 942 q 307 981 333 981 q 260 960 279 981 q 242 919 242 940 q 261 873 242 894 q 307 851 281 851 z "},"ã":{"ha":654,"x_min":31,"x_max":590,"o":"m 211 -12 q 84 33 138 -12 q 31 172 31 78 q 72 296 31 251 q 185 358 113 340 q 354 376 258 376 l 411 376 l 411 394 q 399 454 411 425 q 362 503 388 483 q 289 522 336 522 q 208 512 236 522 q 164 490 179 501 q 131 479 149 479 q 85 508 101 479 q 69 568 69 538 q 105 620 69 597 q 192 656 140 643 q 292 668 243 668 q 465 629 400 668 q 560 529 531 590 q 590 397 590 468 l 590 57 q 565 17 590 33 q 503 0 540 0 q 445 17 468 0 q 422 57 422 33 l 422 97 q 334 21 385 54 q 211 -12 283 -12 m 283 121 q 342 140 313 121 q 391 190 371 160 q 411 254 411 221 l 411 283 l 390 283 q 303 278 344 283 q 235 253 261 272 q 210 196 210 235 q 231 139 210 157 q 283 121 253 121 m 425 810 q 349 820 381 810 q 290 840 317 831 q 228 850 263 850 q 178 842 199 850 q 143 825 158 833 q 114 817 128 817 q 86 828 96 817 q 72 853 76 839 q 68 875 68 868 q 82 926 68 907 q 116 954 96 944 q 156 967 136 964 q 188 969 176 969 q 258 960 229 969 q 317 940 288 950 q 385 929 347 929 q 433 938 414 929 q 468 954 453 946 q 497 963 483 963 q 526 951 517 963 q 539 925 535 939 q 543 904 543 911 q 529 853 543 871 q 496 825 515 835 q 456 813 476 815 q 425 810 436 810 z "},"æ":{"ha":1039,"x_min":29,"x_max":1001,"o":"m 242 -12 q 137 8 185 -12 q 59 69 89 28 q 29 171 29 110 q 70 296 29 251 q 184 358 111 340 q 353 376 257 376 l 410 376 l 410 396 q 398 454 410 425 q 360 503 386 483 q 288 524 333 524 q 206 513 233 524 q 162 490 178 501 q 129 479 146 479 q 83 508 100 479 q 67 569 67 538 q 103 621 67 599 q 190 656 139 643 q 290 668 242 668 q 422 638 368 668 q 508 560 475 608 q 599 638 546 608 q 714 668 651 668 q 820 651 768 668 q 913 599 872 633 q 978 515 954 564 q 1001 403 1001 465 q 983 322 1001 347 q 935 290 965 296 q 871 283 906 283 l 589 283 l 589 263 q 634 166 589 203 q 750 129 679 129 q 826 143 796 129 q 880 169 857 157 q 922 182 903 182 q 958 168 943 182 q 981 136 972 154 q 990 103 990 118 q 958 51 990 78 q 869 6 925 24 q 742 -12 814 -12 q 594 23 661 -12 q 485 121 528 58 q 371 23 436 58 q 242 -12 306 -12 m 282 121 q 341 140 313 121 q 390 190 369 160 q 410 254 410 221 l 410 283 l 389 283 q 301 278 342 283 q 235 253 260 272 q 210 194 210 235 q 231 139 210 157 q 282 121 251 121 m 589 389 l 792 389 q 824 397 815 389 q 832 425 832 404 q 815 483 832 458 q 772 522 799 508 q 710 536 744 536 q 651 523 679 536 q 606 485 624 510 q 589 428 589 461 l 589 389 z "},"ǽ":{"ha":1039,"x_min":29,"x_max":1001,"o":"m 242 -12 q 137 8 185 -12 q 59 69 89 28 q 29 171 29 110 q 70 296 29 251 q 184 358 111 340 q 353 376 257 376 l 410 376 l 410 396 q 398 454 410 425 q 360 503 386 483 q 288 524 333 524 q 206 513 233 524 q 162 490 178 501 q 129 479 146 479 q 83 508 100 479 q 67 569 67 538 q 103 621 67 599 q 190 656 139 643 q 290 668 242 668 q 422 638 368 668 q 508 560 475 608 q 599 638 546 608 q 714 668 651 668 q 820 651 768 668 q 913 599 872 633 q 978 515 954 564 q 1001 403 1001 465 q 983 322 1001 347 q 935 290 965 296 q 871 283 906 283 l 589 283 l 589 263 q 634 166 589 203 q 750 129 679 129 q 826 143 796 129 q 880 169 857 157 q 922 182 903 182 q 958 168 943 182 q 981 136 972 154 q 990 103 990 118 q 958 51 990 78 q 869 6 925 24 q 742 -12 814 -12 q 594 23 661 -12 q 485 121 528 58 q 371 23 436 58 q 242 -12 306 -12 m 282 121 q 341 140 313 121 q 390 190 369 160 q 410 254 410 221 l 410 283 l 389 283 q 301 278 342 283 q 235 253 260 272 q 210 194 210 235 q 231 139 210 157 q 282 121 251 121 m 589 389 l 792 389 q 824 397 815 389 q 832 425 832 404 q 815 483 832 458 q 772 522 799 508 q 710 536 744 536 q 651 523 679 536 q 606 485 624 510 q 589 428 589 461 l 589 389 m 447 786 q 408 809 425 786 q 392 854 392 832 q 415 897 392 885 l 599 986 q 617 989 608 989 q 656 967 640 989 q 672 921 672 944 q 647 879 672 892 l 467 792 q 457 788 461 790 q 447 786 453 786 z "},"b":{"ha":721,"x_min":71,"x_max":675,"o":"m 432 -12 q 314 21 367 -12 q 239 97 261 54 l 239 57 q 216 18 239 36 q 158 0 193 0 q 96 18 121 0 q 71 57 71 36 l 71 989 q 96 1029 71 1014 q 158 1044 121 1044 q 224 1029 197 1044 q 250 989 250 1014 l 250 563 q 318 635 272 603 q 428 668 364 668 q 552 630 496 668 q 642 528 608 592 q 675 386 675 464 l 675 272 q 642 133 675 199 q 553 28 608 68 q 432 -12 497 -12 m 375 144 q 436 163 408 144 q 480 211 464 182 q 496 272 496 240 l 496 386 q 480 446 496 418 q 436 492 464 474 q 374 511 408 511 q 316 496 344 511 q 269 453 288 481 q 250 386 250 425 l 250 247 q 267 209 250 233 q 312 165 283 185 q 375 144 340 144 z "},"c":{"ha":601,"x_min":46,"x_max":578,"o":"m 349 -12 q 176 25 243 -12 q 78 127 110 63 q 46 272 46 192 l 46 383 q 77 528 46 464 q 176 631 108 593 q 346 668 243 668 q 461 653 411 668 q 540 613 511 638 q 569 560 569 588 q 560 524 569 544 q 535 488 551 503 q 499 472 519 472 q 467 482 483 472 q 426 501 451 492 q 360 511 401 511 q 257 477 289 511 q 225 383 225 443 l 225 272 q 257 178 225 213 q 361 144 289 144 q 428 156 404 144 q 467 176 451 167 q 500 186 483 186 q 542 172 525 186 q 569 138 560 158 q 578 101 578 118 q 548 47 578 74 q 466 4 518 21 q 349 -12 414 -12 z "},"ć":{"ha":601,"x_min":46,"x_max":578,"o":"m 349 -12 q 176 25 243 -12 q 78 127 110 63 q 46 272 46 192 l 46 383 q 77 528 46 464 q 176 631 108 593 q 346 668 243 668 q 461 653 411 668 q 540 613 511 638 q 569 560 569 588 q 560 524 569 544 q 535 488 551 503 q 499 472 519 472 q 467 482 483 472 q 426 501 451 492 q 360 511 401 511 q 257 477 289 511 q 225 383 225 443 l 225 272 q 257 178 225 213 q 361 144 289 144 q 428 156 404 144 q 467 176 451 167 q 500 186 483 186 q 542 172 525 186 q 569 138 560 158 q 578 101 578 118 q 548 47 578 74 q 466 4 518 21 q 349 -12 414 -12 m 294 789 q 256 812 272 789 q 239 857 239 835 q 263 900 239 888 l 446 989 q 464 992 456 992 q 503 969 488 992 q 519 924 519 947 q 494 882 519 894 l 314 794 q 304 791 308 793 q 294 789 300 789 z "},"č":{"ha":601,"x_min":46,"x_max":578,"o":"m 349 -12 q 176 25 243 -12 q 78 127 110 63 q 46 272 46 192 l 46 383 q 77 528 46 464 q 176 631 108 593 q 346 668 243 668 q 461 653 411 668 q 540 613 511 638 q 569 560 569 588 q 560 524 569 544 q 535 488 551 503 q 499 472 519 472 q 467 482 483 472 q 426 501 451 492 q 360 511 401 511 q 257 477 289 511 q 225 383 225 443 l 225 272 q 257 178 225 213 q 361 144 289 144 q 428 156 404 144 q 467 176 451 167 q 500 186 483 186 q 542 172 525 186 q 569 138 560 158 q 578 101 578 118 q 548 47 578 74 q 466 4 518 21 q 349 -12 414 -12 m 343 808 q 318 817 332 808 l 175 908 q 152 931 160 918 q 144 961 144 944 q 156 998 144 981 q 183 1015 167 1015 q 200 1010 192 1015 l 343 918 l 485 1010 q 501 1015 494 1015 q 530 998 519 1015 q 540 961 540 981 q 534 931 540 944 q 511 908 528 918 l 368 817 q 343 808 353 808 z "},"ç":{"ha":601,"x_min":46,"x_max":578,"o":"m 349 -12 q 176 25 243 -12 q 78 127 110 63 q 46 272 46 192 l 46 383 q 77 528 46 464 q 176 631 108 593 q 346 668 243 668 q 461 653 411 668 q 540 613 511 638 q 569 560 569 588 q 560 524 569 544 q 535 488 551 503 q 499 472 519 472 q 467 482 483 472 q 426 501 451 492 q 360 511 401 511 q 257 477 289 511 q 225 383 225 443 l 225 272 q 257 178 225 213 q 361 144 289 144 q 428 156 404 144 q 467 176 451 167 q 500 186 483 186 q 542 172 525 186 q 569 138 560 158 q 578 101 578 118 q 548 47 578 74 q 466 4 518 21 q 349 -12 414 -12 m 356 -300 q 305 -296 332 -300 q 258 -282 278 -292 q 238 -260 238 -272 q 241 -242 238 -254 q 251 -219 244 -231 q 269 -208 258 -208 q 298 -218 281 -208 q 350 -228 315 -228 q 398 -216 381 -228 q 415 -182 415 -204 q 399 -147 415 -161 q 349 -131 383 -133 l 272 -124 l 311 13 l 390 13 l 364 -71 q 468 -104 435 -74 q 501 -178 501 -135 q 488 -231 501 -201 q 443 -280 475 -260 q 356 -300 411 -300 z "},"ĉ":{"ha":601,"x_min":46,"x_max":578,"o":"m 349 -12 q 176 25 243 -12 q 78 127 110 63 q 46 272 46 192 l 46 383 q 77 528 46 464 q 176 631 108 593 q 346 668 243 668 q 461 653 411 668 q 540 613 511 638 q 569 560 569 588 q 560 524 569 544 q 535 488 551 503 q 499 472 519 472 q 467 482 483 472 q 426 501 451 492 q 360 511 401 511 q 257 477 289 511 q 225 383 225 443 l 225 272 q 257 178 225 213 q 361 144 289 144 q 428 156 404 144 q 467 176 451 167 q 500 186 483 186 q 542 172 525 186 q 569 138 560 158 q 578 101 578 118 q 548 47 578 74 q 466 4 518 21 q 349 -12 414 -12 m 183 799 q 156 816 167 799 q 144 854 144 833 q 151 883 144 869 q 175 906 158 897 l 319 983 q 343 990 332 990 q 367 983 353 990 l 511 907 q 534 884 528 899 q 540 853 540 869 q 530 816 540 833 q 501 799 519 799 q 494 800 499 799 q 488 803 490 801 l 343 881 l 199 803 q 190 800 194 801 q 183 799 186 799 z "},"ċ":{"ha":601,"x_min":46,"x_max":578,"o":"m 349 -12 q 176 25 243 -12 q 78 127 110 63 q 46 272 46 192 l 46 383 q 77 528 46 464 q 176 631 108 593 q 346 668 243 668 q 461 653 411 668 q 540 613 511 638 q 569 560 569 588 q 560 524 569 544 q 535 488 551 503 q 499 472 519 472 q 467 482 483 472 q 426 501 451 492 q 360 511 401 511 q 257 477 289 511 q 225 383 225 443 l 225 272 q 257 178 225 213 q 361 144 289 144 q 428 156 404 144 q 467 176 451 167 q 500 186 483 186 q 542 172 525 186 q 569 138 560 158 q 578 101 578 118 q 548 47 578 74 q 466 4 518 21 q 349 -12 414 -12 m 343 801 q 292 824 314 801 q 271 875 271 846 q 292 926 271 904 q 343 949 314 949 q 393 926 372 949 q 414 875 414 904 q 393 824 414 846 q 343 801 372 801 z "},"d":{"ha":721,"x_min":46,"x_max":650,"o":"m 289 -12 q 168 28 224 -12 q 79 133 113 68 q 46 272 46 199 l 46 386 q 79 528 46 464 q 168 630 113 592 q 292 668 224 668 q 403 635 357 668 q 471 563 449 603 l 471 989 q 497 1029 471 1014 q 563 1044 524 1044 q 625 1029 600 1044 q 650 989 650 1014 l 650 57 q 625 18 650 36 q 563 0 600 0 q 506 18 529 0 q 482 57 482 36 l 482 97 q 408 21 461 54 q 289 -12 354 -12 m 346 144 q 410 165 382 144 q 454 209 438 185 q 471 247 471 233 l 471 386 q 452 453 471 425 q 405 496 433 481 q 347 511 376 511 q 285 492 314 511 q 241 446 257 474 q 225 386 225 418 l 225 272 q 241 211 225 240 q 285 163 257 182 q 346 144 313 144 z "},"ð":{"ha":713,"x_min":44,"x_max":650,"o":"m 347 -12 q 233 11 288 -12 q 135 74 178 35 q 69 165 93 114 q 44 272 44 217 l 44 386 q 78 527 44 463 q 167 630 111 592 q 290 668 222 668 q 369 653 333 668 q 431 615 404 639 q 471 560 458 590 q 452 677 469 622 q 408 774 435 732 l 335 731 q 317 725 328 725 q 274 749 293 725 q 254 797 254 772 q 274 832 254 819 l 338 869 q 313 889 326 882 q 286 897 299 896 q 261 923 274 910 q 249 960 249 936 q 257 995 249 975 q 285 1031 265 1015 q 338 1046 304 1046 q 418 1024 379 1046 q 492 963 457 1003 l 569 1010 q 588 1014 578 1014 q 631 991 611 1014 q 650 944 650 968 q 629 908 650 919 l 556 864 q 626 677 601 779 q 650 483 650 575 l 650 272 q 608 132 650 197 q 498 27 567 67 q 347 -12 429 -12 m 347 144 q 410 163 383 144 q 454 211 438 182 q 471 272 471 240 l 471 388 q 453 451 471 424 q 406 495 435 479 q 346 511 376 511 q 284 492 313 511 q 240 446 256 474 q 224 386 224 418 l 224 272 q 240 211 224 240 q 285 163 257 182 q 347 144 314 144 z "},"ď":{"ha":721,"x_min":46,"x_max":908,"o":"m 289 -12 q 168 28 224 -12 q 79 133 113 68 q 46 272 46 199 l 46 386 q 79 528 46 464 q 168 630 113 592 q 292 668 224 668 q 403 635 357 668 q 471 563 449 603 l 471 989 q 497 1029 471 1014 q 563 1044 524 1044 q 625 1029 600 1044 q 650 989 650 1014 l 650 57 q 625 18 650 36 q 563 0 600 0 q 506 18 529 0 q 482 57 482 36 l 482 97 q 408 21 461 54 q 289 -12 354 -12 m 346 144 q 410 165 382 144 q 454 209 438 185 q 471 247 471 233 l 471 386 q 452 453 471 425 q 405 496 433 481 q 347 511 376 511 q 285 492 314 511 q 241 446 257 474 q 225 386 225 418 l 225 272 q 241 211 225 240 q 285 163 257 182 q 346 144 313 144 m 793 710 q 753 722 774 710 q 733 757 733 733 q 739 776 733 767 l 771 850 q 733 885 747 863 q 719 935 719 907 q 747 1001 719 974 q 813 1029 775 1029 q 879 1001 851 1029 q 907 936 907 974 q 905 918 907 929 q 894 887 903 907 q 871 829 886 867 q 831 732 856 792 q 814 715 825 721 q 793 710 803 710 z "},"đ":{"ha":721,"x_min":46,"x_max":738,"o":"m 289 -12 q 168 28 224 -12 q 79 133 113 68 q 46 272 46 199 l 46 386 q 79 528 46 464 q 168 630 113 592 q 292 668 224 668 q 403 635 357 668 q 471 563 449 603 l 471 768 l 363 768 q 328 788 340 768 q 317 833 317 808 q 328 878 317 857 q 363 899 340 899 l 471 899 l 471 989 q 497 1029 471 1014 q 563 1044 524 1044 q 625 1029 600 1044 q 650 989 650 1014 l 650 899 l 692 899 q 726 878 714 899 q 738 833 738 857 q 726 788 738 807 q 692 768 714 768 l 650 768 l 650 57 q 625 18 650 36 q 563 0 600 0 q 506 18 529 0 q 482 57 482 36 l 482 97 q 408 21 461 54 q 289 -12 354 -12 m 346 144 q 410 165 382 144 q 454 209 438 185 q 471 247 471 233 l 471 386 q 452 453 471 425 q 405 496 433 481 q 347 511 376 511 q 285 492 314 511 q 241 446 257 474 q 225 386 225 418 l 225 272 q 241 211 225 240 q 285 163 257 182 q 346 144 313 144 z "},"e":{"ha":674,"x_min":44,"x_max":636,"o":"m 381 -12 q 206 23 282 -12 q 88 123 131 58 q 44 272 44 188 l 44 390 q 85 528 44 465 q 195 630 126 592 q 349 668 264 668 q 491 635 426 668 q 596 543 556 601 q 636 407 636 485 q 617 322 636 347 q 567 290 597 296 q 506 283 538 283 l 224 283 l 224 263 q 269 166 224 203 q 386 129 314 129 q 463 143 432 129 q 515 169 493 157 q 557 182 538 182 q 593 168 578 182 q 617 135 608 154 q 625 103 625 117 q 595 52 625 79 q 510 6 565 25 q 381 -12 456 -12 m 224 389 l 426 389 q 459 397 450 389 q 468 426 468 404 q 451 483 468 458 q 407 522 435 508 q 346 536 379 536 q 286 523 314 536 q 241 485 258 510 q 224 428 224 461 l 224 389 z "},"é":{"ha":674,"x_min":44,"x_max":636,"o":"m 381 -12 q 206 23 282 -12 q 88 123 131 58 q 44 272 44 188 l 44 390 q 85 528 44 465 q 195 630 126 592 q 349 668 264 668 q 491 635 426 668 q 596 543 556 601 q 636 407 636 485 q 617 322 636 347 q 567 290 597 296 q 506 283 538 283 l 224 283 l 224 263 q 269 166 224 203 q 386 129 314 129 q 463 143 432 129 q 515 169 493 157 q 557 182 538 182 q 593 168 578 182 q 617 135 608 154 q 625 103 625 117 q 595 52 625 79 q 510 6 565 25 q 381 -12 456 -12 m 224 389 l 426 389 q 459 397 450 389 q 468 426 468 404 q 451 483 468 458 q 407 522 435 508 q 346 536 379 536 q 286 523 314 536 q 241 485 258 510 q 224 428 224 461 l 224 389 m 301 788 q 263 810 279 788 q 246 856 246 833 q 269 899 246 886 l 453 988 q 471 990 463 990 q 510 968 494 990 q 526 922 526 946 q 501 881 526 893 l 321 793 q 311 790 315 792 q 301 788 307 788 z "},"ĕ":{"ha":674,"x_min":44,"x_max":636,"o":"m 381 -12 q 206 23 282 -12 q 88 123 131 58 q 44 272 44 188 l 44 390 q 85 528 44 465 q 195 630 126 592 q 349 668 264 668 q 491 635 426 668 q 596 543 556 601 q 636 407 636 485 q 617 322 636 347 q 567 290 597 296 q 506 283 538 283 l 224 283 l 224 263 q 269 166 224 203 q 386 129 314 129 q 463 143 432 129 q 515 169 493 157 q 557 182 538 182 q 593 168 578 182 q 617 135 608 154 q 625 103 625 117 q 595 52 625 79 q 510 6 565 25 q 381 -12 456 -12 m 224 389 l 426 389 q 459 397 450 389 q 468 426 468 404 q 451 483 468 458 q 407 522 435 508 q 346 536 379 536 q 286 523 314 536 q 241 485 258 510 q 224 428 224 461 l 224 389 m 349 815 q 235 858 288 815 q 168 960 183 900 q 174 990 164 979 q 204 1000 185 1000 l 226 1000 q 252 991 243 1000 q 267 967 261 982 q 299 915 275 935 q 349 896 324 896 q 399 915 376 896 q 431 967 421 935 q 445 991 436 982 q 471 1000 454 1000 l 493 1000 q 522 989 511 1000 q 528 958 533 978 q 461 858 513 900 q 349 815 410 815 z "},"ě":{"ha":674,"x_min":44,"x_max":636,"o":"m 381 -12 q 206 23 282 -12 q 88 123 131 58 q 44 272 44 188 l 44 390 q 85 528 44 465 q 195 630 126 592 q 349 668 264 668 q 491 635 426 668 q 596 543 556 601 q 636 407 636 485 q 617 322 636 347 q 567 290 597 296 q 506 283 538 283 l 224 283 l 224 263 q 269 166 224 203 q 386 129 314 129 q 463 143 432 129 q 515 169 493 157 q 557 182 538 182 q 593 168 578 182 q 617 135 608 154 q 625 103 625 117 q 595 52 625 79 q 510 6 565 25 q 381 -12 456 -12 m 224 389 l 426 389 q 459 397 450 389 q 468 426 468 404 q 451 483 468 458 q 407 522 435 508 q 346 536 379 536 q 286 523 314 536 q 241 485 258 510 q 224 428 224 461 l 224 389 m 349 807 q 324 815 338 807 l 181 907 q 158 930 165 917 q 150 960 150 943 q 161 997 150 979 q 189 1014 172 1014 q 206 1008 197 1014 l 349 917 l 490 1008 q 507 1014 500 1014 q 535 997 525 1014 q 546 960 546 979 q 540 930 546 943 q 517 907 533 917 l 374 815 q 349 807 358 807 z "},"ê":{"ha":674,"x_min":44,"x_max":636,"o":"m 381 -12 q 206 23 282 -12 q 88 123 131 58 q 44 272 44 188 l 44 390 q 85 528 44 465 q 195 630 126 592 q 349 668 264 668 q 491 635 426 668 q 596 543 556 601 q 636 407 636 485 q 617 322 636 347 q 567 290 597 296 q 506 283 538 283 l 224 283 l 224 263 q 269 166 224 203 q 386 129 314 129 q 463 143 432 129 q 515 169 493 157 q 557 182 538 182 q 593 168 578 182 q 617 135 608 154 q 625 103 625 117 q 595 52 625 79 q 510 6 565 25 q 381 -12 456 -12 m 224 389 l 426 389 q 459 397 450 389 q 468 426 468 404 q 451 483 468 458 q 407 522 435 508 q 346 536 379 536 q 286 523 314 536 q 241 485 258 510 q 224 428 224 461 l 224 389 m 189 797 q 161 815 172 797 q 150 853 150 832 q 157 882 150 868 q 181 904 164 896 l 325 982 q 349 989 338 989 q 372 982 358 989 l 517 906 q 540 883 533 897 q 546 851 546 868 q 535 815 546 832 q 507 797 525 797 q 500 799 504 797 q 493 801 496 800 l 349 879 l 204 801 q 196 799 200 800 q 189 797 192 797 z "},"ế":{"ha":618,"x_min":44,"x_max":636,"o":"m 381 -12 q 206 23 282 -12 q 88 123 131 58 q 44 272 44 188 l 44 390 q 85 528 44 465 q 195 630 126 592 q 349 668 264 668 q 491 635 426 668 q 596 543 556 601 q 636 407 636 485 q 617 322 636 347 q 567 290 597 296 q 506 283 538 283 l 224 283 l 224 263 q 269 166 224 203 q 386 129 314 129 q 463 143 432 129 q 515 169 493 157 q 557 182 538 182 q 593 168 578 182 q 617 135 608 154 q 625 103 625 117 q 595 52 625 79 q 510 6 565 25 q 381 -12 456 -12 m 224 389 l 426 389 q 459 397 450 389 q 468 426 468 404 q 451 483 468 458 q 407 522 435 508 q 346 536 379 536 q 286 523 314 536 q 241 485 258 510 q 224 428 224 461 l 224 389 m 207 735 q 180 752 192 735 q 168 790 168 769 q 199 842 168 822 l 313 919 q 336 926 324 926 q 360 919 349 926 l 472 843 q 503 789 503 822 q 492 752 503 769 q 464 735 481 735 q 457 736 461 735 q 449 739 453 738 l 336 817 l 222 739 q 214 736 218 738 q 207 735 210 735 m 286 875 q 247 898 264 875 q 231 943 231 921 q 254 986 231 974 l 438 1075 q 456 1078 447 1078 q 495 1056 479 1078 q 511 1010 511 1033 q 486 968 511 981 l 306 881 q 296 877 300 879 q 286 875 292 875 z "},"ệ":{"ha":618,"x_min":44,"x_max":636,"o":"m 381 -12 q 206 23 282 -12 q 88 123 131 58 q 44 272 44 188 l 44 390 q 85 528 44 465 q 195 630 126 592 q 349 668 264 668 q 491 635 426 668 q 596 543 556 601 q 636 407 636 485 q 617 322 636 347 q 567 290 597 296 q 506 283 538 283 l 224 283 l 224 263 q 269 166 224 203 q 386 129 314 129 q 463 143 432 129 q 515 169 493 157 q 557 182 538 182 q 593 168 578 182 q 617 135 608 154 q 625 103 625 117 q 595 52 625 79 q 510 6 565 25 q 381 -12 456 -12 m 224 389 l 426 389 q 459 397 450 389 q 468 426 468 404 q 451 483 468 458 q 407 522 435 508 q 346 536 379 536 q 286 523 314 536 q 241 485 258 510 q 224 428 224 461 l 224 389 m 339 -183 q 272 -155 299 -183 q 244 -89 244 -126 q 272 -22 244 -50 q 339 6 299 6 q 404 -22 376 6 q 432 -89 432 -50 q 404 -155 432 -126 q 339 -183 376 -183 m 176 800 q 149 817 160 800 q 138 856 138 835 q 144 885 138 871 q 168 907 151 899 l 313 985 q 336 992 325 992 q 360 985 346 992 l 504 908 q 527 885 521 900 q 533 854 533 871 q 523 817 533 835 q 494 800 513 800 q 488 801 492 800 q 481 804 483 803 l 336 882 l 192 804 q 183 801 188 803 q 176 800 179 800 z "},"ề":{"ha":618,"x_min":44,"x_max":636,"o":"m 381 -12 q 206 23 282 -12 q 88 123 131 58 q 44 272 44 188 l 44 390 q 85 528 44 465 q 195 630 126 592 q 349 668 264 668 q 491 635 426 668 q 596 543 556 601 q 636 407 636 485 q 617 322 636 347 q 567 290 597 296 q 506 283 538 283 l 224 283 l 224 263 q 269 166 224 203 q 386 129 314 129 q 463 143 432 129 q 515 169 493 157 q 557 182 538 182 q 593 168 578 182 q 617 135 608 154 q 625 103 625 117 q 595 52 625 79 q 510 6 565 25 q 381 -12 456 -12 m 224 389 l 426 389 q 459 397 450 389 q 468 426 468 404 q 451 483 468 458 q 407 522 435 508 q 346 536 379 536 q 286 523 314 536 q 241 485 258 510 q 224 428 224 461 l 224 389 m 207 738 q 180 755 192 738 q 168 793 168 772 q 199 844 168 825 l 313 922 q 336 929 324 929 q 360 922 349 929 l 472 846 q 503 792 503 825 q 492 755 503 772 q 464 738 481 738 q 457 739 461 738 q 449 742 453 740 l 336 819 l 222 742 q 214 739 218 740 q 207 738 210 738 m 465 872 q 456 874 460 872 q 446 878 451 876 l 265 965 q 240 1007 240 978 q 256 1053 240 1031 q 296 1075 272 1075 q 314 1072 304 1075 l 497 983 q 521 940 521 971 q 505 895 521 918 q 465 872 489 872 z "},"ể":{"ha":674,"x_min":44,"x_max":636,"o":"m 381 -12 q 206 23 282 -12 q 88 123 131 58 q 44 272 44 188 l 44 390 q 85 528 44 465 q 195 630 126 592 q 349 668 264 668 q 491 635 426 668 q 596 543 556 601 q 636 407 636 485 q 617 322 636 347 q 567 290 597 296 q 506 283 538 283 l 224 283 l 224 263 q 269 166 224 203 q 386 129 314 129 q 463 143 432 129 q 515 169 493 157 q 557 182 538 182 q 593 168 578 182 q 617 135 608 154 q 625 103 625 117 q 595 52 625 79 q 510 6 565 25 q 381 -12 456 -12 m 224 389 l 426 389 q 459 397 450 389 q 468 426 468 404 q 451 483 468 458 q 407 522 435 508 q 346 536 379 536 q 286 523 314 536 q 241 485 258 510 q 224 428 224 461 l 224 389 m 219 768 q 192 785 204 768 q 181 824 181 803 q 211 875 181 856 l 325 953 q 349 960 336 960 q 372 953 361 960 l 485 876 q 515 822 515 856 q 504 785 515 803 q 476 768 493 768 q 469 769 474 768 q 461 772 465 771 l 349 850 l 235 772 q 226 769 231 771 q 219 768 222 768 m 410 1115 q 452 1142 429 1132 q 507 1153 475 1153 q 583 1135 557 1153 q 619 1094 608 1118 q 629 1047 629 1069 q 622 1010 629 1026 q 600 976 615 993 q 581 953 589 964 q 574 933 574 943 q 563 910 574 919 q 535 901 551 901 q 509 910 521 901 q 497 933 497 919 q 503 958 497 946 q 517 983 508 969 q 539 1013 529 999 q 549 1038 549 1026 q 535 1064 549 1054 q 504 1074 522 1074 q 474 1067 488 1074 q 450 1051 461 1060 q 428 1044 440 1044 q 401 1058 415 1043 q 392 1089 386 1072 q 410 1115 397 1106 z "},"ễ":{"ha":618,"x_min":44,"x_max":636,"o":"m 381 -12 q 206 23 282 -12 q 88 123 131 58 q 44 272 44 188 l 44 390 q 85 528 44 465 q 195 630 126 592 q 349 668 264 668 q 491 635 426 668 q 596 543 556 601 q 636 407 636 485 q 617 322 636 347 q 567 290 597 296 q 506 283 538 283 l 224 283 l 224 263 q 269 166 224 203 q 386 129 314 129 q 463 143 432 129 q 515 169 493 157 q 557 182 538 182 q 593 168 578 182 q 617 135 608 154 q 625 103 625 117 q 595 52 625 79 q 510 6 565 25 q 381 -12 456 -12 m 224 389 l 426 389 q 459 397 450 389 q 468 426 468 404 q 451 483 468 458 q 407 522 435 508 q 346 536 379 536 q 286 523 314 536 q 241 485 258 510 q 224 428 224 461 l 224 389 m 207 735 q 180 752 192 735 q 168 790 168 769 q 199 842 168 822 l 313 919 q 336 926 324 926 q 360 919 349 926 l 472 843 q 503 789 503 822 q 492 752 503 769 q 464 735 481 735 q 457 736 461 735 q 449 739 453 738 l 336 817 l 222 739 q 214 736 218 738 q 207 735 210 735 m 469 868 q 393 878 425 868 q 334 899 361 889 q 272 908 307 908 q 223 900 243 908 q 188 883 203 892 q 158 875 172 875 q 131 886 140 875 q 117 912 121 897 q 113 933 113 926 q 126 984 113 965 q 160 1013 140 1003 q 201 1025 181 1022 q 232 1028 221 1028 q 303 1018 274 1028 q 362 998 332 1008 q 429 988 392 988 q 478 996 458 988 q 513 1013 497 1004 q 542 1021 528 1021 q 570 1009 561 1021 q 583 983 579 997 q 588 963 588 969 q 574 911 588 929 q 540 883 560 893 q 501 871 521 874 q 469 868 481 868 z "},"ë":{"ha":674,"x_min":44,"x_max":636,"o":"m 381 -12 q 206 23 282 -12 q 88 123 131 58 q 44 272 44 188 l 44 390 q 85 528 44 465 q 195 630 126 592 q 349 668 264 668 q 491 635 426 668 q 596 543 556 601 q 636 407 636 485 q 617 322 636 347 q 567 290 597 296 q 506 283 538 283 l 224 283 l 224 263 q 269 166 224 203 q 386 129 314 129 q 463 143 432 129 q 515 169 493 157 q 557 182 538 182 q 593 168 578 182 q 617 135 608 154 q 625 103 625 117 q 595 52 625 79 q 510 6 565 25 q 381 -12 456 -12 m 224 389 l 426 389 q 459 397 450 389 q 468 426 468 404 q 451 483 468 458 q 407 522 435 508 q 346 536 379 536 q 286 523 314 536 q 241 485 258 510 q 224 428 224 461 l 224 389 m 451 799 q 401 821 422 799 q 379 872 379 843 q 401 923 379 901 q 451 944 422 944 q 500 923 479 944 q 521 872 521 901 q 500 821 521 843 q 451 799 479 799 m 243 799 q 193 821 214 799 q 172 872 172 843 q 193 923 172 901 q 243 944 214 944 q 292 923 272 944 q 313 872 313 901 q 292 821 313 843 q 243 799 272 799 z "},"ė":{"ha":674,"x_min":44,"x_max":636,"o":"m 381 -12 q 206 23 282 -12 q 88 123 131 58 q 44 272 44 188 l 44 390 q 85 528 44 465 q 195 630 126 592 q 349 668 264 668 q 491 635 426 668 q 596 543 556 601 q 636 407 636 485 q 617 322 636 347 q 567 290 597 296 q 506 283 538 283 l 224 283 l 224 263 q 269 166 224 203 q 386 129 314 129 q 463 143 432 129 q 515 169 493 157 q 557 182 538 182 q 593 168 578 182 q 617 135 608 154 q 625 103 625 117 q 595 52 625 79 q 510 6 565 25 q 381 -12 456 -12 m 224 389 l 426 389 q 459 397 450 389 q 468 426 468 404 q 451 483 468 458 q 407 522 435 508 q 346 536 379 536 q 286 523 314 536 q 241 485 258 510 q 224 428 224 461 l 224 389 m 349 800 q 298 822 319 800 q 276 874 276 844 q 298 925 276 903 q 349 947 319 947 q 399 925 378 947 q 419 874 419 903 q 399 822 419 844 q 349 800 378 800 z "},"ẹ":{"ha":618,"x_min":44,"x_max":636,"o":"m 381 -12 q 206 23 282 -12 q 88 123 131 58 q 44 272 44 188 l 44 390 q 85 528 44 465 q 195 630 126 592 q 349 668 264 668 q 491 635 426 668 q 596 543 556 601 q 636 407 636 485 q 617 322 636 347 q 567 290 597 296 q 506 283 538 283 l 224 283 l 224 263 q 269 166 224 203 q 386 129 314 129 q 463 143 432 129 q 515 169 493 157 q 557 182 538 182 q 593 168 578 182 q 617 135 608 154 q 625 103 625 117 q 595 52 625 79 q 510 6 565 25 q 381 -12 456 -12 m 224 389 l 426 389 q 459 397 450 389 q 468 426 468 404 q 451 483 468 458 q 407 522 435 508 q 346 536 379 536 q 286 523 314 536 q 241 485 258 510 q 224 428 224 461 l 224 389 m 339 -183 q 272 -155 299 -183 q 244 -89 244 -126 q 272 -22 244 -50 q 339 6 299 6 q 404 -22 376 6 q 432 -89 432 -50 q 404 -155 432 -126 q 339 -183 376 -183 z "},"è":{"ha":674,"x_min":44,"x_max":636,"o":"m 381 -12 q 206 23 282 -12 q 88 123 131 58 q 44 272 44 188 l 44 390 q 85 528 44 465 q 195 630 126 592 q 349 668 264 668 q 491 635 426 668 q 596 543 556 601 q 636 407 636 485 q 617 322 636 347 q 567 290 597 296 q 506 283 538 283 l 224 283 l 224 263 q 269 166 224 203 q 386 129 314 129 q 463 143 432 129 q 515 169 493 157 q 557 182 538 182 q 593 168 578 182 q 617 135 608 154 q 625 103 625 117 q 595 52 625 79 q 510 6 565 25 q 381 -12 456 -12 m 224 389 l 426 389 q 459 397 450 389 q 468 426 468 404 q 451 483 468 458 q 407 522 435 508 q 346 536 379 536 q 286 523 314 536 q 241 485 258 510 q 224 428 224 461 l 224 389 m 404 786 q 394 788 399 786 q 385 792 390 790 l 204 879 q 179 921 179 892 q 195 967 179 944 q 235 989 211 989 q 253 986 243 989 l 436 897 q 460 854 460 885 q 444 809 460 832 q 404 786 428 786 z "},"ẻ":{"ha":674,"x_min":44,"x_max":636,"o":"m 381 -12 q 206 23 282 -12 q 88 123 131 58 q 44 272 44 188 l 44 390 q 85 528 44 465 q 195 630 126 592 q 349 668 264 668 q 491 635 426 668 q 596 543 556 601 q 636 407 636 485 q 617 322 636 347 q 567 290 597 296 q 506 283 538 283 l 224 283 l 224 263 q 269 166 224 203 q 386 129 314 129 q 463 143 432 129 q 515 169 493 157 q 557 182 538 182 q 593 168 578 182 q 617 135 608 154 q 625 103 625 117 q 595 52 625 79 q 510 6 565 25 q 381 -12 456 -12 m 224 389 l 426 389 q 459 397 450 389 q 468 426 468 404 q 451 483 468 458 q 407 522 435 508 q 346 536 379 536 q 286 523 314 536 q 241 485 258 510 q 224 428 224 461 l 224 389 m 231 979 q 273 1006 250 996 q 328 1017 296 1017 q 403 999 378 1017 q 440 958 429 982 q 450 911 450 933 q 443 874 450 890 q 421 840 436 857 q 402 817 410 828 q 394 797 394 807 q 383 774 394 783 q 356 765 372 765 q 330 774 342 765 q 318 797 318 783 q 324 822 318 810 q 338 847 329 833 q 360 876 350 863 q 369 901 369 890 q 356 928 369 918 q 325 938 343 938 q 295 931 308 938 q 271 915 282 924 q 249 908 261 908 q 222 922 236 907 q 213 953 207 936 q 231 979 218 969 z "},"ē":{"ha":674,"x_min":44,"x_max":636,"o":"m 381 -12 q 206 23 282 -12 q 88 123 131 58 q 44 272 44 188 l 44 390 q 85 528 44 465 q 195 630 126 592 q 349 668 264 668 q 491 635 426 668 q 596 543 556 601 q 636 407 636 485 q 617 322 636 347 q 567 290 597 296 q 506 283 538 283 l 224 283 l 224 263 q 269 166 224 203 q 386 129 314 129 q 463 143 432 129 q 515 169 493 157 q 557 182 538 182 q 593 168 578 182 q 617 135 608 154 q 625 103 625 117 q 595 52 625 79 q 510 6 565 25 q 381 -12 456 -12 m 224 389 l 426 389 q 459 397 450 389 q 468 426 468 404 q 451 483 468 458 q 407 522 435 508 q 346 536 379 536 q 286 523 314 536 q 241 485 258 510 q 224 428 224 461 l 224 389 m 204 846 q 165 863 181 846 q 149 904 149 879 q 165 947 149 929 q 204 964 181 964 l 489 964 q 528 947 510 964 q 546 904 546 929 q 528 863 546 879 q 489 846 510 846 l 204 846 z "},"ę":{"ha":674,"x_min":44,"x_max":636,"o":"m 381 -12 q 206 23 282 -12 q 88 123 131 58 q 44 272 44 188 l 44 390 q 85 528 44 465 q 195 630 126 592 q 349 668 264 668 q 491 635 426 668 q 596 543 556 601 q 636 407 636 485 q 617 322 636 347 q 567 290 597 296 q 506 283 538 283 l 224 283 l 224 263 q 269 166 224 203 q 386 129 314 129 q 463 143 432 129 q 515 169 493 157 q 557 182 538 182 q 593 168 578 182 q 617 135 608 154 q 625 103 625 117 q 595 52 625 79 q 510 6 565 25 q 381 -12 456 -12 m 224 389 l 426 389 q 459 397 450 389 q 468 426 468 404 q 451 483 468 458 q 407 522 435 508 q 346 536 379 536 q 286 523 314 536 q 241 485 258 510 q 224 428 224 461 l 224 389 m 506 -281 q 416 -265 451 -281 q 362 -220 381 -249 q 343 -156 343 -192 q 378 -42 343 -99 q 474 51 414 15 l 539 25 q 462 -50 493 -4 q 431 -139 431 -96 q 451 -187 431 -169 q 514 -204 471 -204 q 538 -217 531 -204 q 546 -244 546 -231 q 538 -270 546 -260 q 506 -281 531 -281 z "},"ẽ":{"ha":674,"x_min":44,"x_max":636,"o":"m 381 -12 q 206 23 282 -12 q 88 123 131 58 q 44 272 44 188 l 44 390 q 85 528 44 465 q 195 630 126 592 q 349 668 264 668 q 491 635 426 668 q 596 543 556 601 q 636 407 636 485 q 617 322 636 347 q 567 290 597 296 q 506 283 538 283 l 224 283 l 224 263 q 269 166 224 203 q 386 129 314 129 q 463 143 432 129 q 515 169 493 157 q 557 182 538 182 q 593 168 578 182 q 617 135 608 154 q 625 103 625 117 q 595 52 625 79 q 510 6 565 25 q 381 -12 456 -12 m 224 389 l 426 389 q 459 397 450 389 q 468 426 468 404 q 451 483 468 458 q 407 522 435 508 q 346 536 379 536 q 286 523 314 536 q 241 485 258 510 q 224 428 224 461 l 224 389 m 467 814 q 390 824 422 814 q 331 844 358 835 q 269 854 304 854 q 220 846 240 854 q 185 829 200 838 q 156 821 169 821 q 128 832 138 821 q 114 858 118 843 q 110 879 110 872 q 124 930 110 911 q 158 958 138 949 q 198 971 178 968 q 229 974 218 974 q 300 964 271 974 q 359 944 329 954 q 426 933 389 933 q 475 942 456 933 q 510 958 494 950 q 539 967 525 967 q 567 955 558 967 q 581 929 576 943 q 585 908 585 915 q 571 857 585 875 q 538 829 557 839 q 498 817 518 819 q 467 814 478 814 z "},"ə":{"ha":674,"x_min":38,"x_max":629,"o":"m 325 -12 q 183 21 249 -12 q 78 113 118 54 q 38 249 38 172 q 57 334 38 308 q 107 366 76 360 q 168 372 138 372 l 450 372 l 450 393 q 405 490 450 453 q 288 526 360 526 q 211 513 242 526 q 159 487 181 500 q 117 474 138 474 q 81 488 96 474 q 57 520 65 501 q 49 553 49 539 q 78 603 49 576 q 164 649 108 631 q 293 668 219 668 q 467 633 392 668 q 586 533 543 597 q 629 383 629 469 l 629 265 q 588 127 629 190 q 478 26 547 64 q 325 -12 410 -12 m 328 119 q 388 133 360 119 q 433 170 415 146 q 450 228 450 194 l 450 267 l 247 267 q 215 259 225 267 q 206 229 206 251 q 222 172 206 197 q 267 133 239 147 q 328 119 296 119 z "},"f":{"ha":472,"x_min":71,"x_max":465,"o":"m 158 0 q 96 16 121 0 q 71 56 71 32 l 71 772 q 104 912 71 850 q 193 1009 138 974 q 315 1044 249 1044 l 397 1044 q 448 1021 431 1044 q 465 969 465 997 q 448 916 465 939 q 397 893 431 893 l 353 893 q 300 881 324 893 q 263 846 276 868 q 250 792 250 824 l 250 660 l 419 660 q 453 640 442 660 q 465 594 465 619 q 453 549 465 569 q 419 529 442 529 l 250 529 l 250 56 q 223 16 250 32 q 158 0 196 0 z "},"g":{"ha":654,"x_min":22,"x_max":635,"o":"m 329 -307 q 177 -284 247 -307 q 65 -217 107 -261 q 22 -111 22 -172 q 51 -22 22 -58 q 124 36 81 15 q 81 69 97 49 q 65 125 65 90 q 85 188 65 164 q 136 233 106 213 q 72 310 94 265 q 50 410 50 356 l 50 439 q 83 558 50 507 q 178 639 117 610 q 321 668 240 668 q 407 658 367 668 q 479 628 447 647 q 524 703 503 683 q 564 722 544 722 q 616 703 597 722 q 635 667 635 683 q 628 644 635 654 q 611 628 622 635 q 581 608 599 619 q 547 575 563 596 q 584 513 572 547 q 596 439 596 479 l 596 410 q 561 291 596 343 q 464 208 526 239 q 321 178 401 178 q 231 190 271 178 q 219 178 224 185 q 214 163 214 171 q 244 129 214 139 q 322 114 275 119 q 423 99 369 108 q 524 71 476 90 q 601 13 571 51 q 632 -89 632 -25 q 588 -215 632 -167 q 476 -285 544 -262 q 329 -307 407 -307 m 326 -192 q 419 -165 381 -192 q 457 -94 457 -139 q 440 -47 457 -65 q 395 -20 424 -29 q 333 -6 367 -11 q 267 3 300 -1 q 213 -36 233 -12 q 192 -93 192 -60 q 231 -165 192 -139 q 326 -192 271 -192 m 324 286 q 396 321 369 286 q 422 410 422 356 l 422 439 q 397 525 422 490 q 322 560 371 560 q 249 525 275 560 q 224 439 224 490 l 224 411 q 249 322 224 358 q 324 286 275 286 z "},"ğ":{"ha":654,"x_min":22,"x_max":635,"o":"m 329 -307 q 177 -284 247 -307 q 65 -217 107 -261 q 22 -111 22 -172 q 51 -22 22 -58 q 124 36 81 15 q 81 69 97 49 q 65 125 65 90 q 85 188 65 164 q 136 233 106 213 q 72 310 94 265 q 50 410 50 356 l 50 439 q 83 558 50 507 q 178 639 117 610 q 321 668 240 668 q 407 658 367 668 q 479 628 447 647 q 524 703 503 683 q 564 722 544 722 q 616 703 597 722 q 635 667 635 683 q 628 644 635 654 q 611 628 622 635 q 581 608 599 619 q 547 575 563 596 q 584 513 572 547 q 596 439 596 479 l 596 410 q 561 291 596 343 q 464 208 526 239 q 321 178 401 178 q 231 190 271 178 q 219 178 224 185 q 214 163 214 171 q 244 129 214 139 q 322 114 275 119 q 423 99 369 108 q 524 71 476 90 q 601 13 571 51 q 632 -89 632 -25 q 588 -215 632 -167 q 476 -285 544 -262 q 329 -307 407 -307 m 326 -192 q 419 -165 381 -192 q 457 -94 457 -139 q 440 -47 457 -65 q 395 -20 424 -29 q 333 -6 367 -11 q 267 3 300 -1 q 213 -36 233 -12 q 192 -93 192 -60 q 231 -165 192 -139 q 326 -192 271 -192 m 324 286 q 396 321 369 286 q 422 410 422 356 l 422 439 q 397 525 422 490 q 322 560 371 560 q 249 525 275 560 q 224 439 224 490 l 224 411 q 249 322 224 358 q 324 286 275 286 m 300 815 q 187 858 239 815 q 119 960 135 900 q 126 990 115 979 q 156 1000 136 1000 l 178 1000 q 203 991 194 1000 q 218 967 213 982 q 251 915 226 935 q 300 896 275 896 q 350 915 328 896 q 382 967 372 935 q 397 991 388 982 q 422 1000 406 1000 l 444 1000 q 474 989 463 1000 q 479 958 485 978 q 413 858 464 900 q 300 815 361 815 z "},"ĝ":{"ha":654,"x_min":22,"x_max":635,"o":"m 329 -307 q 177 -284 247 -307 q 65 -217 107 -261 q 22 -111 22 -172 q 51 -22 22 -58 q 124 36 81 15 q 81 69 97 49 q 65 125 65 90 q 85 188 65 164 q 136 233 106 213 q 72 310 94 265 q 50 410 50 356 l 50 439 q 83 558 50 507 q 178 639 117 610 q 321 668 240 668 q 407 658 367 668 q 479 628 447 647 q 524 703 503 683 q 564 722 544 722 q 616 703 597 722 q 635 667 635 683 q 628 644 635 654 q 611 628 622 635 q 581 608 599 619 q 547 575 563 596 q 584 513 572 547 q 596 439 596 479 l 596 410 q 561 291 596 343 q 464 208 526 239 q 321 178 401 178 q 231 190 271 178 q 219 178 224 185 q 214 163 214 171 q 244 129 214 139 q 322 114 275 119 q 423 99 369 108 q 524 71 476 90 q 601 13 571 51 q 632 -89 632 -25 q 588 -215 632 -167 q 476 -285 544 -262 q 329 -307 407 -307 m 326 -192 q 419 -165 381 -192 q 457 -94 457 -139 q 440 -47 457 -65 q 395 -20 424 -29 q 333 -6 367 -11 q 267 3 300 -1 q 213 -36 233 -12 q 192 -93 192 -60 q 231 -165 192 -139 q 326 -192 271 -192 m 324 286 q 396 321 369 286 q 422 410 422 356 l 422 439 q 397 525 422 490 q 322 560 371 560 q 249 525 275 560 q 224 439 224 490 l 224 411 q 249 322 224 358 q 324 286 275 286 m 142 797 q 114 815 125 797 q 103 853 103 832 q 110 882 103 868 q 133 904 117 896 l 278 982 q 301 989 290 989 q 325 982 311 989 l 469 906 q 492 883 486 897 q 499 851 499 868 q 488 815 499 832 q 460 797 478 797 q 453 799 457 797 q 446 801 449 800 l 301 879 l 157 801 q 149 799 153 800 q 142 797 144 797 z "},"ģ":{"ha":654,"x_min":22,"x_max":635,"o":"m 329 -307 q 177 -284 247 -307 q 65 -217 107 -261 q 22 -111 22 -172 q 51 -22 22 -58 q 124 36 81 15 q 81 69 97 49 q 65 125 65 90 q 85 188 65 164 q 136 233 106 213 q 72 310 94 265 q 50 410 50 356 l 50 439 q 83 558 50 507 q 178 639 117 610 q 321 668 240 668 q 407 658 367 668 q 479 628 447 647 q 524 703 503 683 q 564 722 544 722 q 616 703 597 722 q 635 667 635 683 q 628 644 635 654 q 611 628 622 635 q 581 608 599 619 q 547 575 563 596 q 584 513 572 547 q 596 439 596 479 l 596 410 q 561 291 596 343 q 464 208 526 239 q 321 178 401 178 q 231 190 271 178 q 219 178 224 185 q 214 163 214 171 q 244 129 214 139 q 322 114 275 119 q 423 99 369 108 q 524 71 476 90 q 601 13 571 51 q 632 -89 632 -25 q 588 -215 632 -167 q 476 -285 544 -262 q 329 -307 407 -307 m 326 -192 q 419 -165 381 -192 q 457 -94 457 -139 q 440 -47 457 -65 q 395 -20 424 -29 q 333 -6 367 -11 q 267 3 300 -1 q 213 -36 233 -12 q 192 -93 192 -60 q 231 -165 192 -139 q 326 -192 271 -192 m 324 286 q 396 321 369 286 q 422 410 422 356 l 422 439 q 397 525 422 490 q 322 560 371 560 q 249 525 275 560 q 224 439 224 490 l 224 411 q 249 322 224 358 q 324 286 275 286 m 263 789 q 224 812 240 789 q 207 857 207 835 q 232 900 207 888 l 414 989 q 432 992 424 992 q 472 969 456 992 q 488 924 488 947 q 463 882 488 894 l 282 794 q 272 791 276 793 q 263 789 268 789 z "},"ġ":{"ha":654,"x_min":22,"x_max":635,"o":"m 329 -307 q 177 -284 247 -307 q 65 -217 107 -261 q 22 -111 22 -172 q 51 -22 22 -58 q 124 36 81 15 q 81 69 97 49 q 65 125 65 90 q 85 188 65 164 q 136 233 106 213 q 72 310 94 265 q 50 410 50 356 l 50 439 q 83 558 50 507 q 178 639 117 610 q 321 668 240 668 q 407 658 367 668 q 479 628 447 647 q 524 703 503 683 q 564 722 544 722 q 616 703 597 722 q 635 667 635 683 q 628 644 635 654 q 611 628 622 635 q 581 608 599 619 q 547 575 563 596 q 584 513 572 547 q 596 439 596 479 l 596 410 q 561 291 596 343 q 464 208 526 239 q 321 178 401 178 q 231 190 271 178 q 219 178 224 185 q 214 163 214 171 q 244 129 214 139 q 322 114 275 119 q 423 99 369 108 q 524 71 476 90 q 601 13 571 51 q 632 -89 632 -25 q 588 -215 632 -167 q 476 -285 544 -262 q 329 -307 407 -307 m 326 -192 q 419 -165 381 -192 q 457 -94 457 -139 q 440 -47 457 -65 q 395 -20 424 -29 q 333 -6 367 -11 q 267 3 300 -1 q 213 -36 233 -12 q 192 -93 192 -60 q 231 -165 192 -139 q 326 -192 271 -192 m 324 286 q 396 321 369 286 q 422 410 422 356 l 422 439 q 397 525 422 490 q 322 560 371 560 q 249 525 275 560 q 224 439 224 490 l 224 411 q 249 322 224 358 q 324 286 275 286 m 301 800 q 251 822 272 800 q 229 874 229 844 q 251 925 229 903 q 301 947 272 947 q 351 925 331 947 q 372 874 372 903 q 351 822 372 844 q 301 800 331 800 z "},"h":{"ha":728,"x_min":71,"x_max":664,"o":"m 160 0 q 96 18 121 0 q 71 57 71 36 l 71 989 q 96 1029 71 1014 q 160 1044 121 1044 q 224 1029 197 1044 q 250 989 250 1014 l 250 563 q 315 635 271 603 q 425 668 360 668 q 544 630 490 668 q 631 528 599 592 q 664 386 664 464 l 664 57 q 636 15 664 29 q 574 0 608 0 q 514 15 543 0 q 485 57 485 29 l 485 386 q 468 446 485 418 q 424 492 451 474 q 364 511 397 511 q 310 496 336 511 q 267 453 283 481 q 250 386 250 425 l 250 57 q 224 18 250 36 q 160 0 197 0 z "},"ħ":{"ha":728,"x_min":-19,"x_max":664,"o":"m 160 0 q 96 18 121 0 q 71 57 71 36 l 71 771 l 36 771 q -4 788 11 771 q -19 829 -19 804 q -4 872 -19 854 q 36 889 11 889 l 71 889 l 71 989 q 96 1029 71 1014 q 160 1044 121 1044 q 224 1029 197 1044 q 250 989 250 1014 l 250 889 l 319 889 q 360 872 342 889 q 378 829 378 854 q 360 788 378 804 q 319 771 342 771 l 250 771 l 250 563 q 315 635 271 603 q 425 668 360 668 q 544 630 490 668 q 631 528 599 592 q 664 386 664 464 l 664 57 q 636 15 664 29 q 574 0 608 0 q 514 15 543 0 q 485 57 485 29 l 485 386 q 468 446 485 418 q 424 492 451 474 q 364 511 397 511 q 310 496 336 511 q 267 453 283 481 q 250 386 250 425 l 250 57 q 224 18 250 36 q 160 0 197 0 z "},"ĥ":{"ha":728,"x_min":-53,"x_max":664,"o":"m 160 0 q 96 18 121 0 q 71 57 71 36 l 71 989 q 96 1029 71 1014 q 160 1044 121 1044 q 224 1029 197 1044 q 250 989 250 1014 l 250 563 q 315 635 271 603 q 425 668 360 668 q 544 630 490 668 q 631 528 599 592 q 664 386 664 464 l 664 57 q 636 15 664 29 q 574 0 608 0 q 514 15 543 0 q 485 57 485 29 l 485 386 q 468 446 485 418 q 424 492 451 474 q 364 511 397 511 q 310 496 336 511 q 267 453 283 481 q 250 386 250 425 l 250 57 q 224 18 250 36 q 160 0 197 0 m -14 1163 q -42 1180 -31 1163 q -53 1218 -53 1197 q -46 1247 -53 1233 q -22 1269 -39 1261 l 122 1347 q 146 1354 135 1354 q 169 1347 156 1354 l 314 1271 q 337 1248 331 1263 q 343 1217 343 1233 q 333 1180 343 1197 q 304 1163 322 1163 q 297 1164 301 1163 q 290 1167 293 1165 l 146 1244 l 1 1167 q -7 1164 -3 1165 q -14 1163 -11 1163 z "},"i":{"ha":317,"x_min":60,"x_max":256,"o":"m 158 807 q 89 834 118 807 q 60 894 60 861 q 89 956 60 931 q 158 982 118 982 q 228 956 200 982 q 256 894 256 931 q 228 834 256 861 q 158 807 200 807 m 158 0 q 94 18 119 0 q 69 57 69 36 l 69 604 q 94 644 69 629 q 158 660 119 660 q 222 644 196 660 q 249 604 249 629 l 249 57 q 222 18 249 36 q 158 0 196 0 z "},"ı":{"ha":317,"x_min":69,"x_max":249,"o":"m 158 0 q 94 18 119 0 q 69 57 69 36 l 69 604 q 94 644 69 629 q 158 660 119 660 q 222 644 196 660 q 249 604 249 629 l 249 57 q 222 18 249 36 q 158 0 196 0 z "},"í":{"ha":317,"x_min":56,"x_max":336,"o":"m 158 0 q 94 18 119 0 q 69 57 69 36 l 69 604 q 94 644 69 629 q 158 660 119 660 q 222 644 196 660 q 249 604 249 629 l 249 57 q 222 18 249 36 q 158 0 196 0 m 111 786 q 72 809 89 786 q 56 854 56 832 q 79 897 56 885 l 263 986 q 281 989 272 989 q 320 967 304 989 q 336 921 336 944 q 311 879 336 892 l 131 792 q 121 788 125 790 q 111 786 117 786 z "},"ĭ":{"ha":317,"x_min":-26,"x_max":343,"o":"m 158 0 q 94 18 119 0 q 69 57 69 36 l 69 604 q 94 644 69 629 q 158 660 119 660 q 222 644 196 660 q 249 604 249 629 l 249 57 q 222 18 249 36 q 158 0 196 0 m 158 814 q 45 856 97 814 q -22 958 -7 899 q -16 988 -26 978 q 14 999 -6 999 l 36 999 q 62 990 53 999 q 76 965 71 981 q 109 914 85 933 q 158 894 133 894 q 208 914 186 894 q 240 965 231 933 q 255 990 246 981 q 281 999 264 999 l 303 999 q 332 988 321 999 q 338 957 343 976 q 271 856 322 899 q 158 814 219 814 z "},"î":{"ha":317,"x_min":-39,"x_max":357,"o":"m 158 0 q 94 18 119 0 q 69 57 69 36 l 69 604 q 94 644 69 629 q 158 660 119 660 q 222 644 196 660 q 249 604 249 629 l 249 57 q 222 18 249 36 q 158 0 196 0 m 0 797 q -28 815 -17 797 q -39 853 -39 832 q -32 882 -39 868 q -8 904 -25 896 l 136 982 q 160 989 149 989 q 183 982 169 989 l 328 906 q 351 883 344 897 q 357 851 357 868 q 347 815 357 832 q 318 797 336 797 q 311 799 315 797 q 304 801 307 800 l 160 879 l 15 801 q 7 799 11 800 q 0 797 3 797 z "}}}
